<?xml version="1.0" encoding="UTF-8" standalone="no"?>
<!-- Created with Inkscape (http://www.inkscape.org/) -->

<svg
   xmlns:dc="http://purl.org/dc/elements/1.1/"
   xmlns:cc="http://creativecommons.org/ns#"
   xmlns:rdf="http://www.w3.org/1999/02/22-rdf-syntax-ns#"
   xmlns:svg="http://www.w3.org/2000/svg"
   xmlns="http://www.w3.org/2000/svg"
   xmlns:sodipodi="http://sodipodi.sourceforge.net/DTD/sodipodi-0.dtd"
   xmlns:inkscape="http://www.inkscape.org/namespaces/inkscape"
   version="1.1"
   id="svg2"
   width="1192"
   height="1080"
   viewBox="0 0 1192 1080"
   sodipodi:docname="barrels.svg"
   inkscape:version="0.92.3 (2405546, 2018-03-11)">
  <metadata
     id="metadata8">
    <rdf:RDF>
      <cc:Work
         rdf:about="">
        <dc:format>image/svg+xml</dc:format>
        <dc:type
           rdf:resource="http://purl.org/dc/dcmitype/StillImage" />
        <dc:title></dc:title>
      </cc:Work>
    </rdf:RDF>
  </metadata>
  <defs
     id="defs6" />
  <sodipodi:namedview
     pagecolor="#ffffff"
     bordercolor="#666666"
     borderopacity="1"
     objecttolerance="10"
     gridtolerance="10"
     guidetolerance="10"
     inkscape:pageopacity="0"
     inkscape:pageshadow="2"
     inkscape:window-width="1208"
     inkscape:window-height="743"
     id="namedview4"
     showgrid="false"
     inkscape:zoom="0.43703704"
     inkscape:cx="92.706691"
     inkscape:cy="617.86677"
     inkscape:window-x="67"
     inkscape:window-y="27"
     inkscape:window-maximized="0"
     inkscape:current-layer="svg2" />
  <path
     style="fill:#000000;stroke-width:1.33333337"
     d="m 615.96384,930.65357 c -13.45108,-2.1398 -21.85649,-4.7298 -21.85649,-6.7348 0,-1.5554 2.67377,-1.8319 14.66667,-1.517 18.24238,0.4791 26.09449,-1.4643 43.26428,-10.7079 14.80258,-7.9691 24.44108,-17.1361 35.30701,-33.5798 12.41288,-18.7848 20.9644,-38.4716 35.67408,-82.1266 20.73428,-61.53469 26.65116,-100.33615 26.83845,-176 0.114,-46.06324 -1.09516,-59.56544 -8.57596,-95.76303 -9.09565,-44.0114 -29.64394,-98.6506 -51.88058,-137.95369 -23.26535,-41.12132 -46.38123,-57.44041 -76.62728,-54.09645 -8.1271,0.89852 -11.58328,0.32624 -6.32858,-1.04791 2.11315,-0.5526 3.43942,-2.65104 4.94178,-7.81899 1.1294,-3.88502 2.05346,-7.49124 2.05346,-8.0138 0,-0.52257 -3.75,-0.56964 -8.33333,-0.10466 -4.58333,0.46502 -10.13333,0.3369 -12.33333,-0.28474 -3.23036,-0.91278 -1.57075,-1.31558 8.62552,-2.09349 6.94404,-0.52977 12.84624,-1.18395 13.116,-1.45371 1.03146,-1.03148 6.01382,-28.72536 5.2969,-29.44229 -0.4151,-0.41511 -8.87485,-0.33356 -18.79945,0.1812 -20.30757,1.05331 -18.55551,-0.0981 -20.30812,13.34644 l -0.88489,6.78828 7.14368,-0.51819 c 3.92904,-0.285 9.84369,0.0445 13.14369,0.7323 l 6,1.25049 -7.48057,0.14608 c -4.11431,0.0804 -10.19916,0.51872 -13.5219,0.97415 -5.99601,0.82185 -6.05097,0.87685 -7.32757,7.33333 l -1.28627,6.50528 6.1415,0.16689 6.14148,0.16688 -5.33334,0.87986 c -2.93333,0.48392 -6.03112,1.31197 -6.88398,1.8401 -1.33332,0.82566 -3.58615,9.61714 -3.22082,12.56896 0.0677,0.54699 6.56898,0.8266 14.44728,0.62138 7.87831,-0.20524 21.38751,0.22568 30.02046,0.95761 19.29309,1.63573 25.31484,4.45723 39.13316,18.33587 12.11252,12.1654 21.63288,26.60342 34.36866,52.12153 19.94038,39.95363 33.18379,74.29197 37.52199,97.28936 1.21579,6.44503 3.05963,16.08407 4.09744,21.42011 5.03841,25.90578 9.33649,92.05994 7.81585,120.29812 -0.89876,16.68978 -6.19244,62.82778 -9.40833,82 -6.8164,40.63729 -22.04959,86.37428 -42.15417,126.56603 -14.9308,29.8487 -31.92806,50.744 -47.52695,58.4264 l -8.81397,4.3409 -40.69831,0.4442 -40.69831,0.4441 -4.49072,3.4104 c -11.14756,8.4659 -26.82784,10.8697 -54.84261,8.4075 -38.12164,-3.3505 -72.32901,-12.8228 -69.82952,-19.3363 0.98095,-2.5564 2.29755,-2.5458 11.1728,0.09 4.78553,1.4211 10.7256,1.9732 17.90867,1.6646 9.13849,-0.3927 12.33241,-1.218 21.32781,-5.5111 24.55623,-11.7197 53.31413,-49.6797 68.73109,-90.72407 23.86375,-63.53209 36.02446,-143.33921 32.19968,-211.31706 -4.06956,-72.32858 -19.29574,-146.14087 -38.17906,-185.08147 -17.0075,-35.07229 -44.57618,-63.9026 -69.47424,-72.65356 -9.70374,-3.41059 -24.68764,-4.55013 -34.1015,-2.59345 -6.53092,1.35745 -25.10468,11.3239 -23.57504,12.65008 0.26728,0.23173 7.38598,-1.02079 15.81931,-2.78336 21.49659,-4.49282 31.13488,-3.94163 44.09748,2.52182 22.02611,10.98272 41.60939,32.7845 56.62015,63.03438 9.84236,19.83444 15.62281,36.70868 23.15996,67.60829 13.56488,55.61104 18.1632,98.83436 16.77961,157.72504 -0.80244,34.15501 -2.14211,50.75379 -6.07655,75.29035 -8.64405,53.90717 -24.17058,102.07294 -41.92017,130.04301 -24.82792,39.1242 -44.78699,55.2681 -68.59729,55.4852 -16.53382,0.1508 -56.54123,-10.6242 -79.64188,-21.4496 -6.3014,-2.9529 -12.14098,-5.3689 -12.97683,-5.3689 -2.10385,0 -20.30332,-8.8139 -24.77664,-11.9992 -3.10305,-2.2096 -6.50784,-2.6963 -22.167,-3.1688 -19.39949,-0.5854 -31.34628,-2.501 -33.76356,-5.4136 -2.09357,-2.5226 0.45232,-3.9597 10.52413,-5.9406 8.35947,-1.6441 17.79799,-5.5439 19.30011,-7.9744 0.40835,-0.6607 -0.16853,-1.9573 -1.28196,-2.8814 -1.66436,-1.3813 -2.551,-1.1988 -4.98532,1.0263 -7.10001,6.4897 -11.42168,7.6412 -27.62757,7.3612 -8.43334,-0.1457 -23.04799,-0.9354 -32.47702,-1.7549 l -17.14366,-1.4899 -8.0911,3.6311 c -7.85014,3.5229 -8.61022,3.6083 -25.523,2.8652 -18.94882,-0.8325 -36.14468,-4.2457 -61.47461,-12.202 -15.92732,-5.00291 -29.957282,-13.42809 -29.957282,-17.98977 0,-3.55749 3.35521,-4.29082 6.914912,-1.51136 10.2394,7.99511 20.92524,10.4378 32.41842,7.41058 40.46944,-10.65938 69.58088,-68.42184 82.30174,-163.30182 2.68709,-20.04196 2.1971,-101.4057 -0.74272,-123.33333 -7.1655,-53.44587 -21.06087,-93.65001 -43.85798,-126.89627 -12.16001,-17.7336 -24.47378,-27.06094 -38.42117,-29.10296 -7.44719,-1.09033 -21.35241,1.30183 -28.36601,4.8799 -6.16686,3.14609 -9.092282,1.72845 -5.88434,-2.85152 5.26024,-7.51006 18.90848,-14.41175 35.19279,-17.79643 5.01107,-1.04155 8.98603,-2.41999 8.83324,-3.06321 -0.15279,-0.64323 -2.44984,-7.16951 -5.10457,-14.50284 -6.71262,-18.5427 -12.01966,-39.86446 -15.49934,-62.27086 -2.50713,-16.14386 -2.9644,-24.57436 -2.98656,-55.06248 -0.028,-38.43648 1.28439,-52.54162 7.99884,-85.97213 5.37688,-26.77084 14.14358,-48.96227 25.4007,-64.297517 6.89706,-9.39569 23.4246,-24.15604 37.81798,-33.77435 23.81388,-15.91349 64.93967,-32.99608 79.3174,-32.94637 18.61967,0.0644 40.17786,16.02133 55.12066,40.79925 23.83502,39.5229 37.70466,114.724787 35.81506,194.191117 -1.16692,49.07423 -8.14689,86.09155 -22.96682,121.80142 -0.97287,2.34418 -0.81924,2.36205 3.06013,0.35594 8.36955,-4.32805 18.76365,-39.04686 24.39668,-81.49069 3.33279,-25.11204 3.98853,-70.6778 1.37196,-95.33333 -5.60663,-52.83015 -17.91072,-103.364337 -32.22513,-132.351957 -15.3578,-31.10056 -32.4008,-46.79309 -55.02976,-50.66927 -8.31715,-1.42466 -13.72408,-0.8433 -30.04278,3.23025 -1.00833,0.2517 -2.08192,-0.2131 -2.38573,-1.0329 -0.58916,-1.58973 10.06037,-6.29731 18.88573,-8.3483402 2.93334,-0.68171 10.13334,-2.45004 16,-3.9296 15.12766,-3.81518 33.25926,-5.87144 53.33334,-6.04842 15.28125,-0.13471 18.28045,0.21955 25.33333,2.99235 6.78311,2.66675 11.54925,3.30382 31.33333,4.18819 12.83334,0.57366 26.333,1.7376 29.99926,2.58654 12.8092,2.9660202 23.3028,9.2898102 35.4283,21.3502502 26.24528,26.10445 42.78128,67.51655 53.78606,134.699567 5.54582,33.85672 6.74564,48.37792 6.72016,81.33334 -0.0252,32.55876 -1.82912,50.50008 -7.20586,71.66666 l -2.45552,9.66667 h 3.65814 c 3.46612,0 3.77277,-0.52167 5.84189,-9.9382 4.81788,-21.926 6.73263,-42.28525 6.71456,-71.39513 -0.0448,-72.19879 -11.92456,-135.06395 -34.42813,-182.186297 -16.86262,-35.31024 -35.31632,-52.86321 -59.52098,-56.6157402 -14.02577,-2.17446 -14.40408,-2.32959 -11.28304,-4.62652 4.18562,-3.08042 37.13735,-2.57489 54.83978,0.84133 17.90968,3.45621 26.1535,6.5360502 36.04837,13.4674302 4.79076,3.35593 12.34173,6.90259 19.42169,9.12227 9.49368,2.97643 13.62002,5.22183 22.87123,12.4457 49.12649,38.36076 74.65843,105.563487 74.80139,196.885157 0.052,33.18795 -1.67536,48.30623 -8.45476,74 -2.12842,8.06667 -4.0752,15.56667 -4.32619,16.66667 -0.33143,1.45254 0.45608,1.87114 2.87699,1.52925 4.40276,-0.62177 4.61148,-1.06487 7.87973,-16.7278 7.81261,-37.44149 10.23044,-82.05735 6.28308,-115.94064 -8.53776,-73.28613 -33.95571,-128.181087 -72.63108,-156.860807 -7.4644,-5.53523 -9.91752,-9.44681 -7.03987,-11.2253 1.59166,-0.9837 21.2292,6.309 34.1748,12.69132 7.48671,3.69104 14.64162,8.84256 24,17.28002 7.33334,6.61168 16.93334,14.50714 21.33334,17.54548 33.18173,22.91301 43.92416,34.095717 55.47905,57.752877 12.77499,26.15513 18.52095,59.08398 18.52095,106.13949 0,42.52109 -3.11036,65.16057 -12.00347,87.37007 -2.19809,5.48948 -3.99653,10.18046 -3.99653,10.42442 0,0.24396 4.05,2.65615 9,5.36043 4.95,2.70427 12,7.14499 15.66666,9.86825 7.95068,5.90504 23.55488,12.12831 24.35932,9.71499 0.76167,-2.285 3.56182,-2.00988 19.11014,1.87761 31.08986,7.77328 43.07548,15.0346 77.08922,46.70339 4.82606,4.49336 15.67466,12.65167 24.10799,18.1296 17.7433,11.52529 25.418,18.85595 35.2822,33.70068 8.1297,12.23445 11.9284,19.52548 18.8405,36.16091 12.0412,28.97989 21.0053,60.63521 25.4403,89.83909 2.8939,19.05596 3.2842,69.85165 0.6966,90.66667 -4.3513,35.00254 -13.5617,68.05876 -25.7668,92.47693 -16.538,33.08692 -34.1747,51.32601 -69.15947,71.5219 -6.33301,3.6559 -15.55633,11.0962 -25.15232,20.29 -14.14453,13.5517 -16.26385,15.0512 -31.8646,22.5461 -26.74133,12.847 -39.87034,15.8145 -48.97174,11.0689 -6.26238,-3.2654 -11.10692,-1.5059 -20.2896,7.3688 -12.23259,11.8223 -27.10446,18.4649 -53.74127,24.0039 -14.87509,3.0932 -38.83669,4.4124 -49.45731,2.7229 z m 20.69055,-25.019 c 6.37569,-2.9405 19.84255,-12.3686 18.94667,-13.2645 -0.24615,-0.2462 -3.98294,0.4817 -8.30396,1.6176 -10.42774,2.741 -36.52308,4.3154 -36.52308,2.2035 0,-0.8454 1.77046,-1.537 3.93437,-1.537 5.68261,0 15.82003,-2.2471 34.31651,-7.6068 l 16.25088,-4.709 5.55745,-7.9227 c 3.0566,-4.3574 5.32093,-8.1592 5.03185,-8.4482 -0.28906,-0.2891 -4.40282,0.012 -9.14166,0.6694 -10.71914,1.4869 -46.68326,4.0075 -57.72214,4.0457 -8.02952,0.028 -8.3154,0.1531 -11.89393,5.2131 -2.01667,2.8515 -3.66667,5.3889 -3.66667,5.6386 0,0.5967 33.07751,-1.0926 43.32523,-2.2126 4.39555,-0.4805 7.60492,-0.4866 7.13195,-0.014 -1.33155,1.3315 -33.86148,7.0757 -45.79051,8.0858 -10.58983,0.8966 -10.71949,0.9531 -18,7.8498 -4.03333,3.8206 -9.37544,8.5898 -11.87135,10.598 l -4.53801,3.6514 33.20468,-0.4195 c 31.20048,-0.3941 33.59985,-0.6017 39.75172,-3.439 z m -166.90725,-11.3107 c 4.12166,-1.8869 10.19034,-5.9163 13.48594,-8.9541 6.22918,-5.7418 17.63954,-19.7753 16.72924,-20.5751 -0.2869,-0.2521 -6.52164,-1.182 -13.85497,-2.0665 -17.76447,-2.1426 -34.91876,-5.9147 -43.30488,-9.5223 l -6.84641,-2.9452 -5.25768,5.134 c -2.89174,2.8237 -5.2577,5.6454 -5.2577,6.2705 0,1.7817 13.31442,7.4277 23.36508,9.9079 5.01798,1.2383 8.43603,2.4807 7.59567,2.7608 -2.94936,0.9831 -23.65559,-3.6839 -29.77017,-6.71 l -6.1792,-3.058 -6.50568,4.401 c -7.61756,5.1532 -17.97038,9.2468 -29.17236,11.5351 l -8,1.6343 15.90309,4.4195 c 44.93521,12.4876 62.82305,14.2906 77.07003,7.7681 z m 68.76021,-1.2697 c 2.24155,-2.2416 1.99915,-3.318 -0.91907,-4.0811 -3.42581,-0.8959 -6.0484,0.9458 -5.0504,3.5465 0.96962,2.5268 3.73006,2.774 5.96947,0.5346 z m 227.28621,-25.3883 c 5.88739,-6.6601 17.30394,-22.466 16.6787,-23.0913 -0.80643,-0.8064 -23.02876,5.1887 -23.48664,6.3362 -0.2503,0.6272 -4.9003,7.7937 -10.33334,15.9256 -5.43305,8.1318 -9.87826,14.9974 -9.87826,15.2569 0,0.2595 4.95,-1.6029 11,-4.1386 8.12442,-3.4052 12.31218,-6.0949 16.01954,-10.2888 z m 11.68552,-0.5518 c 19.39898,-20.0713 40.34668,-52.46509 54.72754,-84.63145 8.38421,-18.75338 18.76949,-49.62372 22.41261,-66.62171 15.56522,-72.62352 6.47119,-174.69413 -21.84888,-245.23117 -15.23721,-37.95146 -36.3292,-68.22894 -61.11769,-87.7342 -12.97784,-10.21186 -12.99176,-9.6072 -0.0728,3.16197 19.59389,19.36672 32.68116,38.63259 47.95613,70.59663 21.11237,44.17926 31.78163,88.80768 35.36952,147.94729 4.02955,66.41952 -8.18384,131.98248 -34.88745,187.28 -5.1631,10.69165 -12.18495,23.93937 -15.60412,29.43937 -7.54599,12.13828 -33.0086,47.75537 -39.94955,55.88147 -8.80116,10.3039 -0.40151,3.793 13.01469,-10.0882 z m -55.33226,8.8096 c 0.47492,-0.7685 0.50322,-2.3361 0.0629,-3.4835 -0.64705,-1.6863 -1.18112,-1.7705 -2.78481,-0.4396 -1.09132,0.9057 -1.98423,2.4733 -1.98423,3.4835 0,2.151 3.44929,2.4732 4.70613,0.4396 z m -328.03947,-5.5223 c 15.8012,-5.231 34.98916,-19.9575 33.42948,-25.6567 -0.41501,-1.5164 -1.44817,-6.4423 -2.29592,-10.94631 l -1.54135,-8.18909 -7.27209,7.85473 c -8.70472,9.40207 -24.10461,19.99897 -33.89043,23.32037 -3.903,1.3248 -10.40404,2.3846 -14.44677,2.3552 l -7.35041,-0.054 1.29246,7.0554 c 1.11319,6.0766 1.7629,7.1348 4.68375,7.6288 5.90287,0.9984 19.10307,-0.6252 27.39128,-3.369 z m -44.82441,-11.186 c 0.1196,-2.1005 -1.52199,-3.5541 -6.77544,-6 -9.04056,-4.2091 -18.91516,-14.0218 -27.13051,-26.96066 -10.26817,-16.17197 -9.58024,-15.38509 -10.72472,-12.26724 -0.53836,1.46667 -2.06824,4.24105 -3.39971,6.16531 l -2.42084,3.49865 6.47607,9.16801 c 10.59572,15.00003 21.40591,25.04563 34.93947,32.46803 l 7.19342,3.9451 0.84226,-3.6225 c 0.46322,-1.9925 0.91322,-4.87 1,-6.3947 z m 15.46153,-8.5466 c 2.08781,-0.012 1.53317,-0.9173 -2.66263,-4.348 -8.93084,-7.3023 -15.04029,-14.42619 -24.29844,-28.3333 -15.05774,-22.61895 -25.95538,-46.25655 -33.08456,-71.76233 -1.55729,-5.57146 -2.69502,-7.56075 -4.03101,-7.04808 -1.02373,0.39284 -4.86864,1.11318 -8.54424,1.60077 -3.6756,0.48759 -6.68291,1.28355 -6.68291,1.76879 0,2.18958 8.78311,27.67865 14.85412,43.10752 l 6.68924,17 h 8.96166 c 9.82277,0 12.8466,1.56216 10.719,5.5376 -1.01311,1.89301 -2.86779,2.4624 -8.02082,2.4624 h -6.70296 l 3.74988,7 c 4.80067,8.96152 23.29306,27.65833 31.08322,31.42683 4.0503,1.9593 7.51642,2.6913 10.66666,2.2525 2.56667,-0.3575 5.85338,-0.6566 7.30379,-0.6647 z m 24.52995,-3.3531 c 11.77252,-6.1862 21.5549,-14.93568 31.27164,-27.96957 8.88949,-11.92423 20.21726,-34.48494 25.45254,-50.69196 4.7606,-14.73756 17.56116,-87.53502 15.88404,-90.33334 -0.32964,-0.55 -3.22985,-1 -6.44493,-1 -14.99701,0 -124.27757,-13.92925 -145.99703,-18.60925 l -6,-1.29285 7.33334,0.63393 c 4.03333,0.34867 28.03333,2.14247 53.33333,3.98621 40.13321,2.92474 55.12688,4.26931 90.80028,8.14268 7.04668,0.76512 7.51468,0.63239 8.31512,-2.35832 1.32296,-4.94298 1.02081,-46.48722 -0.48851,-67.16906 -4.33348,-59.38032 -17.01696,-116.79988 -32.59057,-147.54126 l -5.63615,-11.12541 -5.20008,0.11333 c -2.86005,0.0624 -13.11316,1.15576 -22.78468,2.42982 -9.67153,1.27405 -19.27153,2.12304 -21.33333,1.88664 -2.06181,-0.2364 5.85125,-1.83664 17.58459,-3.5561 11.73333,-1.71946 23.0652,-3.53994 25.18192,-4.04552 l 3.84857,-0.91924 -6.98815,-8.3971 c -8.19305,-9.84495 -21.79702,-20.25808 -31.78866,-24.33256 -6.11984,-2.4956 -7.77562,-2.67848 -12.21316,-1.34896 -8.31008,2.48976 -17.5482,9.70166 -25.09586,19.59156 -7.56241,9.9092 -23.30228,40.58576 -28.7149,55.96453 -2.96538,8.42544 -8.58444,31.73989 -10.83275,44.94691 l -0.85119,5 22.39376,-0.0147 c 12.31656,-0.008 35.59375,0.74191 51.72708,1.66667 l 29.33334,1.68136 -15.33334,0.89542 c -8.43333,0.4925 -31.52814,1.27583 -51.3218,1.74076 -30.70705,0.72127 -36.16012,1.15207 -37.15818,2.93554 -2.98543,5.33464 -8.4949,62.17206 -9.34718,96.42828 -1.22317,49.16409 5.93084,97.90326 19.37359,131.98909 l 4.45357,11.29263 6.66667,1.50666 c 29.19984,6.59919 84.42909,23.31879 80.13887,24.26052 -3.54046,0.77715 -14.12475,-1.35941 -49.75811,-10.04422 -17.02391,-4.14919 -31.34064,-7.15591 -31.81495,-6.6816 -2.67453,2.67452 23.59522,42.64489 34.42967,52.38598 5.05303,4.5431 17.83705,12.2687 20.80955,12.5756 0.25942,0.027 4.47234,-2.0536 9.36204,-4.6231 z m 434.52737,-3.5782 c -0.82409,-2.4723 -3.69444,-2.8824 -3.69444,-0.5278 0,1.1611 0.95,2.1111 2.11111,2.1111 1.16112,0 1.87361,-0.7125 1.58333,-1.5833 z m -530.6832,-4.3066 4.97208,-4.55655 -3.03473,-5.11009 c -1.6691,-2.81055 -5.12288,-9.16009 -7.67508,-14.11009 l -4.64036,-9 h -13.19499 -13.19497 l -4.70254,8.33333 -4.70253,8.33333 4.91427,1.03127 c 2.70285,0.5672 10.01428,1.84396 16.24761,2.83724 l 11.33333,1.80599 -14.24653,0.16274 c -7.8356,0.0895 -15.7264,-0.39988 -17.53513,-1.08756 -2.5824,-0.98182 -3.77144,-0.71681 -5.537,1.23411 -2.15772,2.38427 -1.98831,2.52121 4.20181,3.39661 14.2736,2.01856 15.59981,3.05999 3.11685,2.44758 -11.40989,-0.55976 -12.98306,-0.34724 -15.85554,2.14197 -1.7539,1.51982 -2.93059,3.02172 -2.6149,3.33742 0.64872,0.6487 34.41156,2.8672 48.1567,3.1643 8.52826,0.1844 9.2904,-0.053 13.99165,-4.3616 z m 348.98876,2.5318 c 13.00659,-0.7801 41.00875,-3.9588 46.99187,-5.33415 2.88326,-0.66281 5.96734,-6.02998 7.90798,-13.76212 0.57227,-2.28009 0.35686,-2.98896 -0.70825,-2.33068 -2.13745,1.32102 -40.1916,5.80394 -40.1916,4.73471 0,-1.29468 18.95028,-6.57711 32.66667,-9.10587 l 12,-2.21233 6.40821,-18.64905 c 6.28548,-18.2919 15.68213,-53.01103 17.43759,-64.4291 0.88522,-5.75786 0.87444,-5.77728 -2.81191,-5.05808 -2.03531,0.39708 -18.56413,1.12736 -36.73072,1.62284 -18.16659,0.49548 -33.30641,1.34787 -33.64405,1.89419 -0.59406,0.96119 -5.98027,27.63356 -5.98842,29.65444 -0.003,0.55 4.64596,1.03457 10.3293,1.07684 5.68333,0.0423 12.73333,0.5308 15.66666,1.08565 4.99439,0.9447 4.57071,1.11327 -6.66666,2.6524 -24.04947,3.29398 -21.38354,2.16524 -23.14579,9.79976 -0.86135,3.73152 -1.3654,6.98528 -1.12011,7.23056 0.24528,0.24528 9.70544,-1.00608 21.02259,-2.78078 17.96704,-2.81754 24.43248,-4.01366 36.57664,-6.76678 5.82261,-1.32001 -6.13603,3.54856 -19.60336,7.98087 -7.84852,2.58307 -20.13697,5.64057 -27.30769,6.79445 -7.17072,1.15388 -13.12458,2.20951 -13.23078,2.34583 -0.10626,0.13633 -2.67429,7.57897 -5.70682,16.5392 -3.03255,8.96024 -7.60719,20.88515 -10.16587,26.49979 -2.55868,5.61465 -4.65215,10.77031 -4.65215,11.45701 0,0.6889 2.54003,0.9374 5.66667,0.5544 3.11667,-0.3818 11.66667,-1.0541 19,-1.494 z m -122.32029,-8.30853 c 2.21958,-4.95 3.76426,-9.45 3.4326,-10 -0.33166,-0.55 -1.9546,-1 -3.60655,-1 -8.09636,0 -42.61061,-12.00626 -40.52107,-14.0958 0.386,-0.386 4.82235,0.27576 9.85856,1.47056 5.03622,1.19481 15.5561,3.54948 23.37754,5.23258 l 14.22078,3.0602 4.63614,-12.1671 c 2.54988,-6.69191 5.83758,-16.20172 7.30602,-21.13292 l 2.6699,-8.96583 -4.86015,-0.74915 c -12.41012,-1.91289 -39.65907,-7.82376 -40.7982,-8.84997 -2.25525,-2.03169 34.58497,1.02137 44.18425,3.66168 2.53188,0.6964 3.11739,0.0427 4.47651,-4.9982 3.1328,-11.61935 7.84844,-33.67269 7.31437,-34.20675 -0.30152,-0.30152 -7.93321,-1.09558 -16.95932,-1.76457 -9.02609,-0.669 -22.37922,-2.10587 -29.67362,-3.19303 -7.29439,-1.08716 -13.66282,-1.52478 -14.15206,-0.9725 -1.15518,1.30404 -4.19704,13.83694 -3.52216,14.51184 1.5117,1.51168 26.05152,5.91132 37.60342,6.74174 9.43165,0.67802 12.16282,1.2233 9.33333,1.86343 -7.58557,1.71613 -31.83356,1.22027 -40.52607,-0.82875 -4.68934,-1.10537 -8.62974,-1.8465 -8.75646,-1.64694 -0.12667,0.19954 -2.80092,8.46281 -5.94267,18.36281 -6.42912,20.25887 -15.69915,43.74627 -21.53779,54.57011 -2.14702,3.98022 -3.90368,7.72217 -3.90368,8.31544 0,2.91572 27.12767,10.63549 48,13.65945 6.96667,1.0093 13.03659,1.8996 13.48871,1.9784 0.45212,0.079 2.63807,-3.9067 4.85767,-8.85673 z m 348.86029,-10.85291 c 3.0358,-3.36301 2.5987,-3.41308 -6.55751,-0.75131 -5.12988,1.4913 -8.04833,3.31287 -10.53854,6.57771 -1.89418,2.48339 -3.44395,4.86283 -3.44395,5.28764 0,1.44576 17.98875,-8.28781 20.54,-11.11404 z M 459.46438,791.33199 c 8.58588,-22.21496 20.64297,-62.65257 20.64297,-69.23333 0,-1.16116 -1.05,-2.12436 -2.33333,-2.14047 -1.28334,-0.0161 -4.81328,-1.15541 -7.84432,-2.53179 l -5.511,-2.50249 -2.2361,11.53179 c -4.60908,23.76961 -11.62688,49.02714 -17.46553,62.85965 l -6.03152,14.28941 1.50273,9.85803 c 0.82651,5.42191 1.79894,10.75801 2.16095,11.85801 0.87032,2.64455 9.84499,-15.17816 17.11515,-33.98881 z m -250.40799,27.81024 c 0.27684,-0.83155 -0.51971,-2.53495 -1.77009,-3.78535 -2.10414,-2.10413 -2.36512,-2.10962 -3.50444,-0.0737 -0.67704,1.20981 -0.8826,3.10756 -0.45679,4.21723 0.86316,2.24934 4.94821,1.9941 5.73132,-0.35811 z M 811.5747,797.0536 c 6.27598,-12.51396 16.53265,-35.79518 16.53265,-37.52684 0,-0.3364 -2.55,0.14086 -5.66667,1.06056 -8.04581,2.3743 -15.66666,3.41996 -15.66666,2.14966 0,-0.59556 1.87494,-1.45783 4.16656,-1.91615 2.2916,-0.45832 7.69821,-2.41823 12.01469,-4.35535 l 7.84813,-3.52204 3.237,-10.81132 c 4.71942,-15.76242 6.32291,-22.33313 5.62134,-23.03472 -0.3415,-0.34148 -7.43094,0.0171 -15.75431,0.79671 -8.32337,0.77967 -15.84299,1.41963 -16.71023,1.42213 -1.71374,0.005 -2.45432,1.89395 -3.87257,9.87783 l -0.92491,5.20661 10.31632,-0.78022 c 5.67398,-0.42912 9.95558,-0.41948 9.51467,0.0215 -0.44091,0.44091 -5.42889,1.7513 -11.08441,2.91198 l -10.28278,2.11032 -3.08598,11.3283 c -2.99999,11.01262 -11.5207,38.98334 -13.24168,43.46818 -0.75408,1.96509 -0.0851,2.11798 5.69182,1.30086 3.60048,-0.50926 7.59634,-1.2322 8.87967,-1.60652 1.28333,-0.3743 2.33333,-0.1558 2.33333,0.4856 0,0.64139 -4.2741,2.27472 -9.498,3.62963 l -9.49801,2.46347 -3.16865,7.1649 c -1.74278,3.9407 -3.16867,7.66791 -3.16867,8.28268 0,0.61479 6.36735,-0.4466 14.14965,-2.35861 l 14.14964,-3.4764 7.16806,-14.29267 z m -513.87194,10.87692 4.05695,-4.05696 -5.01459,-10.94304 c -2.75802,-6.01868 -8.0132,-20.24305 -11.67817,-31.60972 -3.66496,-11.36666 -6.79783,-20.83432 -6.96192,-21.03922 -0.16409,-0.20491 -2.08764,1.29888 -4.27455,3.34176 l -3.97618,3.71432 3.7618,13.3249 c 5.51102,19.52095 17.54401,51.32491 19.4187,51.32491 0.33606,0 2.43664,-1.82563 4.66796,-4.05695 z m -23.57792,-24.27638 c -1.64168,-4.58334 -3.25045,-9.18307 -3.57505,-10.22162 -0.3246,-1.03856 -1.98864,1.96144 -3.69785,6.66667 -1.70922,4.70521 -3.39016,9.30495 -3.73544,10.22161 -0.45464,1.20702 1.38838,1.66667 6.68272,1.66667 h 7.31049 z m 614.55911,3.03045 c 6.4589,-2.18325 12.6233,-4.69979 13.6987,-5.59231 2.8272,-2.34636 11.3068,-19.75708 16.7725,-34.43814 5.4292,-14.58302 12.167,-38.56296 11.1275,-39.60252 -0.3881,-0.38806 -6.3604,0.35952 -13.2718,1.66125 l -12.5663,2.3668 -3.7236,13.45391 c -3.4378,12.42132 -6.8361,23.06281 -9.3669,29.33129 -0.9326,2.31011 -0.5467,2.47492 4.1964,1.79229 l 5.2236,-0.75176 -4,1.81423 c -2.2,0.99783 -4.6537,1.84129 -5.4527,1.87437 -0.7989,0.0331 -2.1361,1.56014 -2.9714,3.39347 -1.3748,3.0174 -1.2371,3.32783 1.4527,3.27527 1.6342,-0.032 5.5214,-0.55138 8.638,-1.15431 9.3679,-1.81223 6.3791,0.75055 -3.7782,3.23972 l -9.4449,2.31459 -4.5551,9.99549 c -4.5388,9.95973 -4.9288,10.99591 -4.1386,10.99591 0.2292,0 5.7012,-1.7863 12.1601,-3.96955 z M 274.75258,737.3208 c 2.24804,0 2.29649,-0.43405 0.65677,-5.88242 -2.99645,-9.95644 -7.3374,-38.03574 -8.21179,-53.11758 -0.45704,-7.88333 -1.01108,-14.33333 -1.2312,-14.33333 -0.2201,0 -1.92844,0.69631 -3.79628,1.54736 -2.92208,1.33139 -3.39606,2.40256 -3.39606,7.67483 0,11.63866 6.10448,56.32644 8.73113,63.91614 0.35103,1.0143 1.54367,1.45236 2.72249,1 1.15379,-0.44274 3.19002,-0.805 4.52494,-0.805 z m 26.04252,-6.37004 c -1.75523,-7.04125 -6.05988,-35.31681 -7.32342,-48.10456 -2.94152,-29.77012 -1.34832,-71.85541 4.65103,-122.85873 2.77204,-23.56641 3.62184,-21.30919 -7.68203,-20.40467 -5.31666,0.42543 -9.92604,0.99988 -10.24305,1.27658 -0.7826,0.68308 -5.28291,28.21232 -5.36107,32.79476 -0.0556,3.25777 0.42068,3.6683 4.27079,3.68134 2.38333,0.008 6.73333,0.42083 9.66667,0.91723 4.84924,0.82064 5.03077,0.98879 2,1.85243 -1.83334,0.52241 -6.39786,1.00966 -10.14339,1.08276 l -6.81007,0.13293 -0.82324,7.87635 c -1.58429,15.15773 -2.59914,51.5342 -1.67736,60.12365 l 0.93007,8.66667 6.62672,0.098 c 9.215,0.13636 11.46175,2.7373 3.40783,3.94506 -3.37947,0.50678 -7.05184,0.57323 -8.16086,0.14767 -2.4996,-0.95919 -2.4996,-0.79376 -6.4e-4,21.80921 1.9741,17.85564 4.95551,36.19068 7.4017,45.51884 l 1.27241,4.85219 9.37745,-0.18552 c 9.05374,-0.17911 9.35131,-0.29033 8.62046,-3.22221 z m -52.02108,-20.29662 c 0,-4.29996 -4.03567,-5.22364 -5.09663,-1.16651 -0.97303,3.72085 0.0407,5.43701 2.88761,4.88873 1.34616,-0.25924 2.20902,-1.71316 2.20902,-3.72222 z m 306.4811,-7.66667 c 0.47668,-4.95 1.2562,-19.00535 1.73226,-31.23411 l 0.86554,-22.2341 -5.45733,0.73198 c -3.00152,0.40259 -10.74428,0.23656 -17.20612,-0.36896 l -11.74879,-1.10094 16.46527,-0.97331 c 9.05589,-0.53533 16.68664,-1.19469 16.9572,-1.46525 0.27057,-0.27058 0.88444,-3.83142 1.36415,-7.913 l 0.8722,-7.42108 -12.65262,0.66181 c -14.00772,0.73269 -35.67286,-0.66757 -35.67286,-2.30561 0,-0.57743 2.66558,-0.74942 5.92353,-0.38219 7.03075,0.79247 38.40859,-0.85627 40.29156,-2.11711 2.17121,-1.45384 -2.26123,-75.2508 -4.67317,-77.80501 -0.87132,-0.92272 -58.30871,4.56868 -59.38879,5.67797 -0.3118,0.32023 0.23851,5.19339 1.22289,10.82924 4.38948,25.13076 6.28916,53.37995 5.66531,84.2463 l -0.61632,30.49329 18.78749,-0.81709 c 10.82268,-0.47071 17.65698,-0.33231 16.12083,0.32645 -2.16444,0.9282 -21.082,3.54653 -33.29753,4.60864 -2.19596,0.19093 -2.90536,1.87308 -4.29138,10.17599 -1.15653,6.9281 -1.23316,10.21136 -0.25249,10.81744 1.96524,1.21458 41.39613,5.93873 53.31527,6.38761 l 4.80718,0.18104 z m 149.08459,6.84143 c 22.55115,-0.81846 23.59591,-0.97696 24.26747,-3.68168 1.52424,-6.13896 6.16684,-45.43148 6.16684,-52.19294 v -7.18185 l -5.60888,1.97892 c -9.07828,3.20301 -28.58879,5.12648 -39.05779,3.85057 l -9.33333,-1.13749 13.33333,-0.96831 c 15.90867,-1.15533 39.43177,-5.86226 40.90716,-8.18545 1.37625,-2.16711 1.32095,-11.25043 -0.24147,-39.65653 -1.26312,-22.96466 -4.94308,-59.62478 -6.18722,-61.63786 -0.34972,-0.56585 -16.87255,-1.02881 -36.71742,-1.02881 h -36.08156 l 0.81675,8.33333 c 0.44921,4.58334 1.20553,25.58334 1.68069,46.66667 l 0.86394,38.33333 8.8129,0.23014 8.8129,0.23013 -8.66667,0.76987 -8.66667,0.76986 -1.15778,21.73111 c -0.63679,11.95211 -0.89304,21.99585 -0.56946,22.31944 0.32359,0.32359 8.58016,-0.0199 18.34794,-0.76319 9.76777,-0.74334 18.00005,-1.11105 18.29397,-0.81713 0.29392,0.29391 -6.84164,1.86932 -15.8568,3.50092 -9.01516,1.63159 -17.67063,3.19927 -19.23437,3.48373 -2.45815,0.44716 -2.96456,1.7379 -3.73946,9.53116 -0.49294,4.95768 -1.24477,11.04118 -1.67073,13.51887 l -0.77445,4.50491 13.84724,-0.82322 c 7.61598,-0.45277 24.4518,-1.20809 37.41293,-1.6785 z m -220.20445,-6.84143 c 0.0153,-0.55 0.9211,-8.2 2.01282,-17 5.68691,-45.84081 2.50988,-133.28312 -4.77917,-131.53848 -1.06052,0.25384 -4.84105,1.15384 -8.40117,2 l -6.47294,1.53848 0.85102,10 c 4.52781,53.20433 4.53838,91.18831 0.0349,125.48963 l -0.80827,6.1563 7.76743,1.9962 c 9.96697,2.56148 9.76255,2.53314 9.79535,1.35787 z m 348.2741,-1.09653 11.63535,-0.88032 0.71955,-4.17824 c 1.24573,-7.2336 3.28914,-22.74599 3.31668,-25.17824 0.0224,-1.98144 -1.3309,-2.35338 -8.97359,-2.46624 -14.77351,-0.21816 -17.33751,-1.98427 -3.97083,-2.73512 6.43272,-0.36135 12.30448,-1.26563 13.04836,-2.00951 2.11307,-2.11307 3.07076,-48.27371 1.42024,-68.4558 -0.80962,-9.9 -2.471,-24.70071 -3.69193,-32.89045 l -2.21988,-14.89044 -4.12631,-0.72196 c -2.26948,-0.39707 -10.04312,-1.13348 -17.27477,-1.63646 l -13.14845,-0.9145 0.80218,3.86024 c 2.27979,10.97062 5.20212,39.64078 5.96562,58.5269 l 0.86244,21.33334 8.66666,0.71393 c 9.52151,0.78436 8.46151,2.32843 -2,2.91333 l -6.66666,0.37274 -0.81283,15.33333 c -0.44707,8.43333 -1.25835,19.30293 -1.80287,24.15467 l -0.99002,8.82132 13.13618,-0.43947 c 11.54023,-0.38607 12.32624,-0.27959 6.46954,0.87647 -3.66667,0.72377 -9.76046,1.9328 -13.54174,2.68673 l -6.87508,1.3708 -1.45825,8.37396 c -0.80205,4.60568 -1.45827,8.84293 -1.45827,9.41613 0,0.57319 2.55,0.7004 5.66667,0.28267 3.11667,-0.41772 10.90257,-1.15564 17.30201,-1.63981 z m -217.74466,-5.6992 c 2.39298,-4.47134 -3.25406,-7.51783 -6.55735,-3.5376 -1.32425,1.59562 -1.32425,2.40437 0,4 2.24804,2.70872 4.96267,2.51729 6.55735,-0.4624 z m 167.44265,-2.8892 c 0,-2.42468 -0.80736,-3.42971 -3.00596,-3.74192 -3.62741,-0.5151 -5.35292,2.9179 -2.93249,5.83434 2.49814,3.01008 5.93845,1.79788 5.93845,-2.09242 z m 142.6462,-3.04087 9.3129,-1.63409 0.9244,-5.32006 c 2.8357,-16.32061 4.0944,-50.78344 2.5639,-70.19906 -1.3446,-17.056 -5.3472,-44.73368 -7.4984,-51.85007 -0.4399,-1.45539 -3.8317,-2.53004 -11.5239,-3.65119 -5.9953,-0.87381 -11.1083,-1.38097 -11.3623,-1.12701 -0.2539,0.25396 0.4412,6.097 1.5448,12.98452 2.2495,14.0388 5.1213,59.266 4.4781,70.52276 l -0.419,7.33333 6.6666,-0.46917 c 7.9426,-0.55897 7.4381,0.80436 -0.8158,2.20459 l -5.8508,0.99254 -0.4064,6.3027 c -0.2235,3.46646 0.1213,6.30268 0.7664,6.30268 0.6451,0 5.6057,-1.50768 11.0235,-3.35042 12.3935,-4.2153 10.5865,-2.15161 -2.7169,3.10276 l -10,3.94967 -1.55,11.14899 c -2.2823,16.41534 -2.3524,15.85441 1.8834,15.06981 2.0166,-0.37356 7.8574,-1.41453 12.9795,-2.31328 z m -37.9795,-2.35289 c 0,-2.73268 -3.2433,-3.55768 -4.7028,-1.19624 -1.064,1.72154 1.8967,5.51846 3.5205,4.51489 0.6503,-0.40187 1.1823,-1.89527 1.1823,-3.31865 z M 263.54974,659.98747 c 1.55529,0 1.89094,-3.87073 1.89094,-21.80637 0,-11.99351 0.62484,-29.50118 1.38852,-38.90591 l 1.38854,-17.09953 -3.72187,-2.9811 -3.72185,-2.98109 -0.95378,5.55367 c -0.52456,3.05452 -1.3701,22.30452 -1.87898,42.7778 -0.87107,35.04584 -0.78938,37.17198 1.39616,36.33333 1.27674,-0.48995 3.17229,-0.8908 4.21232,-0.8908 z m 7.86817,-102.02448 c 1.33004,-9.18013 2.12511,-16.98431 1.76681,-17.3426 -1.18585,-1.18585 -9.07645,1.00505 -9.12536,2.53375 -0.0264,0.825 -0.8239,7.38453 -1.77226,14.57673 l -1.72428,13.07675 3.43893,1.86988 c 1.89141,1.02842 3.78971,1.89389 4.21843,1.92325 0.42872,0.0293 1.86769,-7.45763 3.19773,-16.63776 z m 205.02277,-10.69955 c 3.05906,-0.55434 5,-1.65568 5,-2.83708 0,-3.74501 -6.79133,-31.95282 -12.13848,-50.41716 -4.5899,-15.84948 -17.25965,-50.53097 -19.15066,-52.42198 -0.32334,-0.32334 -3.16555,1.40017 -6.31604,3.83004 -3.15048,2.42985 -5.92,4.54404 -6.1545,4.6982 -0.23449,0.15414 0.73199,2.58841 2.14774,5.40946 7.43402,14.81332 17.52277,49.20196 22.23657,75.79588 3.37555,19.04383 3.12084,18.34884 6.4334,17.55435 1.61808,-0.38809 5.19197,-1.11335 7.94197,-1.61171 z m 446.78387,-11.46377 c -4.0592,-13.21795 -14.7654,-39.82543 -19.2026,-47.72316 -2.8023,-4.98784 -4.5285,-6.29569 -12.5813,-9.53195 -5.1333,-2.06298 -10.0457,-3.78229 -10.9163,-3.82066 -0.9563,-0.0421 0.043,3.49354 2.5235,8.93024 2.2586,4.95 7.8558,20.4 12.4383,34.33333 l 8.3317,25.33333 8.4781,1.52275 c 4.6629,0.83752 9.7795,1.58752 11.3701,1.66667 l 2.892,0.14392 z m -417.78387,4.25123 c 4.76667,-0.72447 16.73642,-2.25487 26.59943,-3.40087 9.86301,-1.146 18.15391,-2.30479 18.4242,-2.57508 0.90521,-0.90521 -5.05317,-31.89244 -9.63109,-50.08748 -4.12851,-16.40885 -11.77366,-39.56425 -17.2962,-52.38624 -2.07911,-4.82716 -2.39794,-5.01739 -7.13634,-4.25775 -14.84232,2.3795 -54.74514,10.35383 -56.14797,11.22082 -1.21781,0.75265 -0.37496,4.04757 3.29572,12.88389 6.90176,16.61435 14.14407,38.6052 18.43568,55.97888 l 3.64919,14.77293 8.90369,-1.72393 c 4.89703,-0.94815 14.00369,-1.66712 20.23703,-1.59769 l 11.33333,0.12626 -8.88515,1.03682 c -9.23973,1.07818 -29.22569,4.94577 -30.10586,5.82594 -0.27778,0.27779 0.25582,4.18883 1.18577,8.69122 1.60068,7.74972 1.87159,8.14945 5.08136,7.49785 1.8648,-0.37856 7.29055,-1.28105 12.05721,-2.00553 z m 333.82816,-12.35948 c -2.24212,-9.61112 -8.22548,-30.54571 -8.93237,-31.2526 -0.26465,-0.26467 -4.62448,-1.30446 -9.68849,-2.31066 -9.87619,-1.96236 -8.03298,-2.6663 2.45937,-0.93925 4.32567,0.712 6.32945,0.58115 6.32109,-0.41283 -0.0157,-1.87433 -10.67094,-27.83149 -14.2646,-34.75008 -2.70741,-5.21237 -2.97524,-5.35125 -17.20454,-8.92104 -7.94987,-1.99442 -14.66628,-3.41426 -14.92536,-3.1552 -0.25907,0.25908 2.24613,8.28148 5.56712,17.82756 6.19656,17.81176 14.13846,46.50256 16.914,61.10315 l 1.56381,8.22635 11.51424,0.85122 c 6.33283,0.46818 12.41424,1.04672 13.51424,1.28566 1.1,0.23894 3.59679,0.50404 5.54841,0.5891 l 3.54842,0.15467 z m -536.71885,-5.16198 c 3.91032,-24.85125 14.04631,-54.97794 26.37932,-78.40596 3.24197,-6.15853 5.65885,-11.43297 5.37083,-11.721 -0.28803,-0.28802 -4.54711,-0.11146 -9.46462,0.39235 -8.65696,0.88693 -9.05092,1.08981 -12.40334,6.38767 -5.66234,8.9482 -13.10602,25.84265 -18.2073,41.32398 -2.6313,7.98546 -4.7842,14.7011 -4.7842,14.92366 0,0.22254 2.96455,0.38168 6.5879,0.35361 11.48498,-0.0889 12.55321,3.33809 1.51374,4.85641 -3.60912,0.49638 -7.44528,1.60259 -8.52478,2.45824 -1.45251,1.15131 -7.57686,23.92867 -7.57686,28.17944 0,0.58628 6.99646,1.45163 14.70564,1.81883 l 4.70566,0.22413 z m -25.19968,1.1247 c 5.99515,-31.42286 17.15479,-64.1382 28.07788,-82.31255 l 6.06795,-10.09612 -2.9318,-4.35051 -2.93182,-4.3505 -4.68864,8.38817 c -9.104,16.28741 -23.5032,51.10628 -23.5032,56.83336 0,1.40889 0.9,3.30856 2,4.22148 2.55558,2.12095 2.60076,6.66667 0.0663,6.66667 -1.06356,0 -2.50697,-1.0243 -3.20757,-2.2762 -1.41106,-2.52143 -1.74699,-1.55275 -6.80036,19.60953 -3.70692,15.52365 -3.65428,16 1.7682,16 4.45317,0 4.50736,-0.0743 6.0831,-8.33333 z m 449.28743,2 c -0.0749,-2.01667 -1.42496,-9.96667 -3,-17.66667 l -2.86372,-14 -17.17732,-0.95509 c -9.44752,-0.52531 -17.43594,-1.21372 -17.75203,-1.5298 -0.98,-0.98 29.93679,-2.54056 31.47673,-1.58883 0.81287,0.50237 1.45262,-0.0263 1.45262,-1.20036 0,-3.302 -12.61396,-40.44225 -17.05595,-50.21913 -3.56768,-7.85252 -4.50316,-8.91392 -8.47713,-9.61826 -8.71168,-1.54404 -40.69098,-4.77665 -56.12708,-5.6736 l -15.66016,-0.90996 5.88821,12.60044 c 10.79672,23.10436 20.59549,55.29398 24.68581,81.09459 0.87196,5.5 1.82775,10.75 2.12399,11.66667 0.41332,1.27894 8.92313,1.66666 36.58047,1.66666 h 36.04184 z m -52.53039,-16.37751 c 13.38941,-1.37423 42.24723,-1.28288 33.33333,0.10547 -3.66666,0.5711 -14.76666,0.99653 -24.66666,0.94538 -15.4149,-0.0796 -16.65958,-0.23056 -8.66667,-1.0509 z m -420.84597,-8.9214 c 2.73876,-4.89389 -3.56186,-9.4266 -7.55403,-5.43443 -2.10861,2.10862 -2.01947,3.12339 0.49524,5.6381 2.73739,2.73738 5.4568,2.65892 7.05879,-0.20367 z m 617.51267,-3.03443 c 0,-1.77777 -0.8889,-2.66666 -2.6667,-2.66666 -2.56959,0 -3.6132,2.60902 -1.77777,4.44444 1.83537,1.83542 4.44447,0.79181 4.44447,-1.77778 z M 610.79478,487.29579 c 1.37338,-1.65483 1.25846,-2.49147 -0.62868,-4.57675 -3.7423,-4.13517 -9.4748,0.48567 -5.9185,4.77076 1.98794,2.39531 4.459,2.32208 6.54718,-0.19401 z m 154.99848,1.22799 c 1.49241,-1.4924 -0.62924,-4.53631 -3.1619,-4.53631 -1.63512,0 -2.52401,0.93913 -2.52401,2.66667 0,2.54229 3.77272,3.78284 5.68591,1.86964 z m 127.49179,-20.86964 c -2.659,-5.03986 -11.4524,-17.38458 -16.1073,-22.61238 -3.6583,-4.10854 -26.40373,-19.53882 -26.40373,-17.91202 0,0.27754 2.55565,4.33406 5.67924,9.0145 3.12358,4.68044 8.04969,12.47024 10.94692,17.31067 5.16377,8.6272 5.47907,8.88165 15.98747,12.90237 5.8958,2.2559 10.8908,4.14555 11.0999,4.19924 0.2092,0.0537 -0.332,-1.25238 -1.2025,-2.90238 z M 282.43987,451.20887 c -0.28984,-0.28983 -2.42156,-0.90588 -4.73717,-1.369 l -4.2102,-0.84204 2.17088,6.3712 2.17089,6.37119 2.56627,-5.0022 c 1.41145,-2.7512 2.32916,-5.23932 2.03933,-5.52915 z m 161.33415,-11.33833 c 1.65,-1.02183 3,-2.78086 3,-3.90898 0,-4.3324 -16.65302,-27.65594 -27.15011,-38.02534 -12.18383,-12.03563 -21.93667,-18.20988 -33.53709,-21.23142 -12.91426,-3.36373 -12.61324,-3.55996 -12.27423,8.00159 0.27944,9.52992 0.46796,10.09112 3.62809,10.80037 10.18556,2.28602 13.44516,3.51271 20.69331,7.7875 9.70852,5.72585 21.32021,17.85401 30.34885,31.69874 6.33992,9.72178 6.90795,10.23134 9.51676,8.53712 1.52594,-0.99094 4.12442,-2.63777 5.77442,-3.65958 z M 286.31416,438.3173 c 1.88139,-0.85722 5.46159,-5.6046 8.71704,-11.55891 8.99548,-16.45295 18.28448,-30.38232 21.7946,-32.68224 1.80486,-1.18259 3.27812,-2.58632 3.27394,-3.11941 -0.004,-0.5331 -4.65419,-2.0731 -10.33334,-3.42222 -5.67914,-1.34912 -16.57777,-4.79706 -24.21916,-7.6621 -7.6414,-2.86504 -14.02998,-5.06122 -14.19688,-4.88039 -0.16688,0.18083 -2.40816,3.92877 -4.98061,8.32877 -2.57245,4.4 -6.57609,10.38566 -8.89699,13.30146 l -4.2198,5.30144 3.76052,1.10146 c 2.0683,0.6058 9.16054,2.58536 15.76054,4.39904 11.71086,3.21814 11.80861,3.27756 4.05646,2.46656 -4.36893,-0.45706 -11.93204,-1.84392 -16.80689,-3.0819 l -8.86336,-2.25087 -5.85977,4.48236 c -3.22288,2.46531 -6.03196,4.95351 -6.24242,5.52935 -0.60118,1.64493 12.54012,6.8122 22.24079,8.74525 6.59192,1.31357 7.63419,1.78184 4.14185,1.86085 -6.30541,0.14266 -20.25884,-3.25264 -26.54354,-6.45885 -2.81944,-1.43837 -5.48908,-2.25241 -5.93251,-1.80897 -0.44344,0.44344 -5.41527,2.13562 -11.04851,3.76041 l -10.24224,2.95416 14.68378,4.89285 c 35.2259,11.73778 50.29928,14.20203 59.9565,9.8019 z m 519.12652,2.13029 c 0,-0.48028 -4.02713,-6.93028 -8.94918,-14.33333 -12.28658,-18.47978 -42.17576,-49.22154 -52.21655,-53.70602 -3.94116,-1.76022 -7.34619,-3.01996 -7.56673,-2.79942 -0.22055,0.22054 2.59101,3.99597 6.24789,8.38982 9.79427,11.76812 20.07389,27.77422 27.90971,43.45736 3.81001,7.62564 7.02577,13.99256 7.14612,14.14872 0.38594,0.5008 22.67505,5.4707 25.09541,5.59563 1.28333,0.0663 2.33333,-0.27249 2.33333,-0.75276 z M 496.74927,422.5383 c 9.54695,-1.56583 18.12328,-3.06732 19.05852,-3.33667 2.17119,-0.62529 -4.36727,-13.95043 -12.41276,-25.29675 -8.26261,-11.65252 -27.01387,-28.90618 -36.64649,-33.71966 -14.16744,-7.07955 -13.80006,-7.10903 -74.98414,6.01738 -3.31805,0.71186 -2.48252,1.37227 8.57491,6.77762 10.23279,5.00222 14.26223,7.99489 24.45772,18.16474 10.6766,10.64976 20.11752,23.21118 27.49928,36.58862 l 2.18896,3.96689 12.45296,-3.15761 c 6.84913,-1.7367 20.26411,-4.43875 29.81104,-6.00456 z m -153.22621,-2.37888 c 5.63785,-7.49919 8.84864,-10.44028 18.77037,-17.19376 4.80132,-3.26814 -6.32636,-0.3538 -16.21763,4.2474 -8.16688,3.79905 -25.9707,17.91238 -25.96738,20.58469 5.8e-4,0.47101 3.8322,0.85639 8.51469,0.85639 h 8.51364 z m -11.91988,-11.46483 c 10.80068,-8.79817 18.81092,-12.52441 31.50417,-14.65527 l 5,-0.83936 v -8.75462 -8.75464 l -4.90123,0.91946 c -6.67316,1.2519 -26.08104,11.17883 -35.41142,18.11258 -4.54966,3.381 -9.81092,9.00486 -12.99199,13.88736 l -5.34601,8.20537 2.15852,5.49505 2.15852,5.49506 5.09126,-6.44094 c 2.8002,-3.5425 8.53238,-9.24402 12.73818,-12.67005 z m 356.98993,2.29288 c -10.43884,-22.97087 -27.02915,-48.59945 -37.29496,-57.61296 -11.20787,-9.84064 -13.52452,-10.72409 -31.32496,-11.94588 -14.58419,-1.00103 -58.45532,-0.62945 -59.58948,0.50471 -0.23495,0.23494 2.97968,3.64325 7.14364,7.57398 11.67193,11.01823 26.70703,29.54471 38.10253,46.95056 5.69066,8.69206 10.52607,16.33848 10.74539,16.99204 0.21931,0.65358 9.99875,1.84718 21.73208,2.65244 11.73333,0.80528 27.33333,2.23203 34.66667,3.17055 7.33333,0.93853 14.9492,1.78325 16.92414,1.87716 l 3.5908,0.17073 z m -463.07983,4.42205 c 12.91498,-6.48681 24.57718,-18.89774 35.08998,-37.34282 l 5.99577,-10.51976 -4.07284,-5.91968 -4.07285,-5.91968 -4.67894,9.13994 c -12.11096,23.65782 -27.37377,38.0993 -43.89364,41.53163 -4.78269,0.99369 -4.91088,1.17901 -5.17653,7.48341 l -0.2724,6.4645 7.10551,-0.73336 c 3.90804,-0.40334 10.19721,-2.28622 13.97594,-4.18418 z m -24.90593,-0.92205 c 1.33408,-6.6704 1.01411,-7.83157 -2.16667,-7.86261 -11.32974,-0.11054 -25.83688,-13.42434 -41.99461,-38.54006 -0.20145,-0.31313 -1.20363,0.57582 -2.22707,1.97546 -1.602,2.19086 -1.57328,3.10446 0.2065,6.56932 8.14785,15.8622 22.96658,31.79332 35.31137,37.96208 4.47136,2.23436 8.55891,4.06248 9.08344,4.06248 0.52455,0 1.32871,-1.875 1.78704,-4.16667 z m 9.28507,-14.139 c 0.6151,-0.3656 -1.82159,-2.34381 -5.4149,-4.39604 -23.8395,-13.61531 -39.78625,-50.10859 -48.63486,-111.29829 -2.37992,-16.45764 -2.34834,-88.92934 0.0461,-106 4.17379,-29.7549 11.39525,-54.45231 20.88184,-71.41591 5.67653,-10.150587 19.67925,-25.579247 26.59567,-29.303987 2.60754,-1.40425 4.74098,-3.09829 4.74098,-3.76454 0,-1.95184 -11.99554,0.24729 -18.60257,3.41041 -11.80211,5.65024 -30.07161,27.532227 -34.01484,40.740687 -0.79796,2.67287 -0.41329,3.01503 3.52756,3.1378 l 4.42319,0.1378 -5.02746,1.33448 c -2.76509,0.73396 -5.63992,2.4789 -6.3885,3.87764 -1.8956,3.54196 -11.45051,41.6678 -12.57562,50.17895 -0.8606,6.51031 -0.73002,7 1.86646,7 1.53548,0 2.79178,0.6 2.79178,1.33333 0,0.73334 -1.41605,1.33334 -3.1468,1.33334 -2.84154,0 -3.23082,0.74368 -4.01308,7.66666 -0.47646,4.21667 -1.25409,15.95162 -1.72806,26.07766 l -0.86178,18.41098 3.44495,-0.86462 c 1.89472,-0.47554 4.5384,-0.22874 5.87485,0.54846 1.98047,1.15172 1.34379,1.4206 -3.4421,1.45364 l -5.87203,0.0405 0.87751,17.33802 c 0.81329,16.06924 2.46182,31.49034 4.3112,40.32864 0.69637,3.32803 1.34237,3.68516 6.99462,3.86692 l 6.22739,0.20027 -6,0.79973 c -7.03064,0.93712 -6.96053,0.15836 -1.851,20.56234 3.53341,14.11004 7.85772,26.4365 12.39313,35.32664 2.51714,4.93397 3.38066,5.57744 7.48496,5.57744 2.55178,0 4.63958,0.6 4.63958,1.33333 0,0.73333 -1.83839,1.33333 -4.08531,1.33333 h -4.08532 l 2.95136,5.25124 c 7.81264,13.90071 19.31973,25.40544 28.88323,28.87727 4.53096,1.64487 13.68825,1.40804 16.78777,-0.43417 z m 19.20609,-10.61928 c 25.28581,-20.435 45.56473,-82.7258 45.6524,-140.23056 0.0229,-15.07635 0.008,-15.15121 -2.97689,-14.33301 -5.50936,1.51049 -60.14688,2.30218 -74.33334,1.07709 l -14,-1.20899 20.66667,-0.19356 c 11.36667,-0.1064 31.99596,-0.58949 45.84287,-1.07341 l 25.17618,-0.87984 -0.9194,-16.11639 C 270.44296,150.78963 247.44743,91.268673 220.38655,77.463243 l -5.30804,-2.70796 -5.81892,3.87264 c -3.2004,2.12995 -8.81891,6.98176 -12.48557,10.78182 l -6.66667,6.90917 5.33333,-0.76144 c 2.93334,-0.4188 9.23334,-1.06632 14,-1.43893 5.76271,-0.45048 3.80846,0.0843 -5.83233,1.59572 -14.02741,2.19928 -14.60671,2.425 -17.81064,6.939877 -6.63437,9.34892 -15.27893,29.61861 -19.12301,44.83952 -4.81016,19.0461 -4.88731,20.75177 -0.90068,19.9147 7.09492,-1.4897 51.74978,-5.24513 47.66666,-4.0087 -1.1,0.33309 -12.99442,2.04605 -26.43206,3.80656 -13.43764,1.76052 -24.63655,3.40652 -24.88647,3.65777 -1.85697,1.86691 -3.98279,33.42401 -3.98279,59.12348 0,38.11056 3.32282,66.13516 11.4889,96.89733 l 2.71582,10.23067 9.5483,0.7658 c 5.25157,0.4212 17.0483,1.32015 26.21497,1.99765 15.09144,1.11542 14.22811,1.16547 -9.13449,0.52954 l -25.80116,-0.7023 0.9506,3.14066 c 2.61933,8.65398 9.54846,23.513 14.24305,30.5432 6.18161,9.25704 13.64967,15.98293 22.82121,20.55332 7.45566,3.7153 8.36494,3.50137 17.91195,-4.21415 z m 573.67551,4.92495 c 0,-0.73334 -0.9,-1.33334 -2,-1.33334 -1.1,0 -2,0.6 -2,1.33334 0,0.73333 0.9,1.33333 2,1.33333 1.1,0 2,-0.6 2,-1.33333 z M 334.64827,365.9168 c 2.26916,-6.27113 4.12575,-11.90872 4.12575,-12.52797 0,-0.61927 -5.0983,-1.84963 -11.32954,-2.73416 -11.06305,-1.5704 -25.98485,-5.05412 -22.0038,-5.13712 1.1,-0.0229 9.2,0.74239 18,1.70071 8.8,0.95832 16.37736,1.37344 16.83859,0.92248 1.71095,-1.6729 11.82808,-45.17314 11.82808,-50.85674 0,-1.59285 -12.3998,-3.9632 -20.73229,-3.9632 -4.54644,0 -7.26771,-0.56849 -7.26771,-1.51828 0,-1.35332 15.18691,-1.07897 26,0.4697 2.30499,0.33012 2.76204,-0.56684 3.36989,-6.61334 0.82232,-8.17982 3.82491,-7.01868 -26.70322,-10.32649 -10.63334,-1.15215 -21.79354,-2.44305 -24.80044,-2.86867 l -5.46711,-0.77384 -1.62443,14.48214 c -0.89342,7.96516 -2.47501,18.94032 -3.51465,24.38924 -1.03963,5.44892 -1.74844,10.01752 -1.57513,10.15245 2.44108,1.90055 21.39066,6.56445 29.59441,7.28381 l 10.72068,0.94007 -11.37609,0.1916 c -9.99772,0.1684 -15.90682,-0.79243 -27.45466,-4.46416 -2.45616,-0.78095 -2.95562,-0.23437 -3.77449,4.13057 -0.51905,2.76684 -2.99523,11.29324 -5.50259,18.94754 -2.50736,7.65429 -4.55884,14.09696 -4.55884,14.31704 0,2.14934 49.8706,17.24333 52.2051,15.80053 0.48221,-0.29801 2.73333,-5.67277 5.00249,-11.94391 z M 150.38163,354.437 c -5.15276,-12.10616 -10.54452,-29.37465 -12.94076,-41.44622 -1.34681,-6.78483 -1.79773,-7.51536 -3.93339,-6.37239 -2.32622,1.24495 -2.32508,1.66496 0.032,11.78751 3.09938,13.31057 9.95052,34.76225 14.1049,44.16388 2.93589,6.64412 3.38113,7.07101 5.33594,5.1162 1.95482,-1.95482 1.73799,-3.06034 -2.59864,-13.24898 z m 551.68437,5.61736 c 0.4305,-0.69653 -0.4341,-1.91764 -1.9213,-2.71357 -2.30475,-1.23347 -2.70402,-1.04647 -2.70402,1.26644 0,2.75748 3.19724,3.75781 4.62532,1.44713 z m -163.66284,-2.89604 c 2.23336,-2.23336 0.51408,-5.17085 -3.02644,-5.17085 -3.87192,0 -5.34674,2.16359 -3.2209,4.72507 1.92817,2.3233 4.20721,2.48592 6.24734,0.44578 z M 275.20672,341.98747 c 4.7034,-16.51456 8.34031,-33.3898 10.81275,-50.17112 2.96459,-20.12164 2.83557,-22.27728 -1.43037,-23.89919 -1.93504,-0.73569 -3.72459,-1.13129 -3.97678,-0.8791 -0.25218,0.25218 -1.38646,7.61897 -2.52062,16.37064 -2.54415,19.63182 -6.99616,38.52777 -13.09472,55.57877 -2.906,8.12492 -4.06964,13.01112 -3.10298,13.02965 0.85068,0.0163 3.0434,1.17955 4.87272,2.58499 4.0171,3.08629 3.9322,3.21316 8.44,-12.61464 z m 173.5673,-9.21201 c 10.59917,-2.67519 29.39705,-4.76352 43,-4.77706 6.05,-0.007 11,-0.16489 11,-0.35306 0,-0.18818 0.52928,-2.18764 1.17618,-4.44326 l 1.17619,-4.10112 -17.50952,0.34559 -17.50952,0.34559 17.29579,-1.30223 c 9.51268,-0.71623 17.69358,-1.94591 18.1798,-2.73261 1.10125,-1.78187 5.75454,-30.34394 5.04346,-30.95702 -0.28548,-0.24614 -15.31732,-0.79645 -33.4041,-1.22293 l -32.88504,-0.7754 -0.85219,6.92609 c -0.46869,3.80935 -1.16809,8.5761 -1.55423,10.59276 l -0.70204,3.66667 h 16.99483 c 9.34716,0 16.55131,0.45 16.00923,1 -0.54208,0.55 -8.25304,1.9 -17.13547,3 l -16.14985,2 -1.66186,9.87769 c -0.91401,5.43272 -2.02649,11.3306 -2.47218,13.10639 -0.66631,2.65475 -0.38632,3.10376 1.57508,2.52588 1.31198,-0.38655 5.98544,-1.61144 10.38544,-2.72197 z m 240.56974,-7.41164 c 5.78678,-15.00558 5.67394,-15.37348 -3.47428,-11.32771 -4.16416,1.84159 -8.21185,3.13479 -8.99489,2.87377 -1.80197,-0.60065 8.54276,-7.19777 13.06729,-8.33336 1.86418,-0.46788 3.95027,-1.54182 4.63576,-2.38653 1.46358,-1.80353 5.52971,-24.67521 5.52971,-31.10415 0,-5.1009 -0.0213,-5.10548 -13.26044,-2.83522 -10.28729,1.76406 -9.60511,0.88348 -11.52883,14.88164 -0.87338,6.3552 -0.83006,6.46013 2.28283,5.52976 1.74521,-0.5216 5.1574,-2.08676 7.58265,-3.47812 5.26895,-3.0228 6.46887,-3.19476 4.33279,-0.62094 -0.87131,1.04986 -4.75203,3.22183 -8.62384,4.8266 l -7.03965,2.91778 -2.39558,10.1734 c -1.31756,5.59537 -3.51185,13.42184 -4.8762,17.39217 -1.36434,3.97032 -2.32908,7.36171 -2.14385,7.53643 0.28039,0.26445 16.99595,3.99221 19.90653,4.43938 0.49671,0.0763 2.74671,-4.64189 5,-10.4849 z M 134.23864,304.30039 c 1.05738,-0.7072 0.9798,-4.13091 -0.27896,-12.31292 -0.95897,-6.23333 -2.16198,-20.48333 -2.67337,-31.66667 l -0.92979,-20.33333 h -3.32814 -3.32814 l 0.80312,15.66667 c 0.72074,14.05961 3.75763,38.50213 5.78967,46.59845 0.81427,3.24428 1.57013,3.63659 3.94561,2.0478 z m 378.33807,-36.64625 c 0.46244,-3.85 0.84601,-10.08184 0.85239,-13.84854 l 0.012,-6.84853 -20.33334,0.47317 c -16.6071,0.38647 -19.23378,0.21043 -14.33333,-0.96068 3.3,-0.78862 12.53479,-1.50172 20.52176,-1.58464 l 14.52135,-0.15078 -0.91046,-20.40855 c -0.50074,-11.22471 -1.24973,-21.29271 -1.66441,-22.37333 -0.55248,-1.43976 -3.29895,-2.03559 -10.27797,-2.22972 l -9.52402,-0.26492 9.66667,-0.46016 c 7.25167,-0.34519 9.66667,-0.93376 9.66667,-2.3559 0,-4.18281 -4.26335,-32.83561 -6.86236,-46.12004 l -2.76495,-14.13262 -18.85301,-0.8625 c -10.36916,-0.47438 -25.07299,-0.8647 -32.67519,-0.86738 -13.69892,-0.005 -13.81457,0.0219 -12.96921,2.99512 4.47574,15.74186 10.12472,63.44692 10.12472,85.50237 v 12.71012 l 4.33333,0.64791 c 2.38333,0.35634 7.63333,1.2047 11.66667,1.88525 l 7.33333,1.23735 -11.66667,0.17517 -11.66666,0.17516 v 6.46549 c 0,3.55603 -0.38596,11.03142 -0.8577,16.61198 l -0.85769,10.14648 11.85769,0.44717 c 6.52174,0.24596 21.52412,0.57057 33.33864,0.72136 l 21.48095,0.27419 z m 99.19731,4.8441 c 9.05389,-0.69149 9.67934,-0.94238 9.86666,-3.95786 0.11,-1.77076 0.26,-3.96958 0.33334,-4.88624 0.0777,-0.97091 -1.53651,-1.71259 -3.86667,-1.77666 -19.68235,-0.54122 -22.51569,-0.80898 -20,-1.89001 1.46667,-0.63025 7.6984,-1.18808 13.84831,-1.23961 l 11.18164,-0.0937 -0.77727,-33.66669 c -0.72751,-31.511 -2.70775,-53.614 -6.26469,-69.92507 l -1.51015,-6.92508 -6.90559,-1.37908 c -9.95108,-1.98728 -23.78484,-4.08232 -27.03324,-4.09404 -2.74909,-0.009 -2.7646,0.14642 -0.95748,9.6566 2.76828,14.56838 5.7518,41.78148 5.7518,52.46291 0,5.21359 0.38548,13.16727 0.85662,17.67484 l 0.8566,8.19559 9.47673,0.13293 c 10.65771,0.14947 7.66211,2.16679 -3.56512,2.40085 -3.83649,0.08 -6.57971,0.7966 -6.88879,1.79958 -0.28249,0.91666 -0.86896,10.148 -1.30328,20.51408 l -0.78968,18.8474 9.0118,-0.55622 c 4.95648,-0.30592 13.36179,-0.88844 18.67846,-1.29449 z M 355.25946,261.80138 c 0.46633,-3.40236 0.84789,-8.50236 0.84789,-11.33334 v -5.14724 l -6.33333,-0.16338 c -3.48334,-0.0899 -12.63334,-0.58923 -20.33334,-1.10971 l -14,-0.94633 20.49415,-0.22363 20.49415,-0.22361 -0.9082,-18.33334 c -1.77746,-35.88081 -6.74032,-81.66666 -8.85208,-81.66666 -4.49031,0 -56.80435,11.43169 -58.3557,12.7519 -0.25354,0.21579 1.09328,8.98488 2.99295,19.48688 1.89967,10.502 3.84608,23.4746 4.32535,28.82802 0.68926,7.699 1.27248,9.57954 2.79029,8.99712 5.00273,-1.91974 23.01909,-3.44554 23.01909,-1.94948 0,0.67038 -1.91064,1.21889 -4.24586,1.21889 -2.33522,0 -7.73522,0.97907 -12,2.17571 l -7.75414,2.17569 v 22.993 22.993 l 13,1.63837 c 23.85546,3.00646 30.28443,3.67251 37.15211,3.84899 l 6.81876,0.17524 z M 289.42975,240.3208 c -0.007,-13.01666 -0.59932,-29.06666 -1.31844,-35.66666 -1.84345,-16.91906 -6.87751,-46 -7.96283,-46 -0.50029,0 -2.2461,1.42261 -3.87957,3.16136 -2.94645,3.13636 -2.95396,3.25494 -0.94963,15 3.3678,19.73462 4.78807,38.28981 4.78807,62.55384 0,25.31637 -0.55712,23.54061 7.66667,24.43656 1.27792,0.13922 1.66412,-5.33866 1.65573,-23.4851 z m 402.75409,22.13794 9.25684,-1.52874 v -24.42348 c 0,-13.4329 -0.68697,-30.46485 -1.52661,-37.84876 l -1.52661,-13.42529 -11.8941,-7.95583 c -6.54176,-4.37572 -12.34692,-7.95584 -12.90034,-7.95584 -0.55344,0 0.0631,6.45 1.37004,14.33334 1.30696,7.88333 2.79277,23.18333 3.3018,34 l 0.9255,19.66666 7.4585,0.14963 7.45849,0.14963 -7.33333,1.54248 -7.33334,1.54249 -0.38524,11.64123 c -0.44014,13.29997 -1.45218,12.52041 13.1284,10.11248 z m -561.38672,-36.8046 c 0.0133,-7.15 0.61622,-18.63128 1.34114,-25.51398 1.1903,-11.30124 1.09116,-12.68617 -1.02311,-14.29092 -3.4366,-2.60844 -3.95745,-2.32502 -4.89315,2.66267 -1.14841,6.12156 -3.32897,47.88761 -2.56566,49.14223 0.33461,0.55 2.07298,1 3.86304,1 3.2265,0 3.25484,-0.1124 3.27774,-13 z m 528.90204,-9.19282 c 1.23715,-3.22393 -3.49796,-6.47246 -5.91348,-4.05694 -0.97697,0.97697 -1.39008,2.78284 -0.91801,4.01304 1.10229,2.87249 5.73464,2.90228 6.83149,0.0439 z M 555.86258,204.88464 c 0.33074,-2.7939 -0.14254,-3.56384 -2.19068,-3.56384 -3.21732,0 -4.82687,3.67571 -2.72078,6.2134 2.22482,2.68075 4.42068,1.49615 4.91146,-2.64956 z m -146.4219,1.10283 c 2.08652,-2.51411 -0.35657,-6 -4.2051,-6 -3.21763,0 -4.60679,3.41516 -2.44747,6.01697 2.10029,2.5307 4.54337,2.52447 6.65257,-0.0169 z M 134.77402,179.81468 c 0,-5.59573 6.95834,-34.12332 12.15366,-49.82721 9.36858,-28.31833 22.19519,-45.084477 41.96651,-54.855997 12.63309,-6.24361 22.46661,-6.87905 32.95484,-2.12955 16.95043,7.67586 37.10876,40.053217 47.2166,75.837077 l 3.60491,12.76215 3.18541,-3.70327 c 2.63172,-3.05956 3.03983,-4.61368 2.34787,-8.941 -2.30732,-14.42916 -20.59263,-60.055277 -27.90764,-69.636077 -1.99327,-2.61068 -2.11887,-2.56869 -5.98236,2 -5.17747,6.12251 -6.61683,4.40011 -2.84102,-3.39968 l 3.00404,-6.20552 -3.85141,-3.27296 c -11.44144,-9.72298 -31.21663,-14.72746 -44.25587,-11.19976 l -5.73778,1.55234 0.86553,5.77181 c 0.50039,3.33679 0.31215,6.11384 -0.44619,6.58252 -0.74541,0.46068 -1.69932,-1.77387 -2.20945,-5.17569 -0.49375,-3.29251 -1.34348,-5.98639 -1.88831,-5.98639 -0.54482,0 -3.67058,1.6996 -6.94613,3.77689 -11.54039,7.3187 -25.36487,26.03475 -33.56257,45.438157 -2.79659,6.61934 -2.83438,7.12394 -0.65284,8.71911 2.37106,1.73376 3.16241,4.73251 1.24886,4.73251 -0.58666,0 -1.77666,-0.71 -2.64444,-1.57778 -0.86778,-0.86778 -1.84134,-1.31421 -2.16348,-0.99208 -1.61102,1.61103 -10.13252,32.92008 -12.20281,44.83468 -1.93685,11.14663 -2.05335,13.97107 -0.64612,15.66667 2.46289,2.96761 5.39019,2.54893 5.39019,-0.77095 z M 690.12799,153.7394 c -2.64096,-7.95016 -7.05024,-18.64668 -9.79841,-23.77005 -4.80266,-8.95351 -5.4297,-9.54163 -16.14854,-15.14631 -6.13352,-3.20709 -10.79556,-5.00709 -10.36008,-4 5.75952,13.31975 9.32491,22.98299 12.3709,33.52871 3.66424,12.68621 3.68346,12.7168 9.79346,15.58297 3.36712,1.57951 8.82203,4.84683 12.12203,7.26072 3.94485,2.88559 6.14084,3.8083 6.41119,2.69384 0.22616,-0.93226 -1.74959,-8.19972 -4.39055,-16.14988 z m -387.76804,-9.58832 c 8.66107,-2.11001 21.8974,-4.94896 29.41407,-6.30878 10.25125,-1.85452 13.66582,-2.97835 13.6633,-4.49695 -0.007,-3.92357 -6.63714,-26.72307 -11.13982,-38.304437 -6.07472,-15.62483 -12.94148,-30.46291 -17.27188,-37.32207 l -3.5367,-5.60196 -7.02412,2.0266 c -12.5734,3.6277 -38.41738,12.57079 -45.93493,15.8954 l -7.34196,3.24696 4.63089,6.35082 c 8.43574,11.56877 17.78444,33.538377 24.9718,58.684137 1.51966,5.31667 3.00127,9.66667 3.29247,9.66667 0.29121,0 7.6158,-1.72637 16.27688,-3.83639 z m 306.46167,-15.6886 c -3.32959,-10.11877 -18.76731,-42.607817 -22.60444,-47.571597 -1.82999,-2.3673 -31.16354,-14.96081 -32.27011,-13.85424 -0.30564,0.30564 1.33703,4.9946 3.65036,10.41994 5.63487,13.21508 11.37712,29.930017 15.23664,44.351797 1.74519,6.52116 3.38891,12.07249 3.65272,12.3363 0.26381,0.26382 7.93636,1.4435 17.05011,2.6215 9.11374,1.178 16.82045,2.38469 17.12601,2.68156 1.78557,1.73473 1.20555,-1.72578 -1.84129,-10.98526 z m 36.47225,5.7019 c 1.15267,-1.38888 1.01931,-2.23286 -0.55992,-3.5435 -2.54841,-2.11498 -5.39217,0.11507 -4.17883,3.27696 0.9876,2.57366 2.74211,2.67234 4.73875,0.26654 z m -146.51985,-6.61234 c 0,-3.67536 -8.02159,-30.027087 -12.54232,-41.202837 -9.3324,-23.07065 -21.5994,-42.94533 -27.31267,-44.25128 -1.91309,-0.43729 -15.42831,-1.18424 -30.03381,-1.65988 -22.53014,-0.7337 -26.4351,-0.58076 -25.7614,1.00899 0.43673,1.03057 3.46242,7.87377 6.72377,15.20711 8.16172,18.35206 14.535,35.76094 20.01316,54.666657 l 4.63619,16 27.13854,0.70848 c 14.92619,0.38967 29.38854,0.83967 32.13854,1 3.41153,0.19891 5,-0.2704 5,-1.47724 z M 392.63111,108.94951 c 1.14233,-1.83493 1.02387,-2.65967 -0.52376,-3.64624 -2.89223,-1.84375 -4.93779,-1.60308 -5.81551,0.6842 -2.05129,5.3456 3.29904,7.84556 6.33927,2.96204 z m 149.47624,-0.96204 c 0,-4.17035 -4.08557,-5.26468 -5.30548,-1.42109 -1.09815,3.45994 0.24581,5.6923 3.09647,5.14332 1.34616,-0.25924 2.20901,-1.71316 2.20901,-3.72223 z m 123.563,-1 c -2.19693,-2.75 -5.99735,-6.86552 -8.44537,-9.145607 -4.50022,-4.19148 -19.1706,-15.18772 -20.26238,-15.18772 -0.32557,0 2.42496,4.53012 6.11228,10.06692 5.8691,8.812887 7.80428,10.631737 15.53502,14.601087 4.85693,2.49379 9.3312,4.56368 9.94282,4.59975 0.61163,0.0361 -0.68545,-2.18443 -2.88237,-4.93443 z M 571.53999,61.442183 c -12.26217,-14.98802 -24.88784,-26.14675 -32.97243,-29.14144 -14.45166,-5.3532 -14.40881,-5.3611 -8.10128,1.4952 3.13076,3.40313 8.69946,10.79405 12.37491,16.42426 l 6.68263,10.23675 14.29176,5.61177 c 7.86048,3.08647 14.52421,5.3984 14.8083,5.13762 0.2841,-0.26079 -2.90365,-4.65466 -7.08389,-9.76416 z m 39.30445,7.21196 c -0.10453,-1.97906 -3.08749,-1.61547 -3.77953,0.46066 -0.37384,1.1215 0.23569,1.62132 1.62597,1.33334 1.2232,-0.25336 2.1923,-1.06067 2.15356,-1.794 z m -348.84901,-3.91747 c 6.25401,-2.52127 19.03765,-7.04709 28.40809,-10.05739 9.37044,-3.01029 17.89456,-5.76981 18.9425,-6.13228 1.33694,-0.46241 -0.25404,-2.85254 -5.33334,-8.01218 -7.86505,-7.98946 -25.50889,-17.88068 -31.89536,-17.88068 -6.10032,0 -38.18358,11.63354 -57.00997,20.6721 -9.71667,4.66498 -17.66453,8.67215 -17.66192,8.90483 0.003,0.23269 5.86715,0.42307 13.03231,0.42307 11.95756,0 13.73778,0.34981 21.67461,4.25902 4.75588,2.34248 10.4036,6.09248 12.55048,8.33334 2.14689,2.24086 4.35753,4.0743 4.91255,4.0743 0.55502,0 6.12604,-2.06285 12.38005,-4.58413 z m 187.69069,-34.12867 c -8.51545,-7.94268 -16.34744,-12.68725 -27.81333,-16.84914 -7.3314,-2.66116 -11.06452,-3.10472 -26.12988,-3.10472 h -17.57648 l 4.97508,4.10087 c 2.73629,2.25549 7.67529,7.8849 10.97557,12.50982 l 6.0005,8.40895 21.5743,0.1807 c 11.86587,0.0995 21.86358,0.46998 22.21711,0.82352 0.35355,0.35354 3.3928,0.61994 6.75392,0.59198 l 6.11111,-0.0508 -7.0879,-6.61115 z m -91.88629,3.7128 c 0.93785,-2.68865 -0.46088,-5 -3.02581,-5 -2.50695,0 -4.53354,3.39137 -3.25898,5.45366 1.11007,1.79612 5.6134,1.47106 6.28479,-0.45366 z m 139.64085,-7.07869 c 0,-1.05672 -0.9,-1.92131 -2,-1.92131 -2.0083,0 -2.7409,2.81466 -1.14736,4.4082 1.24432,1.24432 3.14736,-0.25936 3.14736,-2.48689 z M 116.77402,822.56268 c -8.50966,-1.74117 -46.197422,-18.9486 -56.494962,-25.7944 -23.29943,-15.48942 -37.13183,-40.3585 -48.68751,-87.5346 -18.2888797,-74.6644 -16.0503997,-158.71129 5.97948,-224.50702 9.2494,-27.62482 17.37867,-42.42912 29.35479,-53.45832 6.46364,-5.95258 34.02244,-22.76672 46.11329,-28.13458 25.863312,-11.48229 37.191082,-13.45145 48.324962,-8.4006 14.44391,6.55246 25.80896,20.23239 38.15036,45.92098 14.38715,29.94682 24.26824,65.76449 29.42632,106.66666 2.84191,22.53552 3.26163,81.05996 0.75063,104.66667 -4.39747,41.34212 -10.72755,75.88633 -17.21538,93.94691 -8.28301,23.05796 -23.70261,47.82368 -38.92724,62.52182 -12.85948,12.41479 -24.05465,16.70916 -36.77474,14.10648 z m 11.33333,-6.29817 c 0,-0.58097 -3.9,-3.33771 -8.66667,-6.12609 -4.76666,-2.78838 -8.66666,-5.35503 -8.66666,-5.70367 0,-0.34864 4.79561,1.92132 10.6569,5.04436 10.6344,5.66624 10.66667,5.67359 15.27463,3.4762 5.55125,-2.64721 13.5296,-9.69496 20.78463,-18.36028 l 5.33568,-6.37289 -8.35926,-2.8084 c -4.59758,-1.54462 -11.54584,-4.565 -15.44054,-6.71196 l -7.0813,-3.90356 -8.11444,7.91544 -8.11444,7.91544 3.74639,3.01252 c 2.06052,1.65688 5.5986,4.03737 7.8624,5.28996 2.51997,1.39434 3.26319,2.29912 1.91667,2.33333 -1.20964,0.0308 -5.33252,-2.05257 -9.16196,-4.6296 l -6.96262,-4.68549 -6.83804,3.318 c -8.877962,4.30781 -19.749052,6.55512 -26.664772,5.51221 -6.94475,-1.04728 -4.97055,0.37077 8.4934,6.10077 18.764272,7.98571 40.000002,12.96746 40.000002,9.38371 z M 92.827218,796.5848 c 10.906402,-2.84001 18.502772,-7.54902 28.091052,-17.41374 l 8.14425,-8.37907 -2.7658,-5.96465 -2.7658,-5.96467 -9.41373,8.94213 c -5.17756,4.91818 -12.39787,10.36623 -16.045122,12.10679 -8.80969,4.20421 -20.30961,4.32505 -28.54849,0.29999 -3.25442,-1.58992 -6.0254,-2.89078 -6.15778,-2.89078 -0.1324,0 -0.56054,2.25 -0.95152,5 -0.39096,2.75 -1.1186,6.00944 -1.61696,7.24322 -1.03898,2.57214 3.94763,5.67577 12.2667,7.63468 7.52926,1.77294 11.01264,1.66473 19.7632,-0.6139 z m -34.49952,-14.82676 2.88701,-6.10761 -6.95635,-6.83148 c -8.72616,-8.56953 -14.48001,-16.94884 -20.32456,-29.59861 -2.51562,-5.44475 -4.84029,-9.89954 -5.16592,-9.89954 -0.32562,0 -1.49421,1.74459 -2.59685,3.87686 -1.81821,3.51605 -1.7726,4.53974 0.49013,11 4.32326,12.34309 8.03034,19.97373 14.24511,29.32208 5.42977,8.16754 11.52393,14.56946 13.71423,14.40682 0.4511,-0.0335 2.11934,-2.80933 3.7072,-6.16852 z m 26.99878,-3.94773 4.21914,-0.84383 -6.73675,-4.5368 c -13.60693,-9.16342 -24.53297,-27.53938 -35.22292,-59.23957 -11.36671,-33.70709 -14.79175,-57.76879 -14.5954,-102.53597 0.28995,-66.10674 5.40495,-93.98902 24.33772,-132.66667 8.75336,-17.8822 11.89969,-22.90531 19.44921,-31.05056 4.95359,-5.34448 8.70226,-10.02149 8.33038,-10.39337 -1.05052,-1.05052 -13.07214,2.20882 -19.00051,5.15149 -17.01569,8.44607 -29.6786,26.73069 -39.90804,57.62528 -4.12736,12.46533 -10.09196,37.21543 -10.09196,41.8766 0,0.84144 2.95804,1.54907 7,1.67456 l 7,0.21732 -7.33333,0.78268 -7.33334,0.78267 -0.94149,6.66666 c -0.51783,3.66667 -1.35979,19.11667 -1.87104,34.33334 l -0.92952,27.66666 6.53769,0.0204 c 3.59574,0.0107 7.4377,0.60204 8.5377,1.31292 1.41961,0.91743 -0.2248,1.29843 -5.66667,1.31292 l -7.66667,0.0204 v 6.62083 c 0,19.7832 12.3325,84.09345 19.36404,100.97768 1.64019,3.93841 2.16671,4.21829 6.87278,3.6534 l 5.09652,-0.61178 -5.10588,1.67994 -5.10588,1.67993 6.30193,12.57501 c 4.89013,9.7579 8.57292,14.8787 16.43921,22.85819 9.87116,10.01324 11.961,11.20421 22.97062,13.09068 0.45833,0.0785 2.73194,-0.23693 5.05246,-0.70104 z m 86.795622,-3.18373 c 1.56288,-2.92028 0.77046,-5.3076 -1.76011,-5.3027 -1.80964,0.004 -19.93507,-12.10042 -19.20837,-12.82712 0.2613,-0.2613 5.77036,2.24964 12.24233,5.57988 6.61444,3.40355 12.27193,5.5503 12.9198,4.90243 3.20608,-3.20608 17.01785,-42.37547 17.09696,-48.48599 0.0219,-1.68882 -1.93865,-2.37046 -8.97203,-3.11941 -14.31925,-1.52477 -15.91058,-3.37776 -2.13217,-2.48276 l 12.20116,0.79255 1.48596,-7.18132 c 1.76937,-8.55102 4.09315,-22.55416 4.104,-24.7308 0.004,-0.85222 -2.54228,-1.9539 -5.65895,-2.4482 -3.11666,-0.49431 -10.14506,-2.01864 -15.61865,-3.38743 -5.4736,-1.36879 -10.15248,-2.28821 -10.39752,-2.04317 -0.39701,0.39701 -5.88635,25.75968 -7.81312,36.09944 -0.70823,3.8006 -0.29932,4.24192 8.03028,8.66666 4.82708,2.56419 8.78157,5.06758 8.78776,5.56308 0.007,0.49551 -3.73875,-0.58693 -8.32208,-2.40541 -4.58333,-1.81848 -8.80633,-3.42389 -9.38444,-3.56759 -0.57811,-0.14369 -3.02301,5.75716 -5.43311,13.11302 -2.4101,7.35584 -6.78201,17.95442 -9.71536,23.5524 l -5.33334,10.17813 5.11001,2.87199 c 5.10988,2.87192 21.65385,9.07008 24.70933,9.2573 0.89087,0.0545 2.26862,-1.11316 3.06166,-2.59498 z M 99.160468,773.1493 c 9.007072,-4.55391 23.686722,-20.64415 30.125492,-33.02027 3.09831,-5.95535 5.26519,-11.42347 4.81531,-12.15139 -0.44988,-0.72793 -3.33256,-1.37168 -6.40595,-1.43056 -3.07338,-0.0589 -13.68797,-1.83676 -23.58797,-3.95085 -14.509722,-3.09845 -16.319492,-3.71189 -9.333332,-3.16357 9.441342,0.74101 32.523722,3.96616 37.720162,5.27038 2.83041,0.71039 3.51972,0.1276 5.39601,-4.56164 3.55448,-8.88352 9.94673,-35.01761 12.49321,-51.07728 1.89339,-11.9408 2.36283,-22.42577 2.25704,-50.40998 -0.13385,-35.40708 -1.21693,-50.95892 -5.40668,-77.63396 l -2.24614,-14.30063 -20.77347,-0.36604 -20.77347,-0.36604 20.33334,-1.17072 c 11.18333,-0.64391 20.33333,-1.25596 20.33333,-1.36013 0,-0.10414 -1.23513,-4.67735 -2.74476,-10.16262 -7.367,-26.76837 -17.83556,-48.21998 -29.74432,-60.95048 -7.11243,-7.60321 -15.715412,-13.68938 -19.350352,-13.68938 -2.98562,0 -16.7507,14.47472 -23.70652,24.92866 -20.93904,31.46944 -29.49945,67.78708 -30.7668,130.52843 -0.62714,31.04829 -0.47366,34.87832 1.4269,35.60764 1.1713,0.44947 12.94978,1.23516 26.17441,1.74597 13.22463,0.51083 24.04477,1.46035 24.04477,2.11006 0,0.65002 -11.54304,1.11918 -25.66666,1.04322 l -25.66667,-0.13806 0.38012,9.08704 c 1.32164,31.59538 15.68389,83.04629 29.72491,106.48566 5.532,9.23487 15.07357,20.13859 20.5398,23.47208 4.87934,2.9756 3.69568,3.01831 10.40829,-0.37554 z m 40.978452,-22.55796 c 6.97968,-13.88188 12.6984,-31.08698 16.62212,-50.0085 4.17279,-20.12261 5.35527,-29.9287 3.60899,-29.9287 -0.75785,0 -2.18619,-0.31016 -3.17408,-0.68926 -1.3468,-0.51681 -2.4106,2.73552 -4.25216,13 -3.29393,18.3597 -8.99785,35.94798 -17.45017,53.8084 l -6.99728,14.78583 2.50402,4.88084 c 1.37722,2.68447 2.783,4.88085 3.12396,4.88085 0.34096,0 3.04754,-4.82825 6.0146,-10.72946 z M 28.077698,726.34095 c 0.0163,-0.53892 -1.39776,-5.93892 -3.14238,-12 -1.74462,-6.06108 -4.49896,-17.62015 -6.12074,-25.68681 -3.97875,-19.78991 -3.56938,-18.83972 -6.84104,-15.87891 -2.2443497,2.03111 -2.5957097,3.47888 -1.9268,7.93943 1.27694,8.51534 6.86818,32.55324 10.08197,43.34454 l 2.91172,9.77702 2.50381,-3.25771 c 1.3771,-1.79173 2.51715,-3.69864 2.53346,-4.23756 z m -15.63279,-57.35348 c 1.78367,-1.36331 1.97119,-2.75876 1.03023,-7.66667 -0.6327,-3.3 -1.81712,-12.3 -2.63206,-20 -2.6829797,-25.35022 -2.6676997,-25.27574 -4.9994497,-24.38097 -1.83947,0.70588 -2.01629,2.95383 -1.33181,16.93079 0.86176,17.59665 3.38434,36.78352 4.8361,36.78352 0.50403,0 1.8976697,-0.75 3.0969897,-1.66667 z M 201.93615,668.3208 c 0.37135,-1.28333 1.32445,-10.43333 2.11803,-20.33333 0.79357,-9.9 1.65646,-20.55 1.91756,-23.66667 l 0.47472,-5.66666 -11.5029,-0.0204 c -7.91921,-0.0141 -10.87978,-0.42311 -9.50288,-1.31294 1.1,-0.71088 6.35,-1.30169 11.66667,-1.31292 l 9.66667,-0.0204 v -18.59404 c 0,-17.62595 -2.24891,-52.06884 -3.48162,-53.32235 -0.31536,-0.32068 -7.91101,0.58612 -16.87921,2.01512 l -16.30584,2.59816 0.42495,9.31822 c 0.62838,13.77888 0.46633,13.53997 9.26338,13.65648 4.20475,0.0557 9.11528,0.6601 10.9123,1.34314 2.27421,0.86442 -0.0187,1.05167 -7.54347,0.61607 l -10.81079,-0.62583 0.40878,28.49751 0.40876,28.49752 6.93437,1.00817 c 11.07719,1.61048 12.25371,3.41587 1.7356,2.66331 l -9.35199,-0.66913 -0.83616,7.83216 c -0.45989,4.30769 -1.22181,11.81513 -1.69314,16.68321 l -0.85699,8.85104 9.16887,1.44565 c 5.04288,0.79511 10.66886,1.68043 12.5022,1.96738 7.77912,1.21757 10.49258,0.86546 11.16213,-1.44846 z m -38.68425,-9.33333 c 2.64352,-15.98653 3.84604,-56.3716 2.36556,-79.44404 -1.91642,-29.86633 -2.04996,-30.45507 -6.66227,-29.37103 -1.93299,0.45431 -3.97892,1.24298 -4.54653,1.75258 -0.56762,0.5096 -0.29832,6.88213 0.59842,14.16118 0.94991,7.71059 1.65894,30.61155 1.6987,54.8666 0.0705,43.04366 -0.0539,41.95307 4.89378,42.88004 0.45404,0.0851 1.1976,-2.09533 1.65234,-4.84533 z M 8.1073483,595.72474 c 0,-10.41116 0.66261,-25.7153 1.47247,-34.00918 1.3330097,-13.65164 0.9936797,-20.63868 -0.9099,-18.7351 -1.58394,1.58394 -4.5368,36.20646 -4.54925,53.34034 -0.0107,15.41334 0.30523,18.33334 1.98668,18.33334 1.68387,0 2,-2.99216 2,-18.9294 z M 161.39619,544.43176 c 1.28013,-1.18828 -3.96741,-27.01237 -8.62483,-42.44429 -2.65588,-8.8 -7.7823,-22.20729 -11.39206,-29.79397 l -6.56319,-13.79399 -3.52591,4.19031 -3.52592,4.1903 6.13952,13.05247 c 6.8438,14.54976 14.28448,39.07973 16.94792,55.87289 l 1.75278,11.05135 4.08476,-0.87377 c 2.24661,-0.48058 4.36473,-1.13366 4.70693,-1.4513 z M 13.380218,531.65414 c 2.66653,-15.16319 7.79813,-33.88858 12.15516,-44.35462 3.3997,-8.16644 3.77236,-10.1548 2.52036,-13.44774 -1.15623,-3.04103 -1.70584,-3.43822 -2.57979,-1.86431 -1.69016,3.04383 -8.89881,28.49467 -11.89747,42.00511 -4.2988497,19.36854 -5.3132597,27.32822 -3.48282,27.32822 0.9219,0 2.29556,-4.04276 3.28456,-9.66666 z m 174.501292,7.73914 c 7.57579,-1.01366 14.05724,-2.1261 14.40323,-2.47208 1.14116,-1.14117 -7.30007,-39.9774 -12.029,-55.3428 -5.01819,-16.30518 -11.28339,-33.63229 -12.76039,-35.29024 -0.74341,-0.83448 -31.90324,7.29096 -34.78157,9.06988 -0.4403,0.27211 1.46973,5.14908 4.24448,10.83771 6.97976,14.30945 13.98972,36.51003 18.14284,57.45839 4.02921,20.32341 1.51282,18.58482 22.78041,15.73914 z M 32.107348,473.56895 c 0,-0.59685 2.76041,-5.24685 6.13425,-10.33333 6.90439,-10.40922 18.09407,-22.51958 23.38456,-25.30864 3.49174,-1.8408 3.502,-1.89098 1.33334,-6.52054 -1.20202,-2.566 -2.55104,-4.685 -2.99784,-4.70888 -0.4468,-0.0239 -3.4468,2.04038 -6.66667,4.58723 -8.17137,6.46343 -17.94303,18.60435 -22.40936,27.84281 -3.22384,6.66842 -3.56173,8.36964 -2.31725,11.66667 1.34772,3.57052 3.53897,5.28853 3.53897,2.77468 z M 132.0594,455.49012 c 0.0863,-2.09353 -11.66993,-17.64537 -16.63249,-22.00256 -15.42187,-13.54057 -31.257492,-17.55226 -46.923652,-11.8873 -5.07895,1.83657 -5.13979,2.07013 -2.16454,8.3093 1.95494,4.09955 2.65696,4.5594 5.66667,3.71191 1.88941,-0.53204 7.33529,-0.91867 12.10196,-0.85917 13.46472,0.16804 23.167952,6.30334 34.881122,22.05518 l 6.91531,9.29967 3.05384,-3.73151 c 1.6796,-2.05233 3.07541,-4.2553 3.10178,-4.89552 z m 26.20003,-9.6255 c 8.71636,-2.75678 16.03825,-5.14724 16.27089,-5.31215 0.23264,-0.16492 -1.19806,-3.50951 -3.17936,-7.43243 -9.90142,-19.60466 -23.63201,-32.86965 -37.15618,-35.89622 -7.9757,-1.78488 -12.86926,-0.55448 -39.420762,9.91173 l -14,5.51859 8.92668,0.88273 c 12.574492,1.24345 22.638322,6.93892 34.854382,19.72533 5.3783,5.6294 10.91415,12.1574 12.30188,14.50664 1.38774,2.34924 3.20522,4.00962 4.03884,3.68972 0.83364,-0.31989 8.64727,-2.83716 17.36363,-5.59394 z"
     id="path3725"
     inkscape:connector-curvature="0" />
</svg>
