<?xml version="1.0" encoding="UTF-8" standalone="no"?>
<!-- Created with Inkscape (http://www.inkscape.org/) -->

<svg
   xmlns:dc="http://purl.org/dc/elements/1.1/"
   xmlns:cc="http://creativecommons.org/ns#"
   xmlns:rdf="http://www.w3.org/1999/02/22-rdf-syntax-ns#"
   xmlns:svg="http://www.w3.org/2000/svg"
   xmlns="http://www.w3.org/2000/svg"
   xmlns:sodipodi="http://sodipodi.sourceforge.net/DTD/sodipodi-0.dtd"
   xmlns:inkscape="http://www.inkscape.org/namespaces/inkscape"
   version="1.1"
   id="svg3715"
   width="1733.3333"
   height="1594.6667"
   viewBox="0 0 1733.3333 1594.6667"
   sodipodi:docname="cheers.svg"
   inkscape:version="0.92.3 (2405546, 2018-03-11)">
  <metadata
     id="metadata3721">
    <rdf:RDF>
      <cc:Work
         rdf:about="">
        <dc:format>image/svg+xml</dc:format>
        <dc:type
           rdf:resource="http://purl.org/dc/dcmitype/StillImage" />
        <dc:title></dc:title>
      </cc:Work>
    </rdf:RDF>
  </metadata>
  <defs
     id="defs3719" />
  <sodipodi:namedview
     pagecolor="#ffffff"
     bordercolor="#666666"
     borderopacity="1"
     objecttolerance="10"
     gridtolerance="10"
     guidetolerance="10"
     inkscape:pageopacity="0"
     inkscape:pageshadow="2"
     inkscape:window-width="1206"
     inkscape:window-height="728"
     id="namedview3717"
     showgrid="false"
     inkscape:zoom="0.29598661"
     inkscape:cx="62.670895"
     inkscape:cy="885.66953"
     inkscape:window-x="67"
     inkscape:window-y="27"
     inkscape:window-maximized="0"
     inkscape:current-layer="svg3715" />
  <path
     style="fill:#000000;stroke-width:1.33333337"
     d="m 512.66662,1470.6667 c -1.1118,-1.7989 -2.4158,-1.7195 30.6667,-1.8681 28.7082,-0.1294 29.4591,-0.203 35.2354,-3.4652 8.631,-4.8746 8.1819,-6.7504 -0.8546,-3.5691 -10.6727,3.7573 -38.59,3.6155 -60.8868,-0.3093 -8.7117,-1.5336 -17.359,-2.7883 -19.2162,-2.7883 -1.8572,0 -6.4295,-0.9017 -10.1606,-2.0039 -3.7311,-1.1021 -21.1839,-5.5628 -38.7839,-9.9124 -53.705,-13.2726 -105.8708,-28.8646 -138.6666,-41.4462 -66.4758,-25.5026 -130.0678,-60.547 -185.8865,-102.4386 C 104.11902,1287.8599 91.065523,1276.5161 88.596123,1272 l -1.8227,-3.3333 -0.053,3.7329 c -0.088,6.1266 3.1664,10.6122 15.179397,20.9249 34.7409,29.8235 100.4043,68.7009 166.6808,98.6867 64.1301,29.0148 150.4864,57.2662 210.0864,68.7294 14.0329,2.6989 15.0561,3.1386 13.4289,5.7714 -3.0856,4.9928 -88.2355,-17.3986 -149.4289,-39.2944 -73.4231,-26.2718 -140.3958,-59.0732 -201.9482,-98.9085 -31.6198,-20.4637 -55.583197,-40.8773 -58.186797,-49.5674 -3.29,-10.9811 3.6175,-27.0343 22.561297,-52.4329 17.5634,-23.548 18.0056,-24.4995 17.3172,-37.2612 -0.3679,-6.82 -1.5232,-12.9857 -3.0191,-16.1124 -2.777,-5.8046 -22.421897,-28.5986 -49.643897,-57.6018 -39.2184,-41.7848 -48.3916,-54.2577 -59.1531,-80.431 C -2.4577775,1003.1578 -3.0340775,984.60354 7.4061225,932.24735 18.742823,875.39454 30.305523,840.25959 56.632123,782.66668 c 14.8515,-32.48972 40.9405,-80.77212 67.722797,-125.33333 15.2992,-25.45523 50.1314,-74.79843 64.3121,-91.10435 24.2935,-27.93419 58.9689,-32.33028 106.268,-13.47248 6.8193,2.7188 19.6701,8.15311 28.5573,12.07621 20.6574,9.11886 30.601,11.71282 40.2691,10.50487 9.614,-1.20119 13.5391,-5.10844 17.4279,-17.3486 5.1773,-16.29536 15.0267,-42.39132 18.9607,-50.23579 4.6275,-9.22751 10.9366,-14.41987 17.5212,-14.41987 18.5241,0 166.3808,52.68506 343.8826,122.53401 18.8211,7.4063 34.7284,13.466 35.3497,13.466 0.6213,0 5.5031,-2.30139 10.8485,-5.11419 l 9.719,-5.11417 -23.0687,-15.4027 c -12.6877,-8.47148 -30.5686,-20.89912 -39.7353,-27.61698 -74.9113,-54.89943 -102.2511,-75.58858 -122.8677,-92.97909 -14.05,-11.85137 -60.7706,-60.3957 -73.2471,-76.10621 -2.7917,-3.5152 0.729,-1.22887 18.1178,11.76593 15.6443,11.69116 19.9374,15.79651 33.1149,31.66667 8.3271,10.02873 19.5829,22.43407 25.0128,27.5674 19.1644,18.11784 53.4189,44.88773 87.1476,68.10597 27.6966,19.0659 33.6545,22.44993 67.4626,38.31782 6.9259,3.25064 20.8753,9.88511 30.9989,14.74324 10.1235,4.85813 18.7781,8.83297 19.2324,8.83297 2.8989,0 -7.3092,-7.74712 -15.8023,-11.99264 -8.9032,-4.45054 -62.0634,-38.88384 -63.8365,-41.34867 -0.3667,-0.50969 -3.0948,-2.447 -6.0625,-4.30512 -14.1448,-8.85621 -35.9533,-27.7219 -85.9375,-74.34106 -44.4989,-41.50306 -56.1425,-52.01251 -57.6254,-52.01251 -1.8021,0 1.4902,5.41092 7.9101,13 3.2568,3.85 5.3216,7 4.5884,7 -2.8896,0 -14.0759,-14.53731 -18.4677,-24 -4.4359,-9.55764 -17.6709,-31.9365 -28.6094,-48.37519 -2.8212,-4.23969 -5.1294,-8.37676 -5.1294,-9.19348 0,-0.81672 -3.2377,-7.84788 -7.1949,-15.6248 -17.2584,-33.91725 -28.9848,-63.43504 -32.8448,-82.6768 -3.0782,-15.34461 -8.817,-32.76431 -14.0991,-42.7964 -3.8086,-7.23347 -3.8598,-7.62384 -3.7636,-28.66667 0.087,-18.97309 1.6763,-35.50741 6.6652,-69.33333 l 0.7867,-5.33334 -2.8139,3.33334 c -18.3037,21.6832 -34.6526,75.45842 -35.064,115.33333 -0.1692,16.40434 4.0779,39.3871 13.8949,75.19095 5.7624,21.01597 10.0193,31.45431 17.7668,43.56548 2.7727,4.33456 3.9849,7.00421 2.6936,5.93255 -4.2142,-3.49748 -26.1769,-33.8316 -30.1364,-41.6234 -8.5539,-16.83288 -13.6315,-44.66871 -13.6929,-75.06558 -0.068,-33.77928 3.6682,-48.93219 20.9163,-84.82435 20.8741,-43.43763 38.9239,-73.889028 50.5413,-85.267062 8.2026,-8.033487 9.2668,-9.14667 13.483,-14.102737 2.5783,-3.030873 4.9652,-4.47252 7.4051,-4.47252 3.616,0 10.9229,-6.319608 12.4743,-10.788772 0.9685,-2.790056 13.6256,-11.127632 24.1079,-15.880554 11.4955,-5.212277 61.5883,-21.0152615 76.2079,-24.0415745 29.1962,-6.04374939 65.4873,-6.548094 95.522,-1.327486 18.6722,3.245603 82.7794,21.3854545 92.2211,26.0950025 27.9127,13.922985 44.5842,25.091584 46.46972,31.131046 0.44673,1.430938 1.85242,1.050396 6.15653,-1.666667 9.51859,-6.008816 7.93249,-3.884494 -3.17393,4.250975 -18.05222,13.223279 -26.54292,26.783738 -29.89032,47.737899 -1.0218,6.39585 -0.8481,13.3437 0.7028,28.11143 2.3421,22.30234 2.0183,27.39033 -4.0751,64.04537 -1.2043,7.24465 1.575,4.83885 3.8508,-3.33333 2.6835,-9.63603 5.62,-28.48599 7.5294,-48.33334 2.9983,-31.16513 11.0994,-48.49196 35.09662,-75.065205 13.04997,-14.450848 16.57085,-17.612494 20.04389,-17.998858 2.31721,-0.257781 6.7756,-1.595606 9.90752,-2.972944 3.13192,-1.377337 6.06484,-2.48122 6.5176,-2.453073 0.45276,0.02815 1.19026,-0.450071 1.63893,-1.062706 0.44865,-0.612633 4.11573,-2.220665 8.14907,-3.573404 4.03333,-1.352738 15.73336,-6.585369 25.99995,-11.628068 21.6631,-10.640301 31.4156,-13.074773 56.6667,-14.145426 20.8435,-0.883768 36.5785,2.190217 52.2751,10.212426 5.7154,2.921005 10.3916,4.741472 10.3916,4.045483 0,-2.861647 -8.5038,-10.658587 -13.7288,-12.587598 -5.56,-2.052685 -39.3626,-7.416201 -46.8268,-7.430068 -8.1792,-0.0152 -1.3337,-1.88846 20.0293,-5.480991 12.1953,-2.0508315 22.4286,-3.9840885 22.7406,-4.2961255 1.9371,-1.937118 -4.8443,-1.482475 -17.834,1.195628 -8.2241,1.6955885 -25.0241,4.3508265 -37.3333,5.9005285 -12.3092,1.549703 -24.7804,3.370593 -27.7137,4.046427 -5.8441,1.346474 -9.4535,1.636361 -8.4998,0.682664 1.7392,-1.739155 17.7617,-4.758139 32.1881,-6.064925 8.9714,-0.812657 25.6069,-3.315625 36.9676,-5.5621505 16.2992,-3.223093 22.5402,-3.909466 29.5898,-3.254273 30.2323,2.809802 62.948,15.0366015 88.3813,33.0307275 22.9562,16.241592 52.9197,49.880431 53.3901,59.939169 l 0.1997,4.268142 -3.1973,-3.717092 c -2.114,-2.45761 -3.6454,-3.26901 -4.5198,-2.39468 -1.8266,1.82661 1.6485,10.870932 15.2537,39.699732 12.864,27.25812 19.3657,44.96234 23.8249,64.87504 2.5981,11.60222 3.0825,17.49576 3.0513,37.12496 -0.039,24.77056 -1.126,33.47343 -7.449,59.65556 -10.5555,43.70819 -28.4246,82.67336 -50.4922,110.10319 -20.0257,24.89165 -57.6495,60.92932 -91.831,87.9596 -32.2987,25.54145 -54.8829,44.03395 -54.3849,44.53188 0.998,0.99799 34.0586,-17.46021 48.1942,-26.90751 19.482,-13.02049 32.7094,-23.81497 57.069,-46.57238 25.3642,-23.69602 39.52,-39.66768 53.2703,-60.10367 33.6883,-50.06844 50.6748,-111.01923 50.7218,-182.00001 0.026,-39.39192 -3.307,-56.0267 -16.9967,-84.82668 -5.2252,-10.99271 -6.4702,-14.61662 -4.6257,-13.46473 7.2816,4.54743 22.0888,45.65441 28.1855,78.24717 3.7867,20.24308 4.0723,59.25375 0.5811,79.36215 -11.0827,63.83358 -49.8328,128.75305 -115.1009,192.83271 -51.4881,50.55058 -99.4516,81.87902 -163.1044,106.53523 -24.89929,9.64487 -30.09249,12.25095 -39.74209,19.94386 -5.75186,4.58556 -9.63404,6.70364 -12.2869,6.70364 -4.11118,0 -13.30436,6.89357 -13.30436,9.97636 0,1.84696 4.10156,3.73972 13.07037,6.03161 5.70116,1.45688 6.0138,1.34147 49.99998,-18.45699 24.3446,-10.95766 61.363,-27.53962 82.263,-36.84878 20.9,-9.30915 41.6,-18.62303 46,-20.69749 4.4,-2.07445 34.1394,-15.50592 66.0876,-29.8477 64.151,-28.79784 69.6651,-30.58062 76.2237,-24.64416 1.9164,1.7346 5.4086,7.65381 7.7605,13.15381 6.0435,14.13317 21.9475,46.01263 25.3121,50.73779 4.4946,6.31197 9.0602,7.92888 22.3885,7.92888 11.8914,0 11.9206,-0.008 25.7329,-7.39555 30.2161,-16.16036 57.2068,-28.91201 71.1613,-33.61999 13.7458,-4.63753 15.6714,-4.94546 30.6667,-4.90409 17.78,0.0491 25.6356,2.25435 40.9161,11.48627 11.1883,6.75944 26.4172,19.80585 26.4172,22.6311 0,0.62458 0.7674,1.13559 1.7052,1.13559 2.0404,0 14.2674,12.38767 27.6367,28 17.3139,20.21858 58.9481,85.42906 88.9589,139.33334 23.9303,42.98256 36.8888,70.81537 53.8832,115.73237 18.0152,47.61521 25.2154,84.92917 21.1959,109.84582 -4.2619,26.41883 -24.9401,60.82566 -91.0796,151.54786 -25.7888,35.3741 -28.9807,40.4183 -29.8964,47.2454 -1.3759,10.2575 5.2924,22.9426 26.1255,49.6986 9.1485,11.7493 13.4706,21.0083 13.4706,28.8566 0,18.3193 -23.3113,36.4727 -112.6666,87.7375 -52.0752,29.8765 -72.6214,40.5657 -102.3744,53.2612 -40.2103,17.1573 -96.413,38.0747 -102.3029,38.0747 -1.1058,0 -4.7058,1.4325 -8,3.1833 -9.6799,5.1449 -73.8686,24.7551 -109.8723,33.5669 -22.0639,5.4 -32.0741,5.7182 -41.2169,1.31 -6.798,-3.2776 -8.7597,-6.6358 -12.3527,-21.1468 -20.6804,-83.5196 -41.717,-152.2635 -60.2584,-196.9134 -28.4957,-68.6212 -83.2025,-191.0437 -168.32084,-376.66672 -13.78722,-30.06666 -31.17714,-67.86666 -38.64434,-84 -27.6199,-59.67501 -33.3239,-72.68873 -33.3239,-76.02899 0,-2.23049 2.1621,-5.7301 6.2213,-10.06966 l 6.2213,-6.65108 -4.4235,-4.56386 c -5.9154,-6.10314 -8.676,-4.7112 -9.7661,4.92424 -0.439,3.88082 -5.8305,20.55602 -11.981,37.05602 -12.9874,34.84124 -57.0722,149.22428 -61.6662,160 -1.7195,4.03333 -4.3781,10.93334 -5.9081,15.33334 -1.5299,4.4 -3.66,9.8 -4.7335,12 -1.0736,2.2 -13.3895,33.4 -27.3687,69.33333 -13.9793,35.93338 -31.7461,81.53338 -39.4818,101.33338 -28.385,72.6529 -32.9505,84.6326 -44.4614,116.6666 -19.1552,53.3076 -40.6062,123.2766 -50.0594,163.2844 -3.4663,14.67 -3.8893,15.6566 -5.2675,12.285 l -1.4984,-3.666 -3.5372,3.2781 c -1.9455,1.8031 -4.6065,3.5767 -5.9135,3.9415 -19.1357,5.3402 -20.9602,5.5304 -52.3763,5.4568 -34.0767,-0.08 -46.5313,-1.579 -84,-10.1116 -48.6653,-11.0826 -121.6742,-37.6669 -185.4508,-67.5274 -37.3856,-17.5041 -70.3799,-40.6236 -102.8825,-72.091 -7.15,-6.9222 -13.0034,-11.7453 -13.0075,-10.7178 -0.01,2.4383 17.0196,18.7421 49.7214,47.6028 14.5093,12.805 26.1178,23.5446 25.7966,23.8658 -0.6495,0.6495 -28.6938,-15.4454 -42.1772,-24.206 -10.893,-7.0776 -24.6989,-18.3528 -36.3333,-29.6734 -4.95,-4.8165 -9,-8.047 -9,-7.179 0,3.2511 13.3628,21.1349 22.7611,30.4619 5.3597,5.319 17.9794,15.819 28.044,23.3334 10.0645,7.5144 18.1066,13.8566 17.8714,14.0937 -0.8018,0.8083 -20.1375,-8.6711 -28.0855,-13.7689 -4.3584,-2.7955 -9.1487,-5.2215 -10.6452,-5.3911 -1.4965,-0.1696 -8.8611,-3.7381 -16.3658,-7.9299 -13.9668,-7.8014 -29.1641,-13.9297 -34.6677,-13.9798 -9.8926,-0.09 -11.2235,8.9988 -3.2831,22.4212 8.105,13.7008 32.627,36.054 59.4723,54.2125 8.969,6.0668 11.8828,9.3663 4.1345,4.6819 -26.7473,-16.1709 -56.418,-39.1388 -67.0237,-51.883 -9.5616,-11.4894 -12.3226,-16.6621 -13.1446,-24.6267 -0.6937,-6.721 -0.5023,-7.3729 2.7996,-9.5364 7.1353,-4.6752 25.139,0.3074 47.8258,13.236 5.6688,3.2305 10.3069,5.7044 10.3069,5.4975 0,-0.2069 -5.5435,-4.7985 -12.3187,-10.2037 -15.4365,-12.3147 -30.0425,-25.987 -33.1046,-30.9883 l -2.3434,-3.8276 -9.5884,12.9257 c -10.2142,13.7693 -21.311597,31.0837 -21.311597,33.2509 0,0.7209 1.7016,-0.3195 3.7814,-2.312 l 3.7814,-3.6228 3.768697,5.9623 c 4.1331,6.5388 14.5486,16.2326 34.0018,31.646 17.0365,13.4984 51.2583,38.4757 65.9099,48.1053 32.8884,21.6153 102.041,48.9971 188.0901,74.4761 l 28,8.291 18,0.1333 c 19.5771,0.1447 29.2649,-2.0897 32.11,-7.4057 2.9281,-5.4712 -7.1154,-13.9387 -25.8376,-21.7832 -4.9835,-2.0882 -9.3114,-4.2018 -9.6175,-4.6971 -2.2948,-3.7132 42.2067,9.4331 58.6785,17.3343 18.8018,9.0189 21.2478,15.1261 7.7577,19.3692 -6.5376,2.0564 -10.7855,2.2534 -32.9645,1.5292 -14.003,-0.4574 -27.2599,-1.2244 -29.4599,-1.7048 -8.0122,-1.7494 -1.9731,1.0973 7.4936,3.5324 7.0626,1.8166 16.7333,2.7161 35.2382,3.2772 l 25.5042,0.7733 11.1985,-4.1291 c 18.1826,-6.7041 24.0052,-13.1665 17.3166,-19.2196 -2.8325,-2.5634 -16.4614,-7.8454 -48.0844,-18.6358 l -20.6667,-7.0518 5.8323,-1.0062 c 3.2078,-0.5535 18.9448,-0.2314 34.9711,0.7157 32.8313,1.9401 46.4138,1.0108 70.5123,-4.8244 7.5881,-1.8373 15.1962,-3.4564 16.9071,-3.598 1.7108,-0.1416 3.1105,-0.7267 3.1105,-1.3 0,-0.5733 0.9115,-1.0425 2.0254,-1.0425 1.4128,0 1.82,0.9074 1.3462,3 -0.837,3.6973 -3.3716,24.7194 -3.3716,27.965 0,2.5607 3.3002,3.246 4.7028,0.9766 0.4731,-0.7655 0.2683,-2.1155 -0.455,-3 -1.8959,-2.3186 0.8139,-16.9416 3.1394,-16.9416 2.9591,0 3.1558,1.6796 1.2534,10.7049 -1.0002,4.7456 -2.4916,15.5284 -3.3141,23.9617 -2.9916,30.6731 -4.5842,36.6668 -11.812,44.4524 -6.7986,7.3234 -8.0676,7.5476 -42.7029,7.5476 -19.8868,0 -32.2993,-0.5044 -32.8116,-1.3333 z m 63.2006,-27.4331 c 8.3603,-1.0949 15.7103,-2.3058 16.3333,-2.6909 0.6231,-0.3851 1.1328,-2.2288 1.1328,-4.0973 0,-2.716 -0.4679,-3.2028 -2.3333,-2.4278 -7.1188,2.9582 -15.5258,4.7948 -26.901,5.8772 -13.3073,1.2663 -63.1462,0.7903 -70.099,-0.6693 -2.7551,-0.5784 -3.585,-0.4076 -2.6667,0.5487 0.7333,0.7636 7.9333,2.3086 16,3.4333 8.0667,1.1248 16.1667,2.3224 18,2.6615 5.4356,1.0052 34.1826,-0.4939 50.5339,-2.6354 z m 629.30558,-4.0168 c 75.0159,-16.7029 199.1266,-60.6878 266.852,-94.5725 36.8297,-18.4267 118.733,-66.4353 143.8013,-84.2908 17.5532,-12.5026 29.5072,-25.1816 29.5072,-31.2968 0,-1.8528 -1.9612,-0.4237 -7.2329,5.2704 -12.1294,13.1011 -41.7562,33.2256 -88.8519,60.354 -87.5956,50.4573 -150.8373,78.6073 -262.5819,116.8795 -50.0552,17.1437 -63.937,20.1626 -102.6666,22.3277 -6.2334,0.3484 -11.5568,0.6661 -11.8299,0.706 -0.2732,0.04 0.2539,0.9767 1.1712,2.082 1.4175,1.708 11.4299,5.6017 15.1648,5.8975 0.645,0.051 8.145,-1.4595 16.6667,-3.357 z m 13.2805,-25.174 c 12.9507,-3.2764 31.6467,-8.378 41.5467,-11.3368 15.3296,-4.5814 16.8131,-5.2449 10,-4.4722 -17.0341,1.9316 -23.8381,-0.1819 -20.6408,-6.4115 2.3565,-4.5916 5.9477,-7.2323 18.6408,-13.7076 14.1058,-7.1959 56.994,-24.2317 58.134,-23.0917 0.1773,0.1773 -6.4271,3.7973 -14.6766,8.0445 -8.2494,4.2472 -17.2021,9.5381 -19.8948,11.7577 -8.3693,6.8987 -5.6538,11.7504 6.6831,11.9404 l 6.4209,0.099 -5.3333,2.5229 c -9.1295,4.3187 0.2402,1.7259 28,-7.7482 57.0608,-19.4744 94.794,-34.9562 139.3333,-57.1681 74.3988,-37.1029 146.4302,-83.1063 162.4116,-103.7255 3.1598,-4.0767 5.4243,-7.4122 5.0324,-7.4122 -0.392,0 -11.0772,7.6802 -23.745,17.0671 -39.6046,29.3471 -69.272,49.4634 -94.0198,63.7509 -13.5238,7.8076 -54.2598,28.5333 -55.9968,28.4901 -0.5586,-0.014 5.4854,-3.5884 13.4312,-7.9433 22.8556,-12.5264 31.4192,-20.188 28.2666,-25.289 -1.1026,-1.7839 -12.7467,-1.8374 -17.3695,-0.08 -1.9231,0.7312 -3.1617,0.7877 -2.7525,0.1258 1.1754,-1.902 23.1261,-9.4551 27.4782,-9.4551 3.2286,0 3.9303,0.5555 3.9303,3.1111 0,1.7112 0.3501,3.4613 0.7781,3.8893 2.2532,2.2532 23.0534,-14.7038 21.3724,-17.4235 -1.4765,-2.3892 -11.5717,-1.8906 -20.9745,1.0359 -4.6172,1.437 -8.562,2.4457 -8.7663,2.2414 -0.5065,-0.5065 34.5558,-17.3084 43.2652,-20.7329 10.999,-4.3246 27.3708,-8.2755 28.7164,-6.9299 0.7083,0.7083 -1.2856,3.0258 -4.878,5.6699 -8.5853,6.319 -7.6853,7.684 1.044,1.5837 10.2228,-7.1438 13.9155,-14.0663 9.471,-17.7548 -2.9338,-2.4348 -12.2536,0.2144 -27.695,7.8723 -7.15,3.5459 -12.9796,6.07 -12.9546,5.609 0.025,-0.461 7.3178,-5.9381 16.2066,-12.1715 8.8887,-6.2333 25.6366,-17.9974 37.2175,-26.1423 11.5808,-8.145 22.8879,-15.5678 25.1267,-16.4951 2.2388,-0.9274 4.0544,-2.0633 4.0346,-2.5243 -0.02,-0.4611 -1.7845,-2.9383 -3.9218,-5.5049 l -3.886,-4.6667 -5.7448,5.4708 c -10.3486,9.8548 -47.5547,35.9121 -76.1219,53.3117 -3.5073,2.1363 -11.3067,7.0342 -17.3319,10.8842 -6.0253,3.85 -11.4809,7 -12.1236,7 -0.6428,0 4.7567,-4.5 11.9987,-9.9999 49.5581,-37.6367 64.6857,-50.1117 72.0463,-59.4132 4.6046,-5.8189 13.2878,-22.1977 12.2946,-23.1909 -0.3033,-0.3034 -3.8393,3.4585 -7.858,8.3595 -13.2657,16.1791 -25.4406,29.578 -26.8758,29.578 -0.7774,0 -0.3963,-1.5521 0.8466,-3.449 1.243,-1.897 2.0566,-3.6524 1.808,-3.9009 -0.2485,-0.2486 -5.2465,3.7111 -11.1065,8.7993 -37.5108,32.5699 -93.3383,62.6807 -156.6547,84.4926 -73.5023,25.3209 -188.7149,52.7247 -221.6682,52.7247 -7.7729,0 -4.8791,1.8096 7.6682,4.7952 7.6835,1.8282 15.5884,2.5381 28.2644,2.5381 9.6787,0 17.1787,0.3983 16.6666,0.8849 -0.512,0.4868 -5.731,2.3871 -11.5976,4.223 -9.2664,2.8997 -10.021,3.3524 -5.7484,3.4484 6.4357,0.1445 39.8912,-5.6284 61.511,-10.6139 27.717,-6.3916 25.7539,-5.3445 -16.3643,8.7287 -36.7934,12.294 -50.5579,15.7168 -72.7317,18.0856 -17.6999,1.8909 -23.6636,0.6804 -31.4921,-6.392 l -5.3409,-4.8254 0.9248,3.8971 c 0.5087,2.1433 1.8962,6.8969 3.0832,10.5636 l 2.1584,6.6667 15.15,0.3784 c 19.9597,0.4985 34.3007,-2.094 57.3652,-10.3706 10.2275,-3.67 19.6956,-7.0124 21.0401,-7.4274 1.3446,-0.4151 -5.3553,3.3373 -14.8887,8.3385 -20.835,10.9301 -28.3043,15.8392 -29.4125,19.3305 -1.3175,4.1512 -0.039,4.1251 6.9082,-0.1409 5.5621,-3.4155 36.5043,-15.4353 36.5043,-14.1805 0,0.239 -4.0723,2.8541 -9.0497,5.811 -10.6359,6.3187 -14.0419,11.0715 -10.487,14.6336 1.2591,1.2618 4.1607,2.9276 6.4481,3.702 3.763,1.274 1.8878,1.8738 -19.7097,6.3032 -13.1275,2.6923 -27.9852,5.582 -33.017,6.4215 -6.0746,1.0133 -8.5387,1.9127 -7.3333,2.6764 4.1798,2.6483 17.9792,1.0415 40.9353,-4.7663 z m 79.6658,-35.1833 c -1.6123,-2.6089 23.1007,-16.4369 49.2142,-27.5376 2.9333,-1.2469 7.2833,-3.1124 9.6667,-4.1457 7.1384,-3.0947 4.9542,-1.2302 -6.0466,5.1617 -12.1448,7.0567 -15.0741,9.8545 -11.6806,11.1568 2.2812,0.8753 14.6868,-0.037 20.7272,-1.5241 8.5389,-2.1024 -2.4011,2.3324 -23.0718,9.3526 -22.3277,7.5831 -37.0172,10.4356 -38.8091,7.5363 z m -719.76708,-28.6752 c 13.5706,-3.7756 22.9813,-11.5525 22.9813,-18.9914 0,-2.072 -0.2062,-2.0881 -2.3333,-0.1827 -3.6191,3.242 -16.04,8.3157 -26.3334,10.757 -16.4737,3.9071 -27.4598,5.1747 -52.6666,6.0768 -26.2272,0.9386 -26.0672,1.193 2.6666,4.2386 14.4907,1.5358 47.3708,0.415 55.6854,-1.8983 z m 646.77518,-19.0999 c 2.0135,-0.7967 -6.5346,-1.0375 -24,-0.6762 -17.8536,0.3694 -29.0427,0.042 -32.7304,-0.9578 -5.4488,-1.4771 -5.7925,-1.9129 -12.4735,-15.818 -6.4426,-13.4088 -41.255,-88.5178 -50.4478,-108.8428 -2.2912,-5.0657 -4.4363,-8.9399 -4.7669,-8.6093 -0.3306,0.3306 5.9974,17.3753 14.0622,37.8771 8.0649,20.5018 16.9977,43.276 19.8507,50.6093 13.699,35.211 16.3066,41.4648 18.0041,43.179 4.3019,4.3443 14.0277,5.4963 42.041,4.98 15.0334,-0.2772 28.7406,-1.0607 30.4606,-1.7413 z m -612.59068,-45.8688 c 3.1723,-8.3686 11.5111,-32.0156 18.5307,-52.5489 36.2214,-105.9522 59.2587,-173.0279 70.9019,-206.439 7.1119,-20.4081 12.675,-37.36127 12.3626,-37.67373 -1.2515,-1.25152 -51.4168,129.81303 -72.8603,190.35873 -13.6848,38.6389 -26.9798,80.7242 -32.8605,104.0195 -2.536,10.046 -4.6109,18.716 -4.6109,19.2667 0,3.2594 3.5111,-3.726 8.5365,-16.9833 z m -153.8699,7.4253 c 0,-1.2676 -58.2275,-27.7892 -92.6666,-42.2079 -35.7471,-14.9664 -115.7287,-42.482 -117.7142,-40.4966 -0.2159,0.2159 11.4815,4.3136 25.9942,9.1059 25.5529,8.4381 65.7683,23.0194 74.2389,26.9175 2.2813,1.0499 7.1477,3.0657 10.8144,4.4797 18.1497,6.9989 59.6114,25.1011 88.6667,38.7117 8.7955,4.1202 10.6666,4.7323 10.6666,3.4897 z m -282.6666,-27.8955 c 0,-0.3234 -0.6,-0.9588 -1.3334,-1.412 -0.7333,-0.4533 -1.3333,-0.1887 -1.3333,0.5879 0,0.7766 0.6,1.4121 1.3333,1.4121 0.7334,0 1.3334,-0.2646 1.3334,-0.588 z m 179.3333,-11.412 c -0.4532,-0.7334 -1.724,-1.3334 -2.824,-1.3334 -1.1723,0 -1.6063,-0.6371 -1.0487,-1.5393 0.5862,-0.9484 0.3661,-1.1776 -0.5731,-0.5972 -0.8384,0.5182 -10.3811,-2.332 -21.206,-6.3339 -60.4027,-22.3303 -139.9114,-45.8283 -150.7749,-44.56 -4.4992,0.5252 -4.8035,0.247 -12.4261,-11.3615 -7.2376,-11.0223 -7.8139,-12.4638 -7.8139,-19.5453 0,-4.2049 1.1677,-11.0392 2.5949,-15.1874 3.9038,-11.3466 1.1656,-9.0663 -4.9529,4.1246 -8.59,18.5193 -8.6308,21.6068 -0.4238,32.0582 3.4167,4.351 17.9573,16.8583 26.6028,22.8827 4.3952,3.0627 4.456,3.068 2.9531,0.2598 -0.844,-1.577 -2.1134,-2.8673 -2.821,-2.8673 -0.7075,0 -1.2864,-0.6085 -1.2864,-1.3523 0,-0.7437 2.25,0.089 5,1.8508 4.2005,2.6909 7.319,3.3332 19.5023,4.0166 26.4891,1.4859 65.3374,11.1866 115.4977,28.8406 15.0333,5.291 28.2333,10.1323 29.3333,10.7583 2.764,1.573 5.6655,1.5021 4.6667,-0.114 z m 1106.77438,-33.8005 c 41.8728,-20.7369 67.1187,-30.3494 73.9848,-28.1702 6.9049,2.1916 -0.7912,15.4717 -15.4911,26.7308 -5.4641,4.1852 -9.9348,7.8704 -9.9348,8.1892 0,0.761 13.8487,-7.0726 20.743,-11.7333 14.3033,-9.6695 23.7556,-26.4791 17.3542,-30.8623 -4.6236,-3.166 -21.3273,1.8049 -57.1433,17.0054 -21.2965,9.0384 -65.9065,33.9742 -60.7795,33.9742 0.3892,0 14.4592,-6.8102 31.2667,-15.1338 z M 244.97222,1208.5278 c -0.4431,-0.4431 -1.5931,-0.4904 -2.5556,-0.1052 -1.0636,0.4256 -0.7477,0.7416 0.8056,0.8055 1.4055,0.058 2.1931,-0.2572 1.75,-0.7002 z m 1287.28338,-29.6495 c 9.6544,-2.5694 19.2168,-6.5236 18.2016,-7.5267 -0.2515,-0.2484 -5.6855,0.9457 -12.0755,2.6537 -14.5205,3.8812 -28.3719,5.5014 -29.6299,3.4658 -0.5001,-0.8091 -0.3788,-1.4711 0.2696,-1.4711 0.6484,0 7.8616,-1.2033 16.0296,-2.6741 14.8118,-2.6671 36.8654,-9.7 38.4483,-12.2611 0.5015,-0.8114 -0.1635,-1.0518 -1.6657,-0.6022 -41.4624,12.4086 -72.2284,14.6702 -94.3363,6.9346 -21.5543,-7.542 -40.1943,-17.2339 -65.996,-34.3149 -8.7837,-5.8149 -14.6745,-8.8896 -16.1403,-8.4244 -1.583,0.5024 -5.3889,-2.1034 -12.116,-8.296 -12.6874,-11.6793 -12.0781,-11.1784 -24.9117,-20.4769 -20.2635,-14.6817 -11.2765,-10.4109 15.3333,7.2867 41.0902,27.3282 72.6483,45.8411 89.8431,52.7045 12.9304,5.1613 35.7679,9.4587 50.2247,9.451 21.0569,-0.011 55.3373,-6.1679 66.9322,-12.021 7.8271,-3.9511 10.039,-7.3492 9.7127,-14.9213 -0.158,-3.6671 -0.9597,-7.4776 -1.7815,-8.4678 -0.8217,-0.9901 -1.1376,-2.3772 -0.7017,-3.0823 1.1673,-1.8889 -7.3077,-26.8081 -14.9183,-43.8635 C 1554.192,1063.2816 1540,1040.631 1540,1046.2982 c 0,1.2806 4.5664,14.1661 11.072,31.2431 4.3196,11.3389 13.825,30.3074 20.1154,40.1408 2.692,4.2082 4.623,7.6513 4.2911,7.6513 -1.4076,0 -20.1052,-26.6568 -23.7241,-33.8229 -5.988,-11.8575 -14.137,-37.5843 -15.55,-49.0926 -1.1287,-9.1921 -3.528,-15.1718 -23.2728,-57.99997 -24.5291,-53.20584 -93.3895,-202.72293 -115.6376,-251.08458 -7.928,-17.23334 -19.4802,-42.43334 -25.6715,-56 -9.6809,-21.21295 -12.3383,-25.82326 -18.9785,-32.92711 -7.039,-7.53039 -15.2318,-19.42335 -15.2879,-22.19263 -0.013,-0.61585 2.3724,1.91051 5.3,5.61412 6.5681,8.30932 10.2129,10.5413 12.8719,7.88236 1.6225,-1.62254 1.4002,-2.98021 -1.6036,-9.79682 -7.0111,-15.90934 -19.0906,-37.67474 -22.4618,-40.4726 -2.5984,-2.15651 -5.2178,-0.53107 -4.3698,2.71166 1.1922,4.55902 -1.5298,1.25374 -3.1603,-3.83756 -2.5675,-8.01682 -11.301,-28.32095 -24.9514,-58.00863 -14.1315,-30.73397 -14.1965,-30.80556 -25.2937,-27.83753 -4.5847,1.22621 -101.1213,43.56409 -125.0208,54.83009 -14.8667,7.00809 -86.7059,39.41734 -148.6666,67.06895 -22.32833,9.96459 -22.40245,10.04868 -23.58109,26.75019 -0.78034,11.0576 -0.73805,11.25756 4.7835,22.61293 3.0639,6.30119 6.5968,11.7538 7.8509,12.11694 1.254,0.36314 4.8333,1.31998 7.9541,2.12633 15.12369,3.90769 44.21939,44.64842 54.29539,76.02598 7.4201,23.107 21.2261,51.47077 33.7478,69.33333 13.4202,19.14432 52.1283,65.82107 60.616,73.09483 2.0167,1.72823 3.6667,3.6902 3.6667,4.35995 0,0.66974 2.003,3.16641 4.451,5.54814 7.0517,6.86063 52.2639,57.34011 67.7686,75.66375 22.4902,26.57918 35.6154,38.49378 72.9754,66.24418 11.4428,8.4995 22.905,17.0302 25.4717,18.9572 2.5666,1.927 7.2275,5.2341 10.3575,7.3492 3.1299,2.115 5.4347,4.1016 5.1218,4.4146 -0.3129,0.3129 -10.9738,-6.8479 -23.6908,-15.913 -22.3878,-15.9587 -34.4224,-23.7336 -36.6926,-23.7051 -1.2414,0.016 34.4425,34.5749 35.7489,34.6223 0.4647,0.017 3.0131,2.4306 5.6632,5.364 2.6501,2.9333 5.2699,5.3382 5.8218,5.3442 0.5519,0.01 5.3127,4.056 10.5794,9 32.7018,30.698 72.0292,60.0237 91.1945,68.0022 13.3009,5.5372 31.2691,10.7098 45.2296,13.0205 16.4301,2.7194 49.4511,1.7633 62.9223,-1.822 z M 1299.2952,537.66668 c -12.9518,-24.4037 -16.4108,-29.50136 -21.9271,-32.3156 -4.053,-2.0677 -5.9618,-2.32799 -9.5419,-1.30124 -6.0165,1.7255 -6.511,1.54838 -2.2037,-0.78934 4.3656,-2.36934 14.4714,-3.788 16.5115,-2.31788 3.4714,2.50151 18.3612,31.49191 24.5924,47.8813 2.4978,6.56964 -0.065,2.72129 -7.4312,-11.15724 z M 139.82112,1144.5913 c 2.9793,-3.7876 6.2469,-13.1124 7.4492,-21.2579 1.1268,-7.6343 -1.3278,-29.9477 -3.8136,-34.6667 -2.9061,-5.5171 -2.6574,-8.0531 1.0777,-10.9911 2.7274,-2.1454 5.0309,-2.4517 15.565,-2.0699 14.5241,0.5265 19.019,-0.6993 24.9435,-6.8023 3.8639,-3.9804 14.9571,-28.2895 14.9571,-32.7765 0,-0.7942 0.7703,-1.7395 1.7118,-2.1008 0.9415,-0.3613 1.8267,-2.0451 1.9672,-3.7417 0.1404,-1.6966 2.8765,-9.9322 6.0802,-18.3012 3.2037,-8.3691 15.579,-40.71651 27.5008,-71.88318 11.9217,-31.16667 28.4482,-74.36667 36.7255,-96 56.2948,-147.12998 67.3478,-177.05781 67.3478,-182.35465 0,-5.27493 -0.5073,-5.95578 -11.533,-15.47898 -8.8089,-7.60847 -14.5565,-11.29596 -24.3334,-15.61166 -18.2725,-8.06585 -49.2883,-18.55472 -54.8666,-18.55472 -5.5876,0 -14.3596,5.25599 -21.4143,12.83096 -14.9007,15.99967 -38.7232,53.47952 -65.1355,102.47761 -6.9608,12.9131 -24.6932,54.918 -35.9731,85.21388 -19.4472,52.2316 -39.629297,120.76303 -45.414697,154.2122 -1.2412,7.17639 -1.139,10.33752 0.573,17.71944 2.6031,11.22424 3.4314,12.80564 19.206697,36.6685 14.2706,21.5866 25.8779,34.7836 38.5423,43.8207 l 8.3854,5.9837 -5.6851,2.8698 -5.685,2.8699 -4.9984,-7.7178 c -2.7492,-4.2447 -8.7885,-11.7531 -13.4207,-16.6853 -4.6323,-4.9321 -12.2423,-14.6591 -16.9113,-21.6156 -4.668997,-6.9564 -11.920397,-16.6446 -16.114297,-21.5292 -8.8482,-10.30556 -17.0119,-24.25535 -18.7675,-32.06922 -1.6564,-7.37209 -0.3736,-13.00864 13.5912,-59.71623 14.4733,-48.40832 19.644597,-63.1402 39.572397,-112.73181 15.1165,-37.6184 20.138,-48.11202 13.0483,-27.26738 -4.8977,14.39986 -1.957,9.86927 6.0587,-9.33414 9.4424,-22.62168 26.2876,-56.11574 41.5829,-82.68119 6.9712,-12.10799 15.2293,-27.10799 18.3512,-33.33334 12.0369,-24.00238 24.8211,-40.16137 36.2988,-45.88096 11.332,-5.64696 13.838,-5.16581 57.042,10.95184 38.8604,14.49723 39.0622,14.55143 44.5084,11.95432 5.1156,-2.43946 12.1978,-12.4442 14.3453,-20.26512 1.1082,-4.03557 1.0855,-7.38652 -0.089,-13.17398 -3.0146,-14.85459 -1.0478,-13.37943 -40.7647,-30.57452 -36.1548,-15.65294 -56.789,-20.63775 -76,-18.36006 -16.4003,1.94445 -27.6607,7.44199 -38.8556,18.97 -14.6584,15.09458 -38.8154,48.60546 -63.6701,88.32392 -13.477,21.53672 -15.8129,25.9265 -12.8076,24.06908 2.4296,-1.50156 1.4016,0.98043 -5.7509,13.88511 -25.316997,45.67704 -69.696697,158.94652 -90.682897,231.44823 -12.7423,44.02116 -13.5152,80.30835 -2.2244,104.43625 6.6488,14.2081 11.9226,20.7866 60.2561,75.163 11.5372,12.9796 21.850097,25.6897 22.917697,28.2448 1.1802,2.8245 3.6808,5.5253 6.3794,6.89 2.4411,1.2345 5.9202,3.5244 7.7314,5.0886 2.1179,1.8292 2.6544,2.0114 1.5034,0.5107 -2.4912,-3.2481 -0.8404,-2.9123 4.9172,1 6.3748,4.3318 11.3273,4.3066 14.7742,-0.075 z m 945.10278,-8.7989 c -1.7981,-3.9192 -8.8113,-18.8257 -15.585,-33.1257 -20.3094,-42.8757 -86.34409,-183.1522 -96.65999,-205.33335 -11.74074,-25.24481 -15.37169,-32.41836 -16.06029,-31.72976 -0.82432,0.82432 31.55649,73.24696 54.42638,121.72976 27.3493,57.97865 75.8704,156.86235 76.6085,156.12425 0.2968,-0.2968 -0.9316,-3.7461 -2.7296,-7.6652 z m 527.2681,-28.1257 c 21.2228,-20.6454 57.8042,-66.7608 78.2888,-98.6926 10.2336,-15.95223 24.6816,-45.48605 27.5458,-56.30741 5.1791,-19.56698 3.709,-42.06855 -4.4861,-68.66667 -11.1595,-36.21967 -40.1012,-105.98387 -65.4924,-157.8698 -10.0287,-20.49329 -17.1129,-32.06817 -47.0031,-76.79687 -63.235,-94.6277 -66.2801,-98.35501 -89.329,-109.34305 -15.6239,-7.44832 -25.7984,-9.75781 -39.6656,-9.00365 -14.9298,0.81195 -22.1902,3.44236 -60.0504,21.75572 -22.3747,10.82283 -33.7038,15.56652 -39.624,16.5912 -25.3172,4.38198 -30.2491,9.61018 -24.4988,25.97066 4.1257,11.73865 13.4562,27.31166 16.8781,28.17052 1.8489,0.46404 6.7097,-1.18068 13.406,-4.53616 5.7779,-2.8953 18.3053,-8.56874 27.8387,-12.60766 9.5333,-4.03892 26.7662,-11.33288 38.2953,-16.20878 33.8257,-14.30563 41.8193,-14.64007 54.7984,-2.29272 14.0913,13.4056 35.6461,43.93433 61.7823,87.50392 25.7869,42.98772 50.7734,92.64181 73.4689,146 22.4529,52.78799 31.3065,81.27814 31.5288,101.45755 0.1227,11.11327 -0.063,11.83444 -6.1787,24 -9.7036,19.30371 -18.2485,33.20912 -20.4072,33.20912 -1.0749,0 -1.9545,0.91711 -1.9545,2.03803 0,3.21217 -6.8172,15.90819 -19.358,36.05155 -21.0197,33.7623 -28.594,42.5681 -39.8225,46.2972 -3.7467,1.2444 -5.6147,2.6904 -5.8916,4.5606 -0.2231,1.5061 2.7001,8.6573 6.4957,15.8914 10.8319,20.6441 18.4668,31.1612 22.6216,31.1612 1.236,0 6.102,-3.75 10.8135,-8.3333 z m -38.7243,-65.1788 c 6.6227,-2.2096 11.3781,-7.1769 32.1925,-33.6269 32.1242,-40.82171 49.7978,-70.08726 49.5404,-82.03369 -0.2068,-9.5962 -25.0805,-76.56809 -49.8282,-134.16063 -25.6451,-59.68076 -49.1315,-103.15561 -74.6371,-138.15797 -4.0711,-5.58688 -12.6983,-18.01807 -19.1715,-27.62486 -6.4732,-9.6068 -15.6544,-21.37096 -20.4026,-26.1426 -10.2108,-10.26116 -16.2023,-12.75237 -25.0067,-10.39756 -3.088,0.82591 -26.4756,11.84284 -51.9725,24.48206 -38.7852,19.22642 -46.6882,23.61866 -48.3786,26.88761 -1.1112,2.14896 -1.6714,5.29791 -1.2448,6.99768 0.4267,1.69976 20.1919,45.28513 43.923,96.85639 23.731,51.57125 63.9913,139.06592 89.4673,194.43259 25.4761,55.36672 46.5529,100.91008 46.8376,101.20748 2.3869,2.4951 22.3671,3.387 28.6812,1.2804 z M 270.45822,962.78257 c 15.3192,-4.62146 20.2084,-5.76655 20.2084,-4.73298 0,0.42187 -2.7142,1.96766 -6.0315,3.43507 -11.6623,5.15877 -2.3728,7.14324 11.5239,2.4618 8.933,-3.00931 77.8143,-37.08423 76.8711,-38.0274 -0.3261,-0.32607 -14.0412,3.85564 -30.4781,9.29267 -16.437,5.43702 -34.8769,10.88661 -40.9777,12.1102 -10.7599,2.15801 -11.4916,2.13922 -24.4101,-0.6267 -10.823,-2.31726 -14.165,-2.57174 -17.841,-1.35856 -4.2044,1.38758 -12.6566,9.32442 -12.6566,11.88487 0,1.49731 8.1719,9.44515 9.7114,9.44515 0.6629,0 6.9989,-1.74786 14.0802,-3.88412 z m 47.2431,-24.84726 c 15.8419,-2.78528 29.0287,-6.79836 50.2987,-15.3072 71.1893,-28.47857 144.1201,-69.24976 187.3333,-104.72667 28.66,-23.52913 38.9128,-31.53824 98,-76.55376 81.5095,-62.09796 137.3348,-105.87311 137.3316,-107.68808 0,-1.09835 -17.8543,-8.23101 -95.9983,-38.35481 -156.3948,-60.28875 -264.752,-98.05669 -276.4998,-96.37411 -2.2987,0.32921 41.9992,17.19297 62.2558,23.70021 2.7992,0.89919 4.8243,1.89992 4.5004,2.22385 -0.3239,0.32394 -7.7141,-1.57744 -16.4227,-4.22525 -17.224,-5.23695 -38.8354,-10.55373 -48.7912,-12.00347 -5.8044,-0.84522 -6.6035,-0.60345 -10.3333,3.1264 -4.9028,4.90274 -4.9534,4.6231 -0.6867,-3.79673 1.8457,-3.64229 2.8957,-6.61825 2.3333,-6.61324 -3.2556,0.0291 -12.0411,19.67992 -22.3496,49.99089 -2.7435,8.06667 -5.8727,16.58961 -6.9538,18.93986 -1.588,3.45185 -1.6858,5.57876 -0.5091,11.06564 2.0539,9.57713 1.81,19.64667 -0.6804,28.08584 -4.7257,16.01413 -25.5986,55.28404 -28.0708,52.81188 -0.2985,-0.29852 1.8202,-4.97385 4.7083,-10.38965 4.3826,-8.21836 15.0734,-39.10412 18.009,-52.02767 1.0148,-4.46789 -1.7476,-7.20127 -4.8477,-4.79663 -2.9675,2.30174 -8.995,17.36628 -8.995,22.48107 0,2.33788 -3.017,11.71919 -6.7045,20.84736 -3.6874,9.12816 -7.1911,19.98344 -7.786,24.12283 -0.998,6.94461 -9.5037,29.87869 -62.8733,169.52615 -9.669,25.3 -22.2724,58.3 -28.0075,73.33333 -5.7352,15.03334 -10.837,28.38334 -11.3375,29.66667 -0.6195,1.58873 -0.2724,2.33333 1.0875,2.33333 2.264,0 1.3926,2.06778 48.041,-114 62.4807,-155.4609 64.8378,-160.9968 65.994,-154.99484 0.2478,1.28616 -22.994,62.0202 -51.6483,134.96451 -28.6543,72.9443 -52.0987,133.51675 -52.0987,134.60543 0,1.53409 2.3247,2.09957 10.3333,2.51354 15.1838,0.78487 39.4387,-0.38929 51.368,-2.48668 z m 516.1089,-216.29965 c 11.471,-30.26709 20.8564,-55.56374 20.8564,-56.21482 0,-2.99821 -9.0601,-8.24029 -19.6767,-11.38467 -6.4111,-1.89884 -14.8066,-4.56461 -18.6566,-5.92394 -3.85,-1.35934 -6.9965,-2.09068 -6.9923,-1.6252 0,0.46548 6.0292,4.44125 13.3888,8.83505 18.4587,11.02015 21.7797,14.2106 20.7126,19.89853 -0.6542,3.48742 -28.04,89.71715 -32.2183,101.44607 -0.6357,1.78442 -0.5067,2.22554 0.3898,1.33334 0.7369,-0.73334 10.7252,-26.0973 22.1963,-56.36436 z m 61.0037,21.26576 c -10.1002,-23.51503 -17.4806,-45.44639 -17.4806,-51.94515 0,-3.15946 1.2464,-6.83812 3.3814,-9.98008 4.2081,-6.19275 1.9384,-6.60824 -5.7348,-1.04983 -5.8906,4.26716 -7.6734,7.7882 -6.2362,12.31661 0.508,1.6003 5.2363,11.9503 10.5074,23 5.2712,11.04971 12.5014,26.23509 16.0671,33.74527 3.5657,7.51019 6.7179,13.42003 7.005,13.13298 0.2871,-0.28707 -3.0921,-8.93598 -7.5093,-19.2198 z m 15.85273,-78.73407 c 10.08937,-3.84702 45.85581,-21.42264 45.11093,-22.16751 -0.66444,-0.66444 -57.01636,24.29495 -59.02096,26.14157 -1.4979,1.37979 3.9529,-0.17749 13.91003,-3.97406 z m -49.28093,-27.46158 c 18.2913,-3.75549 39.9371,-11.59793 59.54322,-21.57293 40.277,-20.49171 61.36277,-33.1618 77.16637,-46.36801 4.45239,-3.72064 22.70199,-18.46482 40.55469,-32.76482 54.8712,-43.95172 65.3395,-52.91981 85.3693,-73.13495 10.644,-10.74245 28.1575,-27.84833 38.9189,-38.01306 17.6844,-16.70392 19.4137,-18.73507 17.9806,-21.11943 -1.4022,-2.33304 -0.7889,-3.35656 5.3039,-8.85198 9.5498,-8.61358 23.7471,-18.46248 22.7071,-15.75234 -1.1344,2.9562 -13.3178,21.04689 -20.5762,30.5528 -4.4214,5.79047 -8.3164,9.02648 -15.8248,13.14735 -10.4812,5.75238 -10.8199,6.096 -19.5538,19.83828 -7.2384,11.38912 -34.3215,38.41797 -57.5628,57.4474 -10.2233,8.3706 -20.4233,16.94329 -22.6667,19.05044 -4.7502,4.46176 -4.5396,4.34449 15.9211,-8.86516 7.3334,-4.73447 22.0312,-14.16735 32.6619,-20.96196 10.6307,-6.79462 22.8719,-15.08038 27.2027,-18.4128 17.0433,-13.11458 62.9366,-60.20731 84.7223,-86.93665 9.7795,-11.99865 16.8973,-25.36014 23.2307,-43.60866 6.0346,-17.38752 9.6458,-32.88806 10.8049,-46.37928 0.5041,-5.86667 2.6195,-21.16667 4.7009,-34 8.0213,-49.45634 8.1772,-59.60821 1.2357,-80.45898 -3.7155,-11.16087 -12.8589,-27.42653 -17.6087,-31.32536 -1.8954,-1.55583 -2.2878,-1.33027 -3.0637,1.76121 -1.2954,5.1614 0.1658,13.57096 4.7998,27.62336 5.7876,17.55087 7.2701,34.63947 5.3985,62.22969 -1.4157,20.86937 -2.7516,29.58869 -2.7516,17.95882 0,-8.85112 -4.8482,-32.96283 -13.2509,-65.90173 -10.9227,-42.8171 -13.4074,-50.17676 -20.5857,-60.97445 -6.2797,-9.44607 -22.3555,-25.66956 -23.1309,-23.34341 -0.2322,0.69664 1.6387,5.72857 4.1576,11.18206 5.8469,12.65881 14.7207,39.4603 17.5033,52.86502 1.5196,7.32048 2.3046,19.824 2.6612,42.38376 0.3239,20.49455 0.093,29.60303 -0.641,25.33334 -0.6307,-3.66667 -1.2027,-10.86667 -1.2712,-16 C 1225.3739,218.2 1224.6993,210.4 1223.9432,206 c -0.756,-4.4 -1.8788,-15.5 -2.495,-24.66666 -1.0276,-15.28435 -1.6965,-18.27015 -8.066,-36 -12.9727,-36.11046 -19.3311,-46.437432 -35.0141,-56.867911 -15.4897,-10.301857 -72.527,-39.132095 -77.4185,-39.132095 -0.8733,0 2.6058,2.813204 7.7313,6.251564 31.931,21.420428 71.7577,57.296462 84.2041,75.851432 13.1156,19.55273 22.8429,41.92262 26.6253,61.23034 2.5962,13.25307 3.3679,52.31324 1.317,66.66667 -1.7579,12.30285 -3.0088,5.88499 -3.8982,-20 -1.1889,-34.59938 -6.2443,-60.06394 -15.6442,-78.80039 -5.5423,-11.0474 -21.8991,-33.85885 -25.0194,-34.89249 -0.954,-0.31602 3.0111,6.60793 8.8114,15.38656 20.1707,30.52798 26.4903,58.34197 25.3346,111.50425 l -0.5826,26.80207 -5.0469,11.33333 c -2.7758,6.23334 -8.2202,18.23334 -12.0986,26.66667 -3.8783,8.43333 -9.4891,22.04924 -12.4684,30.25756 -6.8905,18.98444 -8.9349,22.92015 -18.2359,35.10675 -18.8749,24.73069 -58.9795,59.32909 -98.391,84.88227 -10.7891,6.99533 -13.5265,9.46644 -15.6374,14.11656 -3.5567,7.83513 -3.412,9.20629 0.8027,7.60386 6.5603,-2.49422 7.247,-1.89058 7.2416,6.36634 -0.01,9.455 -2.6334,14.14104 -12.142,21.65716 -7.3769,5.8311 -14.3844,9.92258 -15.3466,8.96042 -0.3184,-0.31848 1.6873,-2.255 4.4573,-4.30337 10.8904,-8.05343 13.7029,-11.52399 13.7029,-16.90911 0,-6.24588 -1.1425,-6.36292 -4.9355,-0.50561 -3.9387,6.08227 -10.0286,10.49656 -20.08,14.55517 -4.5919,1.85415 -11.9419,5.5538 -16.3333,8.22146 -6.87359,4.17546 -7.98449,5.40077 -7.98449,8.80686 0,7.28575 -5.4694,15.0416 -22.47317,31.86779 -19.46573,19.2625 -30.6729,27.98862 -46.73522,36.38895 -18.77087,9.81688 -69.3959,28.71268 -86.5315,32.29792 -4.6894,0.98115 -8.9162,2.20779 -9.3931,2.72587 -1.2876,1.39893 17.765,-0.37959 29.1854,-2.72442 z M 1258.2444,276.00001 c 0.4363,-3.3 1.0098,-6.25 1.2745,-6.55556 1.003,-1.15818 0.2404,7.34241 -0.8871,9.88889 -0.7884,1.78061 -0.9171,0.67305 -0.3874,-3.33333 z M 927.00796,587.74464 c 23.36006,-10.02592 30.00959,-13.93979 39.17775,-23.05977 6.41614,-6.38244 9.62834,-11.15581 14.8589,-22.08046 3.6702,-7.66576 7.7866,-14.92303 9.1476,-16.12725 1.3609,-1.20424 9.6744,-5.7919 18.47439,-10.19479 8.8,-4.40289 17.417,-9.52752 19.1488,-11.38805 1.9096,-2.05155 4.3533,-7.89583 6.2096,-14.85054 4.1566,-15.57264 7.0493,-18.93088 23.5742,-27.36793 7.5538,-3.85667 17.8629,-9.78645 22.9093,-13.17732 5.0463,-3.39085 14.3463,-9.46519 20.6666,-13.49852 10.7395,-6.85339 11.7847,-7.93248 15.971,-16.48796 2.4914,-5.0918 5.0789,-13.0802 5.8301,-18 2.0684,-13.54522 3.2478,-15.72886 10.8493,-20.08703 16.0695,-9.21316 29.9022,-27.41428 47.248,-62.16905 12.0435,-24.13095 12.4292,-25.30058 16.2419,-49.25596 1.5173,-9.53334 3.6296,-21.23334 4.6939,-26 5.1279,-22.96611 -1.108,-59.73006 -15.2928,-90.15845 -10.3126,-22.12217 -20.8955,-33.90764 -50.1007,-55.793792 -8.772,-6.57373 -21.0492,-16.85228 -27.2825,-22.841222 -14.1534,-13.598541 -18.2101,-15.794334 -28.6667,-15.51685 -4.4,0.11676 -16.7,-1.030167 -27.3333,-2.548731 -12.1047,-1.728699 -22.6001,-2.495405 -28.0705,-2.050608 -16.2454,1.320914 -33.22759,10.113516 -54.66983,28.305486 -11.7146,9.938875 -27.92632,27.176387 -27.92632,29.693347 0,0.76942 2.85,3.6548 6.33333,6.41194 11.42508,9.04325 17.83351,15.69183 24.33551,25.24749 10.20362,14.99572 15.52082,18.68006 33.63241,23.30444 8.1394,2.07821 15.5633,8.51592 16.8521,14.61361 0.5426,2.56667 0.3962,10.8754 -0.3251,18.46384 -1.5188,15.97813 -0.1424,23.51887 5.5827,30.58336 8.4734,10.45595 9.5752,12.48734 8.1835,15.0877 -0.7371,1.37729 -3.171,3.45093 -5.4087,4.60809 -2.7,1.39624 -3.808,2.78303 -3.2938,4.12285 0.4261,1.11042 0.7747,6.10254 0.7747,11.0936 0,8.12524 0.4706,9.75883 4.4983,15.61406 6.3948,9.29632 9.9726,16.72265 10.9064,22.63748 1.6163,10.23933 -9.123,19.5033 -22.6094,19.5033 -13.9291,0 -18.1286,-5.95132 -18.1286,-25.69089 0,-21.03605 -1.539,-23.20704 -23.15839,-32.66784 -21.86379,-9.56779 -30.65639,-21.06836 -39.46203,-51.61567 -9.00109,-31.22537 -23.7383,-63.73988 -28.89012,-63.73988 -1.00254,0 -1.82281,0.21749 -1.82281,0.48331 0,1.42066 -6.79903,32.97576 -8.08353,37.51669 -2.39,8.4488 -12.0582,31.6386 -14.8687,35.66348 -5.2589,7.53116 -12.6199,5.71295 -15.7928,-3.90088 -1.3473,-4.08241 -1.1469,-5.11812 1.8393,-9.50544 5.7535,-8.45299 6.5326,-13.76493 7.1753,-48.92383 l 0.6093,-33.33333 -10.4805,-4.35052 c -5.7643,-2.39278 -18.262,-8.60221 -27.7728,-13.79874 -37.546,-20.514575 -59.8513,-30.321052 -88.6256,-38.964015 -27.1601,-8.158115 -35.7179,-9.502322 -60.6666,-9.529082 -30.3238,-0.03252 -41.7143,2.574975 -78.6667,18.008223 -39.4066,16.458262 -59.3134,27.116164 -64.6527,34.614454 -6.8264,9.58686 -13.3591,47.27117 -13.3234,76.85747 0.032,26.5714 2.9212,45.31322 10.7646,69.82888 4.7052,14.70684 25.4694,57.9548 34.0145,70.84597 3.225,4.8653 5.8637,9.77988 5.8637,10.92132 0,1.14143 0.6612,2.48399 1.4693,2.98346 0.8082,0.49946 2.3252,2.95628 3.3711,5.45957 1.8967,4.53944 12.4495,19.63489 15.6282,22.3556 0.9215,0.78875 6.1016,6.53408 11.5114,12.76741 14.5888,16.80977 37.6695,40.1249 52.02,52.54842 41.0837,35.56708 146.7226,108.08199 197.4353,135.52772 9.8439,5.32754 22.098,11.97546 27.2313,14.77316 5.1334,2.79772 10.43132,5.10115 11.77327,5.11874 1.34196,0.0176 9.69759,-3.08295 18.56807,-6.89007 z m 113.16214,-273.9501 c 3.12,-3.76033 2.0289,-13.03619 -2.284,-19.41685 l -3.8602,-5.71102 -0.7034,6.66667 c -0.8804,8.34461 -1.5906,9.44163 -7.3411,11.33947 -3.0676,1.0124 -4.6481,2.36781 -4.6481,3.98616 0,4.78421 15.3489,7.33921 18.8368,3.13557 z m -20.8368,-39.4562 c 1.4667,-0.0595 3.7167,0.35435 5,0.91948 1.9722,0.86844 2.3333,0.309 2.3333,-3.61419 0,-2.55293 -0.8619,-7.08462 -1.9153,-10.07042 -1.801,-5.10446 -1.7412,-5.65126 1,-9.15352 1.6034,-2.04863 3.9653,-4.78112 5.2487,-6.07223 3.3657,-3.38608 2.9271,-5.25364 -2.4471,-10.41923 -2.6292,-2.52719 -5.7026,-6.35703 -6.8298,-8.51073 -2.896,-5.53378 -3.8055,-24.38158 -1.7118,-35.47762 1.7129,-9.07774 1.6908,-9.25148 -1.8601,-14.61712 -4.4583,-6.73708 -7.6587,-7.98942 -20.41669,-7.98942 -11.9615,0 -20.01686,2.12385 -21.982,5.79573 -2.12313,3.96711 1.18455,5.66676 12.9661,6.66268 5.5444,0.46867 11.1878,1.44459 12.54079,2.16871 3.4309,1.83616 5.4679,8.3341 6.2821,20.03954 0.5348,7.68906 1.9372,12.89303 6.0683,22.51878 l 5.3728,12.51877 -5.3856,10.1479 c -6.1915,11.66641 -7.7106,17.92204 -5.6612,23.31254 1.2545,3.29936 1.929,3.68062 5.0885,2.87598 2.0033,-0.51019 4.8423,-0.97622 6.309,-1.03563 z M 1000,262.66667 c 1.8323,-1.83236 2.6651,-4.43956 2.6617,-8.33333 l -0.01,-5.66667 -2.6421,4.33334 c -3.22569,5.29053 -4.70379,5.42721 -7.20909,0.66666 -1.0613,-2.01666 -5.0279,-6.66666 -8.8147,-10.33333 -9.48344,-9.1825 -24.94598,-40.66983 -27.30968,-55.61238 -0.75036,-4.74352 -2.2821,-7.01584 -8.96525,-13.29985 -7.1253,-6.69975 -7.96192,-8.0144 -7.21238,-11.33333 3.10664,-13.75608 2.2455,-16.20036 -6.75402,-19.17047 -6.32279,-2.08671 -6.83076,-0.83424 -1.92688,4.75097 5.04804,5.7494 5.16789,7.32298 0.8441,11.08246 -1.83333,1.59406 -3.33333,3.3662 -3.33333,3.93808 0,0.57188 3.6,8.16228 8,16.86753 4.87025,9.63565 8,17.5162 8,20.14363 0,4.25682 4.76957,18.43056 8.87093,26.36169 1.15791,2.23916 6.08564,8.36224 10.95051,13.60684 4.86488,5.24462 10.55858,11.78707 12.65269,14.5388 7.27281,9.55676 16.86951,12.78239 22.19251,7.45936 z M 530.28282,117.33334 c 9.0515,-19.513462 35.476,-50.211912 51.4545,-59.777075 21.2468,-12.718872 55.9127,-21.240076 75.9137,-18.660338 4.5919,0.592267 11.349,0.7555 15.0156,0.36274 20.3489,-2.179697 37.4353,-8.443784 23.6667,-8.676514 -4.7772,-0.08075 -4.8515,-0.149096 -1.6667,-1.533827 2.0336,-0.884169 18.7403,-1.690987 42.8448,-2.069092 41.4585,-0.650324 73.7276,0.964996 89.1974,4.465024 8.3839,1.896856 26.1443,11.118754 45.6245,23.690094 9.0875,5.8645 9.9376,4.631873 1.9093,-2.768376 C 858.19892,37.577482 826.40352,23.0016 795.78122,16.39713 786.25972,14.343587 777.88222,14 737.33332,14 h -47.3333 l -23.3334,4.386898 c -37.8233,7.111151 -73.4638,20.394771 -91.6002,34.140391 -10.2957,7.803167 -23.0923,21.539181 -35.8946,38.529805 -9.0275,11.980776 -11.9118,17.048346 -8.5052,14.942906 2.4474,-1.51252 1.3739,1.8435 -2.5878,8.09038 -4.2657,6.72629 -6.4349,18.01205 -4.655,24.21878 0.9103,3.1743 1.183,2.5712 1.9486,-4.30916 0.4896,-4.4 2.6993,-11.9 4.9104,-16.66666 z m 352.1145,-1.51448 c 1.0507,-8.751 -3.2615,-12.70166 -31.4699,-28.831376 -19.8463,-11.348222 -32.6966,-16.542317 -63.5941,-25.704855 -42.3989,-12.573224 -78.0328,-16.98684 -103.3333,-12.798872 -21.9785,3.638063 -46.959,13.048602 -74.3169,27.996286 -16.2522,8.87978 -20.642,13.042395 -6.0165,5.705012 23.5652,-11.822204 55.7112,-21.086946 82.3262,-23.727047 25.9513,-2.574265 42.9058,-0.07732 84.6738,12.470123 22.5473,6.773373 39.2014,13.91942 78,33.468639 16.8667,8.4985 31.2667,15.28961 32,15.09137 0.7334,-0.19825 1.5121,-1.84943 1.7307,-3.66928 z M 499.00002,1469.7258 c -6.3654,-1.2262 -2.3149,-5.071 4.8348,-4.5894 5.7386,0.3864 6.9163,1.092 5.9643,3.573 -0.728,1.897 -4.4217,2.2446 -10.7991,1.0164 z m -82.1395,-52.5698 c -13.1283,-1.5421 -35.7659,-8.9277 -48.8605,-15.9408 -5.5,-2.9456 -8.8,-4.9365 -7.3334,-4.4244 27.5888,9.6342 59.1127,12.8103 61.6451,6.211 1.3093,-3.4119 -7.852,-10.273 -24.6923,-18.4926 -8.3431,-4.0721 -14.8905,-7.6826 -14.5498,-8.0233 2.647,-2.6469 72.1061,29.1481 73.9023,33.8288 2.1212,5.5277 -19.6639,9.2433 -40.1114,6.8413 z m 186.3676,-37.6161 c -0.4727,-1.2316 -0.4447,-5.0043 0.062,-8.3837 1.1623,-7.7511 3.9215,-5.9107 3.5959,2.3985 -0.2458,6.2735 -2.274,9.592 -3.658,5.9852 z m -199.8948,-7.716 c -62.0853,-14.1249 -114.6201,-35.7973 -160,-66.0055 -8.0667,-5.3697 -16.1667,-11.0392 -18,-12.5989 -3.767,-3.2046 -5.0688,-3.8865 20,10.4764 53.6267,30.7248 120.3738,57.8891 170.6667,69.4565 6.2333,1.4338 9.8333,2.6086 8,2.6108 -1.8334,0 -11.1334,-1.7704 -20.6667,-3.9393 z m -166.9128,-23.8201 c -14.4751,-8.2267 -29.6025,-18.1514 -35.1176,-23.0399 -8.1344,-7.2102 -10.25,-14.3163 -5.085,-17.0805 3.5725,-1.912 18.0861,-0.8834 26.4487,1.8743 l 6,1.9787 -8.3333,0.1318 c -9.3449,0.1479 -14.0416,3.0768 -12.7646,7.9601 1.1227,4.293 15.0706,16.7232 28.5373,25.432 6.8209,4.4111 13.0375,8.2499 13.8145,8.5307 0.777,0.2809 1.1128,0.8301 0.7461,1.2205 -0.3666,0.3906 -6.7774,-2.7629 -14.2461,-7.0077 z m 9.9802,-5.0038 c -17.8255,-13.6955 -18.5911,-17.7968 -3.2581,-17.4533 5.2382,0.1174 7.6187,0.4521 5.29,0.7438 -9.37,1.1737 -8.6738,5.6969 2.6746,17.3762 3.7409,3.85 6.4575,7 6.0369,7 -0.4206,0 -5.2552,-3.45 -10.7434,-7.6667 z m -71.208,-30 c -25.7212,-19.5456 -35.1927,-30.5559 -35.1927,-40.9102 0,-15.2256 37.772,-2.9309 61.8604,20.1354 l 8.1396,7.7942 -13.0374,-6.209 c -26.8545,-12.7894 -38.282,-7.6187 -24.5094,11.0901 3.1826,4.3233 8.7326,10.3854 12.3333,13.4714 10.5197,9.0158 6.0364,6.5055 -9.5938,-5.3719 z m 367.9817,-936.66666 c -9.6671,-12.27244 -24.2336,-39.5348 -29.0308,-54.33333 -6.6596,-20.54384 -14.4462,-64.32511 -13.9439,-78.40163 0.1498,-4.19767 0.3189,-4.59758 0.6759,-1.59837 6.2559,52.56389 17.1367,85.84685 43.044,131.66666 2.3842,4.21667 4.0781,7.66667 3.7641,7.66667 -0.3139,0 -2.3431,-2.25 -4.5093,-5 z"
     id="path3746"
     inkscape:connector-curvature="0" />
</svg>
