<?xml version="1.0" encoding="UTF-8"?>
<!-- Created with Inkscape (http://www.inkscape.org/) -->
<svg width="3200" height="213.33" version="1.1" viewBox="0 0 3200 213.33" xmlns="http://www.w3.org/2000/svg" xmlns:cc="http://creativecommons.org/ns#" xmlns:dc="http://purl.org/dc/elements/1.1/" xmlns:rdf="http://www.w3.org/1999/02/22-rdf-syntax-ns#">
 <metadata>
  <rdf:RDF>
   <cc:Work rdf:about="">
    <dc:format>image/svg+xml</dc:format>
    <dc:type rdf:resource="http://purl.org/dc/dcmitype/StillImage"/>
    <dc:title/>
   </cc:Work>
  </rdf:RDF>
 </metadata>
 <path d="m18.456 200.24c-0.44513-1.16-0.80932-42.14-0.80932-91.067 0-67.411 0.38753-89.345 1.6-90.558 0.99891-0.99892 5.9522-1.6 13.185-1.6h11.585l0.86811-4.6274c1.1443-6.0997 6.7771-12.706 10.834-12.706 3.6954 0 5.6922 3.1351 7.0454 11.062l0.95678 5.6046 1567.3 0.66808c862.01 0.36745 1567.5 0.81745 1567.7 1 0.2357 0.18256-0.4652 1.2257-1.5576 2.3181-1.6896 1.6896-10.913 2.038-61.762 2.3333l-59.776 0.34714v6.6667l61.333 0.70036c33.733 0.3852 61.526 0.8352 61.762 1 0.2357 0.1648-0.5583 1.2865-1.7644 2.4926-1.9754 1.9754-7.9035 2.1678-59.762 1.9395-47.553-0.20934-58.012 0.0715-60.119 1.6142-1.5744 1.1532-2.228 2.7065-1.7086 4.0605 0.7635 1.9895 6.3552 2.1928 60.312 2.1928 51.085 0 59.752 0.282 61.47 2 1.1 1.1 1.8071 2.1348 1.5714 2.2996-0.2358 0.1648-28.029 0.6148-61.762 1l-61.333 0.70037v6.6667l59.776 0.34714c50.849 0.29529 60.072 0.64376 61.762 2.3333 1.0924 1.0924 1.7933 2.121 1.5576 2.2858-0.2358 0.1648-28.029 0.6148-61.762 1l-61.333 0.70037v6.6667l60.333 0.34692c52.215 0.30024 60.333 0.61237 60.333 2.3197s-8.1182 2.0195-60.333 2.3198l-60.333 0.34692v69.333l62 0.68668c34.1 0.37768 61.1 0.83687 60 1.0204-1.6164 0.26974-1.659 0.54996-0.2216 1.4611 1.4188 0.89931 1.3292 1.2998-0.4423 1.9796-1.2215 0.46872-29.172 0.85221-62.112 0.85221h-59.891v6.6667h59.891c32.94 0 60.825 0.35828 61.966 0.79617 1.773 0.68039 1.8048 1.0662 0.2181 2.6528-1.5208 1.5208-12.672 1.9195-61.632 2.2038l-59.776 0.34714-0.8438 7.3333h59.98c32.989 0 60.913 0.35828 62.054 0.79617 1.773 0.68039 1.8048 1.0662 0.2181 2.6529-1.5208 1.5208-12.672 1.9195-61.632 2.2038l-59.776 0.34713v6.6667l59.776 0.34713c50.849 0.29529 60.072 0.64376 61.762 2.3333 1.0924 1.0924 1.7933 2.121 1.5576 2.2858-0.2358 0.1648-28.029 0.6148-61.762 1l-61.333 0.70036v6.6667l60.333 0.34692c59.225 0.34055 60.333 0.39565 60.333 3 0 2.6471-3.6006 2.6531-1588.5 2.6531-1447.3 0-1588.6-0.18751-1589.3-2.109zm262.52-7.2243v-3.3333l-118-0.37558c-87.383-0.27815-119.49 0.0316-123.74 1.1937-4.3118 1.1789-6.1195 1.1894-7.2667 0.0423-0.83987-0.83991-3.207-1.5271-5.2604-1.5271-3.0222 0-3.7333 0.59258-3.7333 3.1111 0 1.7111 0.40298 3.5141 0.89552 4.0066 0.49253 0.49255 58.543 0.74255 129 0.55556l128.1-0.33996zm214 0v-4h-208v8h208zm214.42-0.33334 0.4219-3.6667h-104.13c-91.33 0-104.22 0.24584-104.9 2-0.42212 1.1-0.42071 2.9037 3e-3 4.0082 0.67882 1.769 13.125 1.9675 104.48 1.6667l103.71-0.34152zm213.58 0.33334v-4h-104.04c-91.252 0-104.14 0.24586-104.81 2-0.42212 1.1-0.42212 2.9 0 4 0.67312 1.7541 13.558 2 104.81 2h104.04zm214.42-0.33334 0.4219-3.6667h-104.13c-91.33 0-104.22 0.24584-104.9 2-0.4221 1.1-0.4207 2.9037 0 4.0082 0.6788 1.769 13.125 1.9675 104.48 1.6667l103.71-0.34152zm214.91 0.33334v-4h-208v8h208zm214.42-0.33334 0.4219-3.6667h-104.13c-91.33 0-104.22 0.24584-104.9 2-0.4221 1.1-0.4207 2.9037 0 4.0082 0.6788 1.769 13.125 1.9675 104.48 1.6667l103.71-0.34152zm214.91 0.33334v-4h-208v8h208zm214.42-0.33334 0.4219-3.6667h-104.13c-91.33 0-104.22 0.24584-104.9 2-0.4221 1.1-0.4206 2.9037 0 4.0082 0.6788 1.769 13.125 1.9675 104.48 1.6667l103.71-0.34152zm214.91 0.33334v-4h-208v8h208zm214.42-0.33334 0.4218-3.6667h-104.13c-91.33 0-104.22 0.24584-104.9 2-0.4222 1.1-0.4207 2.9037 0 4.0082 0.6788 1.769 13.125 1.9675 104.48 1.6667l103.71-0.34152zm214.91 0.33334v-4h-208v8h208zm214.42-0.33334 0.4219-3.6667h-104.13c-91.33 0-104.22 0.24584-104.9 2-0.4221 1.1-0.4207 2.9037 0 4.0082 0.6788 1.769 13.125 1.9675 104.48 1.6667l103.71-0.34152zm214.91 0.33334v-4h-208v8h208zm-3028.4-5.3988c5.1015-1.7784 17.541-13.708 20.731-19.882 3.1166-6.0309 2.1768-11.489-2.9432-17.095-3.5078-3.8406-4.6911-4.2907-11.279-4.2907-7.0062 0-7.5232 0.23948-10.742 4.9762-4.1584 6.1197-4.2594 8.9243-0.41806 11.615 3.8 2.6616 5.4106 2.6133 8.9705-0.26942 3.5306-2.8589 2.5189-6.6566-2.0809-7.811-4.0919-1.027-4.0565-2.838 0.0925-4.7283 2.6256-1.1963 3.9536-1.0517 6.6667 0.72599 2.9819 1.9538 3.3849 3.1351 3.3626 9.8558-0.0333 10.047-5.0204 18.365-13.806 23.026-8.7685 4.6517-7.8487 7.1184 1.4461 3.8782zm1100.4-1.2679c0-0.73333-0.6-1.3333-1.3334-1.3333-0.7333 0-1.3333 0.6-1.3333 1.3333s0.6 1.3333 1.3333 1.3333c0.7334 0 1.3334-0.6 1.3334-1.3333zm429.33 0c0-0.73333-0.6-1.3333-1.3333-1.3333-0.7334 0-1.3334 0.6-1.3334 1.3333s0.6 1.3333 1.3334 1.3333c0.7333 0 1.3333-0.6 1.3333-1.3333zm429.33 0c0-0.73333-0.6-1.3333-1.3333-1.3333s-1.3333 0.6-1.3333 1.3333 0.6 1.3333 1.3333 1.3333 1.3333-0.6 1.3333-1.3333zm429.33 0c0-0.73333-0.6-1.3333-1.3334-1.3333-0.7333 0-1.3333 0.6-1.3333 1.3333s0.6 1.3333 1.3333 1.3333c0.7334 0 1.3334-0.6 1.3334-1.3333zm429.33 0c0-0.73333-0.6-1.3333-1.3333-1.3333-0.7334 0-1.3334 0.6-1.3334 1.3333s0.6 1.3333 1.3334 1.3333c0.7333 0 1.3333-0.6 1.3333-1.3333zm-2817.4-5.9813c1.478-1.3376 2.6873-2.939 2.6873-3.5587 0-0.61966-4.5188-1.1267-10.042-1.1267-10.464 0-12.634 1.2447-10.747 6.1634 1.1549 3.0096 14.331 1.9337 18.101-1.478zm239.35-0.68536v-3.3333l-220.89-0.68212-3.8131 3.0077c-2.0972 1.6542-3.8463 3.4611-3.8869 4.0152-0.0406 0.55411 51.376 0.85411 114.26 0.66667l114.33-0.34077zm213.33 0v-3.3333l-207.33-0.68301v8.0327l207.33-0.68301zm214.67 0v-3.3333l-103.71-0.34152c-91.351-0.30083-103.8-0.10227-104.48 1.6667-0.42384 1.1045-0.42384 2.9119 0 4.0164 0.67881 1.769 13.125 1.9675 104.48 1.6667l103.71-0.34152zm213.33 0v-3.3333l-103.71-0.34152c-91.351-0.30083-103.8-0.10227-104.48 1.6667-0.42384 1.1045-0.42384 2.9119 0 4.0164 0.67882 1.769 13.125 1.9675 104.48 1.6667l103.71-0.34152zm214.67 0v-3.3333l-103.71-0.34152c-91.351-0.30083-103.8-0.10227-104.48 1.6667-0.4238 1.1045-0.4238 2.9119 0 4.0164 0.6788 1.769 13.125 1.9675 104.48 1.6667l103.71-0.34152zm214.67 0v-3.3333l-207.33-0.68301v8.0327l207.33-0.68301zm214.67 0v-3.3333l-103.71-0.34152c-91.351-0.30083-103.8-0.10227-104.48 1.6667-0.4239 1.1045-0.4239 2.9119 0 4.0164 0.6788 1.769 13.125 1.9675 104.48 1.6667l103.71-0.34152zm214.67 0v-3.3333l-207.33-0.68301v8.0327l207.33-0.68301zm214.67 0v-3.3333l-103.71-0.34152c-91.351-0.30083-103.8-0.10227-104.48 1.6667-0.4238 1.1045-0.4238 2.9119 0 4.0164 0.6788 1.769 13.125 1.9675 104.48 1.6667l103.71-0.34152zm214.67 0v-3.3333l-207.33-0.68301v8.0327l207.33-0.68301zm214.67 0v-3.3333l-103.71-0.34152c-91.351-0.30083-103.8-0.10227-104.48 1.6667-0.4239 1.1045-0.4239 2.9119 0 4.0164 0.6788 1.769 13.125 1.9675 104.48 1.6667l103.71-0.34152zm214.67 0v-3.3333l-207.33-0.68301v8.0327l207.33-0.68301zm214.67 0v-3.3333l-103.71-0.34152c-91.351-0.30083-103.8-0.10227-104.48 1.6667-0.4239 1.1045-0.4239 2.9119 0 4.0164 0.6788 1.769 13.125 1.9675 104.48 1.6667l103.71-0.34152zm214.67 0v-3.3333l-207.33-0.68301v8.0327l207.33-0.68301zm-1927.3-6.6667c0-0.73334-0.2646-1.3333-0.588-1.3333s-0.9588 0.6-1.412 1.3333c-0.4533 0.73333-0.1887 1.3333 0.5879 1.3333 0.7767 0 1.4121-0.6 1.4121-1.3333zm429.33 0c0-0.73334-0.2645-1.3333-0.588-1.3333-0.3233 0-0.9588 0.6-1.412 1.3333-0.4532 0.73333-0.1887 1.3333 0.588 1.3333 0.7765 0 1.412-0.6 1.412-1.3333zm429.33 0c0-0.73334-0.2645-1.3333-0.588-1.3333-0.3233 0-0.9588 0.6-1.412 1.3333-0.4532 0.73333-0.1886 1.3333 0.588 1.3333s1.412-0.6 1.412-1.3333zm429.33 0c0-0.73334-0.2646-1.3333-0.588-1.3333s-0.9588 0.6-1.412 1.3333c-0.4532 0.73333-0.1887 1.3333 0.588 1.3333 0.7765 0 1.412-0.6 1.412-1.3333zm429.33 0c0-0.73334-0.2645-1.3333-0.588-1.3333-0.3233 0-0.9588 0.6-1.412 1.3333-0.4532 0.73333-0.1887 1.3333 0.588 1.3333 0.7765 0 1.412-0.6 1.412-1.3333zm-2807.6-5.5647c1.1297-4.32-0.30546-5.5013-3.8567-3.1744-4.0499 2.6536-9.8425 2.6474-13.643-0.0145-1.6388-1.1478-4.6223-1.8978-6.63-1.6667-2.8626 0.32962-3.7414 1.2116-4.0723 4.087l-0.4219 3.6667h13.933c13.183 0 13.974-0.1561 14.691-2.898zm228.89-1.102v-4h-207.7l-0.58708 4-0.58707 4h208.87zm214.42 0.33333-0.4219-3.6667-207.33-0.68302v8.0164h208.18zm214.67 0-0.42189-3.6667h-208l-0.42189 3.6667-0.4219 3.6667h209.69zm213.33 0-0.4219-3.6667-103.71-0.34152c-91.351-0.30083-103.8-0.10227-104.48 1.6667-0.42384 1.1045-0.42525 2.9082-3e-3 4.0082 0.67313 1.7542 13.568 2 104.9 2h104.13l-0.4219-3.6667zm214.67 0-0.4219-3.6667h-208l-0.8438 7.3333h209.69zm214.67 0-0.4218-3.6667-207.33-0.68302v8.0164h208.18zm214.67 0-0.4219-3.6667h-208l-0.4218 3.6667-0.4219 3.6667h209.69zm214.67 0-0.4219-3.6667-207.33-0.68302v8.0164h208.18zm214.67 0-0.4218-3.6667h-208l-0.8438 7.3333h209.69zm214.67 0-0.4219-3.6667-207.33-0.68302v8.0164h208.18zm214.67 0-0.4219-3.6667h-208l-0.4219 3.6667-0.4218 3.6667h209.69zm214.67 0-0.4218-3.6667-207.33-0.68302v8.0164h208.18zm214.67 0-0.4219-3.6667h-208l-0.4218 3.6667-0.4219 3.6667h209.69zm214.67 0-0.4219-3.6667-207.33-0.68302v8.0164h208.18zm-2999.8-1.0787c0-1.96-2.8465-2.6304-4.4329-1.044-1.2058 1.2058 1.7824 4.6034 3.2506 3.696 0.65024-0.40187 1.1823-1.5953 1.1823-2.652zm1072-5.9213c0-0.73333-0.2646-1.3333-0.588-1.3333s-0.9588 0.6-1.412 1.3333c-0.4533 0.73334-0.1887 1.3333 0.5879 1.3333 0.7767 0 1.4121-0.6 1.4121-1.3333zm429.33 0c0-0.73333-0.2645-1.3333-0.588-1.3333-0.3233 0-0.9588 0.6-1.412 1.3333-0.4532 0.73334-0.1887 1.3333 0.588 1.3333 0.7765 0 1.412-0.6 1.412-1.3333zm429.33 0c0-0.73333-0.2645-1.3333-0.588-1.3333-0.3233 0-0.9588 0.6-1.412 1.3333-0.4532 0.73334-0.1886 1.3333 0.588 1.3333s1.412-0.6 1.412-1.3333zm429.33 0c0-0.73333-0.2646-1.3333-0.588-1.3333s-0.9588 0.6-1.412 1.3333c-0.4532 0.73334-0.1887 1.3333 0.588 1.3333 0.7765 0 1.412-0.6 1.412-1.3333zm429.33 0c0-0.73333-0.2645-1.3333-0.588-1.3333-0.3233 0-0.9588 0.6-1.412 1.3333-0.4532 0.73334-0.1887 1.3333 0.588 1.3333 0.7765 0 1.412-0.6 1.412-1.3333zm-2826.7-3.8909c0-0.67336 0.3642-2.1734 0.80932-3.3333 0.65703-1.7122-0.22107-2.109-4.6667-2.109-4.9522 0-5.476 0.31887-5.476 3.3333 0 2.9206 0.57778 3.3333 4.6667 3.3333 2.5667 0 4.6667-0.55094 4.6667-1.2243zm17.163-2.9095c-3.3271-2.1076-4.2827-1.244-1.7366 1.5694 1.6189 1.7889 2.6935 2.2062 3.0358 1.1791 0.29147-0.87442-0.29318-2.1113-1.2992-2.7486zm231.5 0.80045c0-2.641-1.0027-2.6699-104.33-3.0081l-104.33-0.34146v6.6992l104.33-0.34147c103.33-0.33817 104.33-0.36708 104.33-3.0081zm214 0v-3.3333h-208v6.6667h208zm214.67 0v-3.3333h-209.33v6.6667h209.33zm213.33 0v-3.3333h-104.67c-100.61 0-104.67 0.0948-104.67 2.4444 0 1.3444 0.4 2.8444 0.88889 3.3333 0.48888 0.4889 47.589 0.8889 104.67 0.8889h103.78zm214.67 0v-3.3333h-209.33v6.6667h209.33zm214.67 0v-3.3333h-208v6.6667h208zm214.67 0v-3.3333h-209.33v6.6667h209.33zm214.67 0v-3.3333h-208v6.6667h208zm214.67 0v-3.3333h-209.33v6.6667h209.33zm214.67 0v-3.3333h-208v6.6667h208zm214.67 0v-3.3333h-209.33v6.6667h209.33zm214.67 0v-3.3333h-208v6.6667h208zm214.67 0v-3.3333h-209.33v6.6667h209.33zm214.67 0v-3.3333h-208v6.6667h208zm-3000.3-0.33333c-0.54124-2.8104-2.9076-2.6332-3.5106 0.26291-0.25153 1.208 0.48346 2.0704 1.7644 2.0704 1.3733 0 2.0272-0.87386 1.7462-2.3333zm1072.3-6.412c0-1.1433-0.6098-1.7018-1.3551-1.2412-0.7453 0.46062-1.0099 1.396-0.588 2.0787 1.143 1.8494 1.9431 1.5045 1.9431-0.8375zm429.33 0c0-1.1433-0.6097-1.7018-1.3551-1.2412-0.7453 0.46062-1.0098 1.396-0.588 2.0787 1.143 1.8494 1.9431 1.5045 1.9431-0.8375zm429.33 0c0-1.1433-0.6097-1.7018-1.355-1.2412-0.7454 0.46062-1.0099 1.396-0.588 2.0787 1.1429 1.8494 1.943 1.5045 1.943-0.8375zm429.33 0c0-1.1433-0.6098-1.7018-1.3551-1.2412-0.7453 0.46062-1.0099 1.396-0.588 2.0787 1.1429 1.8494 1.9431 1.5045 1.9431-0.8375zm429.33 0c0-1.1433-0.6097-1.7018-1.3551-1.2412-0.7453 0.46062-1.0098 1.396-0.588 2.0787 1.143 1.8494 1.9431 1.5045 1.9431-0.8375zm-2579.2-3.367c1.5002-1.2451 1.8646-7.6558 1.8646-32.805 0-18.997-0.5414-32.269-1.3802-33.837-1.3472-2.5172-3.9679-2.579-109.33-2.579h-107.95v8c0 10.261-2.6255 13.333-11.394 13.333-11.472 0-16.587-10.281-8.2116-16.507 3.4242-2.5455 4.0168-2.6089 7.278-0.77849 1.9526 1.096 3.9653 3.4836 4.4726 5.306 0.73845 2.6523 0.94899 2.1879 1.0554-2.328 0.16423-6.9707-0.7392-7.2882-19.2-6.7485l-13.333 0.3898-0.3573 33.309c-0.19652 18.32-0.0866 34.015 0.24425 34.877 0.86291 2.2487 253.55 2.6117 256.25 0.36814zm214.53-33.888v-34.667l-207.33-0.68302v34.453c0 18.949 0.40368 34.856 0.89705 35.35 0.49339 0.49338 47.143 0.74338 103.67 0.55556l102.77-0.34151zm214.67 0v-34.667h-208l-0.35731 33.309c-0.1965 18.32-0.0639 34.074 0.29463 35.008 0.52197 1.3602 21.325 1.6308 104.36 1.3574l103.71-0.34152zm213.33 0v-34.667h-208l-0.35673 33.907c-0.27601 26.235 0.0256 34.151 1.3333 34.984 0.92954 0.5926 47.89 0.93452 104.36 0.75981l102.67-0.31764zm214.67 0v-34.667h-208l-0.3573 33.309c-0.1965 18.32-0.064 34.074 0.2946 35.008 0.522 1.3602 21.325 1.6308 104.36 1.3574l103.71-0.34152zm214.67 0v-34.667l-207.33-0.68302v34.453c0 18.949 0.4037 34.856 0.8971 35.35 0.4934 0.49338 47.143 0.74338 103.67 0.55556l102.77-0.34151zm214.67 0v-34.667h-208l-0.3573 33.309c-0.1965 18.32-0.064 34.074 0.2947 35.008 0.522 1.3602 21.325 1.6308 104.36 1.3574l103.71-0.34152zm214.67 0v-34.667l-207.33-0.68302v34.453c0 18.949 0.4037 34.856 0.897 35.35 0.4934 0.49338 47.143 0.74338 103.67 0.55556l102.77-0.34151zm214.67 0v-34.667h-208l-0.3574 33.309c-0.1965 18.32-0.064 34.074 0.2947 35.008 0.522 1.3602 21.325 1.6308 104.36 1.3574l103.71-0.34152zm214.67 0v-34.667l-207.33-0.68302v34.453c0 18.949 0.4037 34.856 0.8971 35.35 0.4933 0.49338 47.143 0.74338 103.67 0.55556l102.77-0.34151zm214.67 0v-34.667h-208l-0.3573 33.309c-0.1966 18.32-0.064 34.074 0.2946 35.008 0.522 1.3602 21.325 1.6308 104.36 1.3574l103.71-0.34152zm214.67 0v-34.667l-207.33-0.68302v34.453c0 18.949 0.4038 34.856 0.8971 35.35 0.4933 0.49338 47.143 0.74338 103.67 0.55556l102.77-0.34151zm214.67 0v-34.667h-208l-0.3573 33.309c-0.1965 18.32-0.064 34.074 0.2947 35.008 0.522 1.3602 21.325 1.6308 104.36 1.3574l103.71-0.34152zm214.67 0v-34.667l-207.33-0.68302v34.453c0 18.949 0.4037 34.856 0.897 35.35 0.4934 0.49338 47.143 0.74338 103.67 0.55556l102.77-0.34151zm-3010.3-18.267c0.88-0.88 1.6-2.7609 1.6-4.1798 0-2.2506-0.35259-2.1316-2.7634 0.93333-1.5199 1.9322-3.6199 3.5131-4.6667 3.5131-2.267 0-2.3526-0.66892-0.52298-4.0876 1.8895-3.5306-0.59914-7.9124-4.4938-7.9124-5.9836 0-8.2658 6.1958-4.0131 10.895 2.5576 2.8261 12.321 3.3769 14.86 0.83832zm5.9901-23.648c5.2796-6.2745 5.565-8.7903 1.7375-15.321-2.6922-4.5939-4.4704-6.0698-8.4361-7.002-4.0556-0.95324-5.1038-1.8552-5.4343-4.6761-0.27053-2.3092 0.49206-4.1265 2.2476-5.3561 4.2074-2.947 9.0906-19.73 5.7407-19.73-0.5983 0-2.4367 2.4-4.0853 5.3333-4.0979 7.2912-7.0013 7.1214-6.377-0.37311 0.83188-9.9859 5.4965-14.925 8.7766-9.2936 1.1794 2.0248 1.3644 1.8822 1.3996-1.0785 0.054-4.5416-2.8722-8.3264-5.9754-7.7288-4.8626 0.93644-8.0099 8.8649-7.7195 19.446 0.18816 6.8553-0.24866 9.9357-1.5126 10.667-0.97743 0.56527-3.8956 3.8163-6.4849 7.2246-3.4583 4.5522-4.9449 8.0951-5.6014 13.349-0.87433 6.9979-0.77342 7.2892 4.667 13.47 5.2728 5.9902 9.5406 7.8856 11.31 5.023 0.43994-0.71183-0.68049-1.6658-2.4898-2.1199-4.6468-1.1663-7.0529-4.381-8.1108-10.837-0.86016-5.249-0.5756-5.9527 4.7378-11.717 6.3412-6.8794 10.32-6.5266 5.3355 0.4731-4.4362 6.2301-6.0509 11.829-4.092 14.19 2.3592 2.8427 3.9738 2.4275 3.9973-1.0278 0.0275-4.0385 2.198-7.3631 3.6922-5.6555 2.1415 2.4472 4.5957 12.25 3.741 14.943-0.52055 1.6401-0.0644 3.3189 1.1829 4.3541 1.1166 0.92666 2.0915 2.6614 2.1666 3.8549 0.0751 1.1935 0.59208 0.25531 1.1489-2.085 0.55684-2.3403 2.554-6.087 4.438-8.3261zm-6.3281-1.7522c-0.28651-0.91667-0.90445-3.9677-1.3732-6.7802-0.74155-4.4492-0.53985-5.0533 1.5526-4.6504 3.5409 0.68191 6.2473 7.026 4.4388 10.405-1.6241 3.0346-3.8367 3.5259-4.6183 1.0255zm440.6 5.6667c0-0.73333-0.26459-1.3333-0.58797-1.3333-0.32339 0-0.9588 0.6-1.412 1.3333-0.45323 0.73334-0.18864 1.3333 0.58797 1.3333 0.77662 0 1.412-0.6 1.412-1.3333zm428 0c0-0.73333-0.2646-1.3333-0.588-1.3333s-0.9588 0.6-1.412 1.3333c-0.4533 0.73334-0.1887 1.3333 0.5879 1.3333 0.7767 0 1.4121-0.6 1.4121-1.3333zm214.67 0c0-0.73333-0.2646-1.3333-0.588-1.3333s-0.9588 0.6-1.412 1.3333c-0.4533 0.73334-0.1887 1.3333 0.5879 1.3333 0.7767 0 1.4121-0.6 1.4121-1.3333zm214.67 0c0-0.73333-0.2645-1.3333-0.588-1.3333-0.3233 0-0.9588 0.6-1.412 1.3333-0.4532 0.73334-0.1886 1.3333 0.588 1.3333s1.412-0.6 1.412-1.3333zm214.67 0c0-0.73333-0.2645-1.3333-0.588-1.3333-0.3233 0-0.9588 0.6-1.412 1.3333-0.4532 0.73334-0.1887 1.3333 0.588 1.3333 0.7765 0 1.412-0.6 1.412-1.3333zm214.67 0c0-0.73333-0.2646-1.3333-0.588-1.3333s-0.9588 0.6-1.412 1.3333c-0.4532 0.73334-0.1887 1.3333 0.588 1.3333 0.7765 0 1.412-0.6 1.412-1.3333zm214.67 0c0-0.73333-0.2645-1.3333-0.588-1.3333-0.3233 0-0.9588 0.6-1.412 1.3333-0.4532 0.73334-0.1886 1.3333 0.588 1.3333s1.412-0.6 1.412-1.3333zm214.67 0c0-0.73333-0.2645-1.3333-0.588-1.3333-0.3233 0-0.9588 0.6-1.412 1.3333-0.4532 0.73334-0.1887 1.3333 0.588 1.3333 0.7765 0 1.412-0.6 1.412-1.3333zm214.67 0c0-0.73333-0.2646-1.3333-0.588-1.3333s-0.9588 0.6-1.412 1.3333c-0.4532 0.73334-0.1887 1.3333 0.588 1.3333 0.7765 0 1.412-0.6 1.412-1.3333zm214.67 0c0-0.73333-0.2645-1.3333-0.588-1.3333-0.3233 0-0.9588 0.6-1.412 1.3333-0.4532 0.73334-0.1886 1.3333 0.588 1.3333s1.412-0.6 1.412-1.3333zm214.67 0c0-0.73333-0.2645-1.3333-0.588-1.3333-0.3233 0-0.9588 0.6-1.412 1.3333-0.4532 0.73334-0.1887 1.3333 0.588 1.3333 0.7765 0 1.412-0.6 1.412-1.3333zm214.67 0c0-0.73333-0.2646-1.3333-0.588-1.3333s-0.9588 0.6-1.412 1.3333c-0.4532 0.73334-0.1887 1.3333 0.588 1.3333 0.7765 0 1.412-0.6 1.412-1.3333zm-3038.3-2.1528c0.45072-0.45072-0.11828-2.2507-1.2645-4-1.5168-2.315-3.3122-3.1805-6.5973-3.1805-3.8394 0-4.5133 0.46458-4.5133 3.1111 0 1.7111 0.4 3.5111 0.88889 4 1.117 1.117 10.383 1.173 11.486 0.0694zm244.84-2.1805c0.6236-1.65 0.86885-3.45 0.54501-4s-47.584-1-105.02-1h-104.43l-2.1188 3.2337c-1.5895 2.4259-1.7111 3.3989-0.48668 3.8947 0.89768 0.36355 48.601 0.70837 106.01 0.76627l104.38 0.10526zm214.54-1.3333 0.42189-3.6667h-208.18v3.1111c0 1.7111 0.40368 3.5148 0.89705 4.0082 0.49339 0.49339 47.143 0.74339 103.67 0.55556l102.77-0.3415zm214.67 0 0.4219-3.6667h-104.13c-91.33 0-104.22 0.24585-104.9 2-0.42212 1.1-0.42071 2.9037 3e-3 4.0082 0.67882 1.769 13.125 1.9675 104.48 1.6667l103.71-0.34151zm213.33 0 0.4219-3.6667h-208.18v3.1111c0 1.7111 0.40368 3.5148 0.89705 4.0082 0.49339 0.49339 47.143 0.74339 103.67 0.55556l102.77-0.3415zm214.67 0 0.4219-3.6667h-104.13c-91.33 0-104.22 0.24585-104.9 2-0.4221 1.1-0.4207 2.9037 0 4.0082 0.6788 1.769 13.125 1.9675 104.48 1.6667l103.71-0.34151zm214.67 0 0.4219-3.6667h-208.18v3.1111c0 1.7111 0.4037 3.5148 0.8971 4.0082 0.4934 0.49339 47.143 0.74339 103.67 0.55556l102.77-0.3415zm214.67 0 0.4219-3.6667h-104.13c-91.33 0-104.22 0.24585-104.9 2-0.4221 1.1-0.4207 2.9037 0 4.0082 0.6788 1.769 13.125 1.9675 104.48 1.6667l103.71-0.34151zm214.67 0 0.4218-3.6667h-208.18v3.1111c0 1.7111 0.4037 3.5148 0.897 4.0082 0.4934 0.49339 47.143 0.74339 103.67 0.55556l102.77-0.3415zm214.67 0 0.4219-3.6667h-104.13c-91.33 0-104.22 0.24585-104.9 2-0.4221 1.1-0.4206 2.9037 0 4.0082 0.6788 1.769 13.125 1.9675 104.48 1.6667l103.71-0.34151zm214.67 0 0.4219-3.6667h-208.18v3.1111c0 1.7111 0.4037 3.5148 0.8971 4.0082 0.4933 0.49339 47.143 0.74339 103.67 0.55556l102.77-0.3415zm214.67 0 0.4218-3.6667h-104.13c-91.33 0-104.22 0.24585-104.9 2-0.4222 1.1-0.4207 2.9037 0 4.0082 0.6788 1.769 13.125 1.9675 104.48 1.6667l103.71-0.34151zm214.67 0 0.4219-3.6667h-208.18v3.1111c0 1.7111 0.4038 3.5148 0.8971 4.0082 0.4933 0.49339 47.143 0.74339 103.67 0.55556l102.77-0.3415zm214.67 0 0.4219-3.6667h-104.13c-91.33 0-104.22 0.24585-104.9 2-0.4221 1.1-0.4207 2.9037 0 4.0082 0.6788 1.769 13.125 1.9675 104.48 1.6667l103.71-0.34151zm214.67 0 0.4218-3.6667h-208.18v3.1111c0 1.7111 0.4037 3.5148 0.897 4.0082 0.4934 0.49339 47.143 0.74339 103.67 0.55556l102.77-0.3415zm-3025.1-1.588c0-0.32339-0.6-0.9588-1.3333-1.412-0.73333-0.45323-1.3333-0.18864-1.3333 0.58798 0 0.77661 0.6 1.412 1.3333 1.412s1.3333-0.26459 1.3333-0.58798zm1098-6.0787c-0.6451-1.0438-1.4121-1.1212-2.301-0.23235-0.7333 0.73333-0.8978 2.0379-0.3656 2.899 0.6451 1.0438 1.4121 1.1212 2.301 0.23235 0.7333-0.73333 0.8978-2.0379 0.3656-2.899zm429.33 0c-0.6451-1.0438-1.4122-1.1212-2.301-0.23235-0.7333 0.73333-0.898 2.0379-0.3657 2.899 0.6451 1.0438 1.4121 1.1212 2.3009 0.23235 0.7334-0.73333 0.898-2.0379 0.3658-2.899zm429.33 0c-0.6451-1.0438-1.4121-1.1212-2.3009-0.23235-0.7334 0.73333-0.898 2.0379-0.3658 2.899 0.6451 1.0438 1.4122 1.1212 2.301 0.23235 0.7333-0.73333 0.898-2.0379 0.3657-2.899zm429.33 0c-0.645-1.0438-1.4121-1.1212-2.3009-0.23235-0.7333 0.73333-0.898 2.0379-0.3657 2.899 0.645 1.0438 1.4121 1.1212 2.3009 0.23235 0.7333-0.73333 0.898-2.0379 0.3657-2.899zm429.33 0c-0.6451-1.0438-1.4122-1.1212-2.301-0.23235-0.7333 0.73333-0.898 2.0379-0.3657 2.899 0.6451 1.0438 1.4121 1.1212 2.3009 0.23235 0.7334-0.73333 0.898-2.0379 0.3658-2.899zm-2574.7 1.3333c0.45323-0.73334 0.18864-1.3333-0.58797-1.3333-0.77662 0-1.412 0.6-1.412 1.3333 0 0.73333 0.26459 1.3333 0.58797 1.3333 0.32339 0 0.9588-0.6 1.412-1.3333zm214-0.74536c0-1.1433-0.6-1.7079-1.3333-1.2546-0.73334 0.45322-1.3333 1.3886-1.3333 2.0787 0 0.69006 0.6 1.2546 1.3333 1.2546 0.73333 0 1.3333-0.93541 1.3333-2.0787zm428 0c0-1.1433-0.6-1.7079-1.3334-1.2546-0.7333 0.45322-1.3333 1.3886-1.3333 2.0787 0 0.69006 0.6 1.2546 1.3333 1.2546 0.7334 0 1.3334-0.93541 1.3334-2.0787zm429.33 0c0-1.1433-0.6-1.7079-1.3333-1.2546-0.7333 0.45322-1.3333 1.3886-1.3333 2.0787 0 0.69006 0.6 1.2546 1.3333 1.2546s1.3333-0.93541 1.3333-2.0787zm429.33 0c0-1.1433-0.6-1.7079-1.3334-1.2546-0.7333 0.45322-1.3333 1.3886-1.3333 2.0787 0 0.69006 0.6 1.2546 1.3333 1.2546 0.7334 0 1.3334-0.93541 1.3334-2.0787zm429.33 0c0-1.1433-0.6-1.7079-1.3333-1.2546-0.7334 0.45322-1.3334 1.3886-1.3334 2.0787 0 0.69006 0.6 1.2546 1.3334 1.2546 0.7333 0 1.3333-0.93541 1.3333-2.0787zm429.33 0c0-1.1433-0.6-1.7079-1.3333-1.2546-0.7333 0.45322-1.3333 1.3886-1.3333 2.0787 0 0.69006 0.6 1.2546 1.3333 1.2546s1.3333-0.93541 1.3333-2.0787zm429.33 0c0-1.1433-0.6-1.7079-1.3334-1.2546-0.7333 0.45322-1.3333 1.3886-1.3333 2.0787 0 0.69006 0.6 1.2546 1.3333 1.2546 0.7334 0 1.3334-0.93541 1.3334-2.0787zm-3042.9-6.2546c0.37908-3.2946 7e-3 -3.6667-3.6667-3.6667-3.3944 0-4.0886 0.52823-4.0886 3.1111 0 3.9298 1.174 5.1039 4.6118 4.6118 1.8541-0.26541 2.856-1.5582 3.1434-4.0562zm249.58 0.33333v-4h-106c-58.3 0-106 0.26094-106 0.57987 0 0.31892 0.58515 2.1189 1.3003 4l1.3003 3.4201h209.4zm214.42-0.33333 0.42189-3.6667h-208.18v8.0164l207.33-0.68302zm214.91 0.33333v-4h-104.04c-91.252 0-104.14 0.24587-104.81 2-0.42212 1.1-0.42212 2.9 0 4 0.67312 1.7541 13.558 2 104.81 2h104.04zm213.09-0.33333 0.4219-3.6667h-208.18v8.0164l207.33-0.68302zm214.91 0.33333v-4h-104.04c-91.252 0-104.14 0.24587-104.81 2-0.4221 1.1-0.4221 2.9 0 4 0.6731 1.7541 13.558 2 104.81 2h104.04zm214.42-0.33333 0.4219-3.6667h-208.18v8.0164l207.33-0.68302zm214.91 0.33333v-4h-104.04c-91.252 0-104.14 0.24587-104.81 2-0.4221 1.1-0.4221 2.9 0 4 0.6732 1.7541 13.558 2 104.81 2h104.04zm214.42-0.33333 0.4218-3.6667h-208.18v8.0164l207.33-0.68302zm214.91 0.33333v-4h-104.04c-91.252 0-104.14 0.24587-104.81 2-0.4221 1.1-0.4221 2.9 0 4 0.6732 1.7541 13.558 2 104.81 2h104.04zm214.42-0.33333 0.4219-3.6667h-208.18v8.0164l207.33-0.68302zm214.91 0.33333v-4h-104.04c-91.252 0-104.14 0.24587-104.81 2-0.4222 1.1-0.4222 2.9 0 4 0.6732 1.7541 13.558 2 104.81 2h104.04zm214.42-0.33333 0.4219-3.6667h-208.18v8.0164l207.33-0.68302zm214.91 0.33333v-4h-104.04c-91.252 0-104.14 0.24587-104.81 2-0.4221 1.1-0.4221 2.9 0 4 0.6732 1.7541 13.558 2 104.81 2h104.04zm214.42-0.33333 0.4218-3.6667h-208.18v8.0164l207.33-0.68302zm-3026.5-1.6667c0-0.73333-0.58163-0.43333-1.2925 0.66667-0.71088 1.1-1.2925 2.6-1.2925 3.3333s0.58162 0.43333 1.2925-0.66667c0.71087-1.1 1.2925-2.6 1.2925-3.3333zm1099-6.2444c-2.0367-2.0367-3.5396-0.53384-2.4099 2.4099 0.6669 1.7381 1.2452 1.9103 2.4313 0.72417 1.1862-1.1862 1.1811-1.9315-0.021-3.1341zm429.33 0c-2.0366-2.0367-3.5396-0.53384-2.41 2.4099 0.6671 1.7381 1.2454 1.9103 2.4315 0.72417 1.1861-1.1862 1.1811-1.9315-0.021-3.1341zm429.33 0c-2.0367-2.0367-3.5396-0.53384-2.41 2.4099 0.667 1.7381 1.2453 1.9103 2.4314 0.72417 1.1862-1.1862 1.1811-1.9315-0.021-3.1341zm429.33 0c-2.0367-2.0367-3.5396-0.53384-2.41 2.4099 0.6671 1.7381 1.2453 1.9103 2.4315 0.72417 1.1861-1.1862 1.181-1.9315-0.021-3.1341zm429.33 0c-2.0366-2.0367-3.5396-0.53384-2.41 2.4099 0.6671 1.7381 1.2454 1.9103 2.4315 0.72417 1.1861-1.1862 1.1811-1.9315-0.021-3.1341zm-2574.3 1.5778c0.45323-0.73333 0.18864-1.3333-0.58797-1.3333-0.77662 0-1.412 0.6-1.412 1.3333 0 0.73334 0.26459 1.3333 0.58797 1.3333 0.32339 0 0.9588-0.6 1.412-1.3333zm214-0.74535c0-1.1433-0.6-1.7079-1.3333-1.2546-0.73334 0.45323-1.3333 1.3886-1.3333 2.0787 0 0.69006 0.6 1.2546 1.3333 1.2546 0.73333 0 1.3333-0.93542 1.3333-2.0787zm428 0c0-1.1433-0.6-1.7079-1.3334-1.2546-0.7333 0.45323-1.3333 1.3886-1.3333 2.0787 0 0.69006 0.6 1.2546 1.3333 1.2546 0.7334 0 1.3334-0.93542 1.3334-2.0787zm429.33 0c0-1.1433-0.6-1.7079-1.3333-1.2546-0.7333 0.45323-1.3333 1.3886-1.3333 2.0787 0 0.69006 0.6 1.2546 1.3333 1.2546s1.3333-0.93542 1.3333-2.0787zm429.33 0c0-1.1433-0.6-1.7079-1.3334-1.2546-0.7333 0.45323-1.3333 1.3886-1.3333 2.0787 0 0.69006 0.6 1.2546 1.3333 1.2546 0.7334 0 1.3334-0.93542 1.3334-2.0787zm429.33 0c0-1.1433-0.6-1.7079-1.3333-1.2546-0.7334 0.45323-1.3334 1.3886-1.3334 2.0787 0 0.69006 0.6 1.2546 1.3334 1.2546 0.7333 0 1.3333-0.93542 1.3333-2.0787zm429.33 0c0-1.1433-0.6-1.7079-1.3333-1.2546-0.7333 0.45323-1.3333 1.3886-1.3333 2.0787 0 0.69006 0.6 1.2546 1.3333 1.2546s1.3333-0.93542 1.3333-2.0787zm429.33 0c0-1.1433-0.6-1.7079-1.3334-1.2546-0.7333 0.45323-1.3333 1.3886-1.3333 2.0787 0 0.69006 0.6 1.2546 1.3333 1.2546 0.7334 0 1.3334-0.93542 1.3334-2.0787zm-3038.1-4.8904c1.949-2.7826 1.8909-3.0391-0.92439-4.0832-4.6013-1.7066-11.671 0.0443-11.671 2.8905 0 3.3723 1.1661 4.1618 6.1466 4.1618 3.0057 0 5.0177-0.92642 6.4485-2.9691zm244.74-0.25831c0-2.4691-0.86152-3.3852-3.6667-3.899-2.9914-0.54792-199.56-0.28331-216.67 0.29166-3.8985 0.13104-5 0.70659-5 2.6125 0 1.3444 0.4 2.8444 0.88889 3.3333s51.189 0.88889 112.67 0.88889h111.78zm214.4-0.23781c0.37555-2.6297-0.34857-2.8403-12-3.4912-6.8198-0.38094-53.5-0.6216-103.73-0.53479l-91.333 0.15782-0.4227 3.6749-0.42268 3.6749 207.51-0.68306zm214.27-0.53479v-3.3333l-102.06-0.35049c-107.9-0.37056-108.44-0.3423-106.2 5.4992 0.77659 2.0238 9.1962 2.1735 104.55 1.8595l103.71-0.34152zm213.73 0.53479c0.3755-2.6297-0.3486-2.8403-12-3.4912-6.8198-0.38094-53.5-0.6216-103.73-0.53479l-91.333 0.15782-0.4227 3.6749-0.42268 3.6749 207.51-0.68306zm214.27-0.53479v-3.3333l-102.06-0.35049c-107.9-0.37056-108.44-0.3423-106.2 5.4992 0.7766 2.0238 9.1962 2.1735 104.55 1.8595l103.71-0.34152zm215.07 0.53479c0.3755-2.6297-0.3487-2.8403-12-3.4912-6.8199-0.38094-53.5-0.6216-103.73-0.53479l-91.333 0.15782-0.4227 3.6749-0.4227 3.6749 207.51-0.68306zm214.27-0.53479v-3.3333l-102.06-0.35049c-107.9-0.37056-108.44-0.3423-106.2 5.4992 0.7765 2.0238 9.1961 2.1735 104.55 1.8595l103.71-0.34152zm215.07 0.53479c0.3755-2.6297-0.3486-2.8403-12-3.4912-6.8198-0.38094-53.5-0.6216-103.73-0.53479l-91.333 0.15782-0.4226 3.6749-0.4227 3.6749 207.51-0.68306zm214.27-0.53479v-3.3333l-102.06-0.35049c-107.9-0.37056-108.44-0.3423-106.2 5.4992 0.7766 2.0238 9.1962 2.1735 104.55 1.8595l103.71-0.34152zm215.07 0.53479c0.3754-2.6297-0.3487-2.8403-12-3.4912-6.8199-0.38094-53.5-0.6216-103.73-0.53479l-91.333 0.15782-0.4227 3.6749-0.4227 3.6749 207.51-0.68306zm214.27-0.53479v-3.3333l-102.06-0.35049c-107.9-0.37056-108.44-0.3423-106.2 5.4992 0.7765 2.0238 9.1961 2.1735 104.55 1.8595l103.71-0.34152zm215.07 0.53479c0.3755-2.6297-0.3487-2.8403-12-3.4912-6.8199-0.38094-53.5-0.6216-103.73-0.53479l-91.333 0.15782-0.4227 3.6749-0.4226 3.6749 207.51-0.68306zm214.27-0.53479v-3.3333l-102.06-0.35049c-107.9-0.37056-108.44-0.3423-106.2 5.4992 0.7765 2.0238 9.1961 2.1735 104.55 1.8595l103.71-0.34152zm215.07 0.53479c0.3755-2.6297-0.3486-2.8403-12-3.4912-6.8198-0.38094-53.5-0.6216-103.73-0.53479l-91.333 0.15782-0.4226 3.6749-0.4227 3.6749 207.51-0.68306zm-1926.9-8.0015c-0.6454-1.6819-1.2875-1.9126-2.3541-0.84591-0.8067 0.80666-1.0673 2.5073-0.5793 3.7792 0.6454 1.6819 1.2875 1.9126 2.3541 0.84592 0.8067-0.80667 1.0673-2.5073 0.5793-3.7792zm429.33 0c-0.6453-1.6819-1.2875-1.9126-2.3541-0.84591-0.8067 0.80666-1.0674 2.5073-0.5792 3.7792 0.6453 1.6819 1.2874 1.9126 2.3541 0.84592 0.8067-0.80667 1.0673-2.5073 0.5792-3.7792zm429.33 0c-0.6453-1.6819-1.2874-1.9126-2.3541-0.84591-0.8067 0.80666-1.0673 2.5073-0.5792 3.7792 0.6453 1.6819 1.2875 1.9126 2.3541 0.84592 0.8067-0.80667 1.0674-2.5073 0.5792-3.7792zm429.33 0c-0.6454-1.6819-1.2875-1.9126-2.3542-0.84591-0.8066 0.80666-1.0673 2.5073-0.5792 3.7792 0.6454 1.6819 1.2875 1.9126 2.3542 0.84592 0.8066-0.80667 1.0673-2.5073 0.5792-3.7792zm429.33 0c-0.6453-1.6819-1.2875-1.9126-2.3541-0.84591-0.8067 0.80666-1.0674 2.5073-0.5792 3.7792 0.6453 1.6819 1.2874 1.9126 2.3541 0.84592 0.8067-0.80667 1.0673-2.5073 0.5792-3.7792zm-2574.9 0.68612c-0.42929-0.69463-1.3489-0.91171-2.0435-0.48241s-0.91171 1.3489-0.4824 2.0435c0.42929 0.69463 1.3489 0.91171 2.0435 0.48241 0.69463-0.4293 0.91171-1.3489 0.4824-2.0435zm214.07 0.78055c0-1.1-0.6-2-1.3333-2-0.73334 0-1.3333 0.9-1.3333 2s0.6 2 1.3333 2c0.73333 0 1.3333-0.9 1.3333-2zm428 0c0-1.1-0.6-2-1.3334-2-0.7333 0-1.3333 0.9-1.3333 2s0.6 2 1.3333 2c0.7334 0 1.3334-0.9 1.3334-2zm429.33 0c0-1.1-0.6-2-1.3333-2s-1.3333 0.9-1.3333 2 0.6 2 1.3333 2 1.3333-0.9 1.3333-2zm429.33 0c0-1.1-0.6-2-1.3334-2-0.7333 0-1.3333 0.9-1.3333 2s0.6 2 1.3333 2c0.7334 0 1.3334-0.9 1.3334-2zm429.33 0c0-1.1-0.6-2-1.3333-2-0.7334 0-1.3334 0.9-1.3334 2s0.6 2 1.3334 2c0.7333 0 1.3333-0.9 1.3333-2zm429.33 0c0-1.1-0.6-2-1.3333-2s-1.3333 0.9-1.3333 2 0.6 2 1.3333 2 1.3333-0.9 1.3333-2zm429.33 0c0-1.1-0.6-2-1.3334-2-0.7333 0-1.3333 0.9-1.3333 2s0.6 2 1.3333 2c0.7334 0 1.3334-0.9 1.3334-2zm-3028.7-4.6391c0.44386-0.71817 0.14447-2.5438-0.66531-4.0568-1.3114-2.4504-2.5204-2.7084-11.062-2.3609-9.3593 0.38083-9.5994 0.47815-10.011 4.0569l-0.4219 3.6667h10.677c5.8721 0 11.04-0.5876 11.484-1.3058zm235.35-2.6942v-4h-107.73c-112.54 0-110.93-0.081-110.93 5.6 0 2.2916 4.9383 2.4 109.33 2.4h109.33zm214.42 0.33334-0.4219-3.6667h-206.67l-0.4219 3.6667-0.42189 3.6667h208.35zm214.67 0-0.42189-3.6667-103.71-0.34152c-91.351-0.30083-103.8-0.10228-104.48 1.6667-0.42384 1.1045-0.42525 2.9082-3e-3 4.0082 0.67314 1.7542 13.568 2 104.9 2h104.13l-0.42189-3.6667zm213.33 0-0.4219-3.6667h-206.67l-0.4219 3.6667-0.42189 3.6667h208.35zm214.67 0-0.4219-3.6667-103.71-0.34152c-91.351-0.30083-103.8-0.10228-104.48 1.6667-0.4238 1.1045-0.4252 2.9082 0 4.0082 0.6731 1.7542 13.568 2 104.9 2h104.13l-0.4219-3.6667zm214.67 0-0.4218-3.6667h-206.67l-0.4219 3.6667-0.4219 3.6667h208.35zm214.67 0-0.4219-3.6667-103.71-0.34152c-91.351-0.30083-103.8-0.10228-104.48 1.6667-0.4239 1.1045-0.4253 2.9082 0 4.0082 0.6732 1.7542 13.568 2 104.9 2h104.13l-0.4219-3.6667zm214.67 0-0.4219-3.6667h-206.67l-0.4218 3.6667-0.4219 3.6667h208.35zm214.67 0-0.4218-3.6667-103.71-0.34152c-91.351-0.30083-103.8-0.10228-104.48 1.6667-0.4238 1.1045-0.4253 2.9082 0 4.0082 0.6732 1.7542 13.568 2 104.9 2h104.13l-0.4219-3.6667zm214.67 0-0.4219-3.6667h-206.67l-0.4219 3.6667-0.4219 3.6667h208.35zm214.67 0-0.4219-3.6667-103.71-0.34152c-91.351-0.30083-103.8-0.10228-104.48 1.6667-0.4239 1.1045-0.4254 2.9082 0 4.0082 0.6732 1.7542 13.568 2 104.9 2h104.13l-0.4218-3.6667zm214.67 0-0.4218-3.6667h-206.67l-0.4219 3.6667-0.4218 3.6667h208.35zm214.67 0-0.4219-3.6667-103.71-0.34152c-91.351-0.30083-103.8-0.10228-104.48 1.6667-0.4239 1.1045-0.4253 2.9082 0 4.0082 0.6732 1.7542 13.568 2 104.9 2h104.13l-0.4219-3.6667zm214.67 0-0.4219-3.6667h-206.67l-0.4218 3.6667-0.4219 3.6667h208.35zm-1928.2-5.9167c-0.4256-1.0636-0.7415-0.7477-0.8055 0.80556-0.058 1.4056 0.2572 2.193 0.7003 1.75 0.443-0.44306 0.4904-1.5931 0.1052-2.5556zm429.33 0c-0.4256-1.0636-0.7416-0.7477-0.8056 0.80556-0.057 1.4056 0.2573 2.193 0.7004 1.75 0.443-0.44306 0.4904-1.5931 0.1053-2.5556zm429.33 0c-0.4256-1.0636-0.7416-0.7477-0.8056 0.80556-0.057 1.4056 0.2573 2.193 0.7004 1.75 0.4431-0.44306 0.4904-1.5931 0.1053-2.5556zm429.33 0c-0.4256-1.0636-0.7416-0.7477-0.8056 0.80556-0.057 1.4056 0.2574 2.193 0.7004 1.75 0.4431-0.44306 0.4904-1.5931 0.1054-2.5556zm429.33 0c-0.4256-1.0636-0.7416-0.7477-0.8056 0.80556-0.057 1.4056 0.2573 2.193 0.7004 1.75 0.443-0.44306 0.4904-1.5931 0.1053-2.5556zm-2802.2-6.5799c0-2.3643-0.32906-2.5568-2-1.1701-1.1 0.91292-2 2.1864-2 2.8299 0 0.64354 0.9 1.1701 2 1.1701 1.1496 0 2-1.2033 2-2.8299zm-53.339 183.49c-3.3133-3.9922-1.9636-16.5 4.8826-45.249 5.0357-21.146 5.5141-32.258 1.5591-36.213-1.7778-1.7778-1.9324-1.1847-1.3915 5.3377 0.59654 7.1935-5.0918 37.586-6.0928 32.553-0.24555-1.2345 0.83179-8.2147 2.3941-15.511 2.3322-10.893 2.5788-14.239 1.3778-18.699-0.80452-2.9877-2.0432-5.791-2.7527-6.2295s-1.953-2.0362-2.7635-3.5505c-0.88177-1.6476-0.93319-2.4194-0.12804-1.9218 0.74002 0.45735 2.6646-1.8933 4.2767-5.2236 3.1708-6.55 3.0304-11.053-0.80754-25.9-1.0351-4.0041-1.8171-8.8041-1.7378-10.667 0.0793-1.8626 1.6055 2.3135 3.3917 9.2801 2.2406 8.7391 3.1062 15.256 2.7916 21.017-0.39997 7.325-0.2167 8.1107 1.493 6.401 3.9379-3.9379 3.4266-15.193-1.6147-35.546-2.6164-10.563-5.1449-23.105-5.6189-27.872-0.47397-4.7667-1.0189-10.297-1.211-12.29-0.21211-2.2003 0.63039-4.5095 2.1456-5.8807 3.5476-3.2105 4.3843-1.5127 2.6496 5.3763-2.4171 9.5991-1.8017 16.416 3.328 36.864 5.9855 23.86 6.5592 35.155 2.0926 41.198l-3.0749 4.1602 3.5883 7.3341c4.3594 8.9103 4.1582 11.733-2.8455 39.93-4.9505 19.93-5.3956 27.076-2.4693 39.642 0.93878 4.0312-0.80207 4.8656-3.4627 1.6598z" stroke-width="1.3333"/>
</svg>
